/* XPM */
static char *_a135ff549324d0bf772259ec0a0baeaUJRnzkwV8RTZZ1vS[] = {
/* columns rows colors chars-per-pixel */
"64 64 175 2 ",
"   c #011D58",
".  c #1E366A",
"X  c #012979",
"o  c #233B6F",
"O  c #403E41",
"+  c #294172",
"@  c #384E7C",
"#  c #3C517E",
"$  c #444245",
"%  c #484749",
"&  c #4C4B4D",
"*  c #474548",
"=  c #4F4E51",
"-  c #514F52",
";  c #535255",
":  c #565559",
">  c #58565B",
",  c #5B595D",
"<  c #5F5956",
"1  c #635D59",
"2  c #68615B",
"3  c #5E5D61",
"4  c #605F62",
"5  c #626264",
"6  c #6C6967",
"7  c #656569",
"8  c #69676B",
"9  c #6B6A6C",
"0  c #6D6761",
"q  c #706E6C",
"w  c #74706E",
"e  c #6C6C72",
"r  c #686B78",
"t  c #706F73",
"y  c #6E717C",
"u  c #6F7074",
"i  c #737274",
"p  c #797675",
"a  c #7B7976",
"s  c #74747A",
"d  c #78777B",
"f  c #77787E",
"g  c #7B7A7C",
"h  c #807F7D",
"j  c #968066",
"k  c #87837B",
"l  c #948D7F",
"z  c #BCA16E",
"x  c #C7AA68",
"c  c #012E89",
"v  c #103681",
"b  c #1E4696",
"n  c #164093",
"m  c #234A99",
"M  c #294F9B",
"N  c #204797",
"B  c #2B519C",
"V  c #32559E",
"C  c #006691",
"Z  c #1C779D",
"A  c #365AA1",
"S  c #3B5DA3",
"D  c #3E60A5",
"F  c #297EA2",
"G  c #435783",
"H  c #53658B",
"J  c #5B6C91",
"K  c #48639A",
"L  c #6D7282",
"P  c #747681",
"I  c #747986",
"U  c #7D7D82",
"Y  c #757B8B",
"T  c #7A7E8C",
"R  c #707689",
"E  c #607093",
"W  c #767D91",
"Q  c #4364A5",
"!  c #4C6BA9",
"~  c #5472AC",
"^  c #5975AE",
"/  c #677FAC",
"(  c #657FB2",
")  c #807F83",
"_  c #3283A6",
"`  c #3C88A9",
"'  c #7F828A",
"]  c #7D8394",
"[  c #75819C",
"{  c #7D869D",
"}  c #438CAB",
"|  c #4E92AE",
" . c #6F84AF",
".. c #7986A1",
"X. c #7E8CA7",
"o. c #6780B4",
"O. c #6CA0B6",
"+. c #7CA7BB",
"@. c #008CC9",
"#. c #009FE3",
"$. c #0DA4E4",
"%. c #1BA8E5",
"&. c #16A7E5",
"*. c #30AFE6",
"=. c #5EB8DF",
"-. c #7ABDDC",
";. c #65B9DD",
":. c #44B3E1",
">. c #57B9E2",
",. c #828285",
"<. c #888785",
"1. c #85858A",
"2. c #88868B",
"3. c #8A8A8D",
"4. c #86888C",
"5. c #918E8B",
"6. c #93918D",
"7. c #818593",
"8. c #858A95",
"9. c #8C8D92",
"0. c #828A9B",
"q. c #888E9C",
"w. c #808699",
"e. c #908F91",
"r. c #8F9096",
"t. c #8D919B",
"y. c #919195",
"u. c #95959A",
"i. c #9C9B9C",
"p. c #9B9892",
"a. c #A19B98",
"s. c #848EA4",
"d. c #8691A5",
"f. c #8D94A4",
"g. c #8592AB",
"h. c #8C95A9",
"j. c #8A99AF",
"k. c #9196A3",
"l. c #9399A4",
"z. c #9C9DA2",
"x. c #959BA9",
"c. c #8193B7",
"v. c #8D9BB4",
"b. c #8697B9",
"n. c #8897B6",
"m. c #919DB2",
"M. c #A09EA0",
"N. c #9DA1AC",
"B. c #95A1B6",
"V. c #94A3BC",
"C. c #99A4BA",
"Z. c #93B1BF",
"A. c #A2A2A4",
"S. c #A5A6AA",
"D. c #A9A9AA",
"F. c #A8A9AA",
"G. c #B4B1AC",
"H. c #A3A6B0",
"J. c #ADADB2",
"K. c #A3AAB6",
"L. c #ABB1BC",
"P. c #B3B3B5",
"I. c #BCBCBD",
"U. c #B7B7BA",
"Y. c #C0BDB8",
"T. c #99A9C2",
"R. c #87BFD9",
"E. c #A5B1C3",
"W. c #ACB4C3",
"Q. c #ABB8CA",
"!. c #B5B9C3",
"~. c #B5BCC8",
"^. c #BDC2C7",
"/. c #B6C0C5",
"(. c #C1C2C4",
/* pixels */
"#.#.#.#.#.#.#.#.#.#.#.#.#.#.#.#.#.#.#.#.#.#.#.#.#.#.#.#.#.#.#.#.c c c c c c c c c c c c c c c c c c c c c c c c c c c c c c c c ",
"#.#.#.#.#.#.#.#.#.#.#.#.#.#.#.#.#.#.#.#.#.#.#.#.#.#.#.#.#.#.#.#.c c c c c c c c c c c c c c c c c c c c c c c c c c c c c c c c ",
"#.#.#.#.#.#.#.#.#.#.#.#.#.#.#.#.#.#.#.#.#.#.#.#.#.#.#.#.#.#.#.#.c c c c c c c c c c c c c c c c c c c c c c c c c c c c c c c c ",
"#.#.#.#.#.#.#.#.#.#.#.#.#.#.#.#.#.#.#.#.#.#.#.#.#.#.#.#.#.#.#.#.c c c c c c c c c c c c c c c c c c c c c c c c c c c c c c c c ",
"#.#.#.#.#.#.#.#.#.#.#.#.#.#.#.#.#.#.#.#.#.#.#.#.#.#.#.#.#.#.#.#.c c c c c c c c c c c c c c c c c c c c c c c c c c c c c c c c ",
"#.#.#.#.#.#.#.#.#.#.#.#.#.#.#.#.#.#.#.#.#.#.#.#.#.#.#.#.#.#.#.#.c c c c c c c c c c c c c c c c c c c c c c c c c c c c c c c c ",
"#.#.#.#.#.#.#.#.#.#.#.#.#.#.#.#.#.#.#.#.#.#.#.#.#.#.#.#.#.#.#.#.c c c c c c c c c c c c c c c c c c c c c c c c c c c c c c c c ",
"#.#.#.#.#.#.#.#.#.#.#.#.#.#.#.#.#.#.#.#.#.#.#.#.#.#.#.#.#.#.#.#.c c c c c c c c c c c c c c c c c c c c c c c c c c c c c c c c ",
"#.#.#.#.#.#.#.#.#.#.#.#.#.#.#.#.#.#.#.#.#.#.#.#.#.#.#.#.#.#.#.#.c c c c c c c c c c c c c c c c c c c c c c c c c c c c c c c c ",
"#.#.#.#.#.#.#.#.#.#.#.#.#.#.#.#.#.#.#.#.#.#.#.#.#.#.#.#.#.#.#.#.c c c c c c c c c c c c c c c c c c c c c c c c c c c c c c c c ",
"#.#.#.#.#.#.#.#.#.#.#.#.#.#.#.#.#.#.#.#.#.#.#.#.#.#.#.#.#.#.#.#.c c c c c c c c c c c c c c c c c c c c c c c c c c c c c c c c ",
"#.#.#.#.#.#.#.#.#.#.#.#.#.#.#.#.#.#.#.#.#.#.#.#.#.#.#.#.#.#.#.#.c c c c c c c c c c c c c c c c c c c c c c c c c c N M c c c c ",
"#.#.#.#.#.#.#.#.#.#.#.#.#.#.#.#.#.#.#.#.#.#.#.#.#.#.#.#.#.#.#.#.c c c c c c c c c c c c c c c c c c c c c c c c c Q Y.P.n.c c c ",
"#.#.#.#.#.#.#.#.#.#.#.#.#.#.#.#.#.#.#.#.#.#.#.#.#.#.#.#.#.#.#.#.c c c c c c c c c c c c c c c c c c c c c c c B  .p.A.S.U.M c c ",
"#.#.#.#.#.#.#.#.#.#.#.#.#.#.#.#.#.#.#.#.#.#.#.#.#.#.#.#.#.#.#.#.c c c c c c c c c c c c c c c c c c c c c c S F.z x l P.V c c c ",
"#.#.#.#.#.#.#.#.#.#.#.#.#.#.#.#.#.#.#.#.#.#.#.#.#.#.#.#.#.#.#.#.c c c c c c c c c c c c c c c c c c c c N C.3.k j h  .b c c c c ",
"#.#.#.#.#.#.#.#.#.#.#.#.#.#.#.#.#.#.#.#.#.#.#.#.#.#.#.#.#.#.#.#.c c c c c c c c c c c c c c c c c c c V I.,.,.) y.c.c c c c c c ",
"#.#.#.#.#.#.#.#.#.#.#.#.#.#.#.#.#.#.#.#.#.#.#.#.#.#.#.#.#.#.#.#.c c c c c c c c c c c c c c c c c c Q S.) ,.,.i.( c c X X c c c ",
"#.#.#.#.#.#.#.#.#.#.#.#.#.#.#.#.#.#.#.#.#.#.#.#.#.#.#.#.#.#.#.#.c c c c c c c c c c c c c c c c c n.y.,.,.3.I.V c c X     X c c ",
"#.#.#.#.#.#.#.#.#.#.#.#.#.#.#.#.#.#.#.#.#.#.#.#.#.#.#.#.#.#.#.#.c c c c c c c c c c c c c c c m ^.A.y.3.3.V.M c X X         X c ",
"#.#.#.#.#.#.#.#.#.#.#.#.#.#.#.#.#.#.#.#.#.#.#.#.#.#.#.#.#.#.#.#.c c c c c c c c c c c c c c ~ K.q.2.<.A.S c c X               X ",
"#.#.#.#.#.#.#.#.#.#.#.#.#.#.#.#.#.#.#.#.#.#.#.#.#.#.#.#.#.#.#.#.c c c c c c c c c c c c S T.x.9.,.1.I.m c X X               X c ",
"#.#.#.#.#.#.#.#.#.#.#.#.#.#.#.#.#.#.#.#.#.#.#.#.#.#.#.#.#.#.#.#.c c c c c c c c c c c ! (.t.9.,.y.c.b c X                 X c c ",
"#.#.#.#.#.#.#.#.#.#.#.#.#.#.#.#.#.#.#.#.#.#.#.#.#.#.#.#.#.#.#.#.c c c c c c c c c c o.H.q.,.U A.^ c c X               X X c c c ",
"#.#.#.#.#.#.#.#.#.#.#.#.#.#.#.#.#.#.#.#.#.#.#.#.#.#.#.#.#.#.#.#.c c c c c c c c m V.x.9.1.U U.~ c c X               X c c c c c ",
"#.#.#.#.#.#.#.#.#.#.#.#.#.#.#.#.#.#.#.#.#.#.#.#.#.#.#.#.#.#.#.#.c c c c c c c m U.r.9.) 3.b.S c X X               X c c c c c c ",
"#.#.#.#.#.#.#.#.#.#.#.#.#.#.#.#.#.#.#.#.#.#.#.#.#.#.#.#.#.#.#.#.c c c c c c m Y.i.2.) F.( c c X                 X c c c c c c c ",
"#.#.#.#.#.#.#.#.#.#.#.#.#.#.#.#.#.#.#.#.#.$.$.$.$.$.#.#.#.#.#.$.c c c c c N I.5.6.,.P.Q c X X               X X c c c c c c c c ",
"#.#.#.#.#.#.#.#.#.#.#.#.#.#.$.#.%.%.%.;.^.P.S.N.H.L.~.-.R.-.>.*.b c c c c V a w a I.S c X                 X c c c c c c c c c c ",
"#.#.#.#.#.#.#.#.#.#.#.#.#.$.%.=.F.9 3 7 e e r L ] s.v.C.x.i.i.3.i.(.A b c C.2 0 p n c X                 X c c c c c c c c c c c ",
"#.#.#.#.#.#.#.#.#.#.#.$.:.P.6.a 1 ; : 4 8 e r Y { n.V.C.x.k.y.,.s t p a.! a.1 2 z.v X               X X c c c c c c c c c c c c ",
"#.#.#.#.#.#.#.#.#.&.=.F.e.3.3.g 5 ; : 7 r y R [ X.n.Z.K.N.z.e.U p t q q q 6 1 1 K                 X c c c c c c c c c c c c c c ",
"c c c c c c c c V S.3.2.3.e.3.1.7 3 3 7 y P W ..g.T.E.E.H.i.e.,.d i t 5 q 8 5 <.Z C C C C C C C @.#.#.#.#.#.#.#.#.#.#.#.#.#.#.#.",
"c c c c c c c W.6.k ) 1.9.y.y.2.y 3 3 8 s T ] s.n.T.Q.~.K.z.e.) g i t 8 & , t k F C C C C C @.@.#.#.#.#.#.#.#.#.#.#.#.#.#.#.#.#.",
"c c c c c D L.a a g ,.9.e.y.y.r.) 9 4 t U 7.0.d.v.E.W.~.P.M.e.,.h p t 8 8 & ; 5 A.Z C C C @.#.#.#.#.#.#.#.#.#.#.#.#.#.#.#.#.#.#.",
"c c c c V I.w q p g ,.9.9.u.y.u.9.s t s U 7.] w.q.k.N.H.H.A.y.<.h a p 4 , 5 2 > 6 _ C C @.$.#.#.#.#.#.#.#.#.#.#.#.#.#.#.#.#.#.#.",
"c c c c ~ p 7 q i g 1.9.y.y.u.u.9.U y y L y R T 7.8.9.9.9.9.e.3.k g p q 5 6 , : > O.C @.#.#.#.#.#.#.#.#.#.#.#.#.#.#.#.#.#.#.#.#.",
"c c c m p.1 5 9 i g ,.3.y.y.9.,.y e r e y P Y 7.8.9.3.2.1.<.1.,.' h a i 9 6 , ; - Z.C @.#.#.#.#.#.#.#.#.#.#.#.#.#.#.#.#.#.#.#.#.",
"c c c Q 0 ; , 7 e i ' 1.4.T e r 8 e e y P I T w.8.9.9.4.2.2.<.,.g g g w 8 2 > ; ; +.@.#.#.#.#.#.#.#.#.#.#.#.#.#.#.#.#.#.#.#.#.#.",
"c c c V.; = > 5 8 i d g s 4 7 7 e t s s P I T T 8.9.9.9.4.2.1.,.g d d i 5 , ; & 5 } @.#.#.#.#.#.#.#.#.#.#.#.#.#.#.#.#.#.#.#.#.#.",
"c c c I.& & - , 7 e e 9 3 , 3 3 e s s s P P W ] 8.8.1.2.1.1.1.,.' s i s 5 : ; = u.Z @.$.#.#.#.#.#.#.#.#.#.#.#.#.#.#.#.#.#.#.#.#.",
"c c c C.& * & : 4 7 9 3 : ; 3 3 8 e s s s P Y T 1.,.U U ) 1.1.,.g d s s 5 ; = 7 O.C C @.#.#.#.#.#.#.#.#.#.#.#.#.#.#.#.#.#.#.#.#.",
"c c c ~ q O * = , 7 4 , : : : 3 7 e e e e s 7 7 d f f g U ) ,.1.I f s d 5 - , I.Z C C @.#.#.#.#.#.#.#.#.#.#.#.#.#.#.#.#.#.#.#.#.",
"c c c Q G.* $ % - 3 4 , : ; : 3 4 e e e t d P L T U U g U ) 2.1.g g g f 3 3 M._ C C C @.#.#.#.#.#.#.#.#.#.#.#.#.#.#.#.#.#.#.#.#.",
"c c c X H a O $ & ; 4 3 , , , 4 7 e y s U 4.q.0.w.] ,.' U 1.2.' ' g ' s 9 N.` C C C C @.$.#.#.#.#.#.#.#.#.#.#.#.#.#.#.#.#.#.#.#.",
"c c c X   [ a % $ & 3 5 4 4 4 5 e i g 1.9.q.s.s.0.{ 7.1.9.r.9.1.' ' ' 8.F.| C C C C C @.#.#.#.#.#.#.#.#.#.#.#.#.#.#.#.#.#.#.#.#.",
"c c c X     f.<.: % ; 7 7 5 7 9 s U 1.9.t.k.d.s.q.0.{ 9.r.r.2.4.4.f.u.u.| C C C C C C @.#.#.#.#.#.#.#.#.#.#.#.#.#.#.#.#.#.#.#.#.",
"c c c X       [ M.d t 4 9 e t s ) 4.9.u.k.h.d.s.s.d.d.q.q.q.d.{ 8.' J._ C C C C C C C @.#.#.#.#.#.#.#.#.#.#.#.#.#.#.#.#.#.#.#.#.",
"c c c X         J D.U 1.9.r.1.U 4.9.q.k.x.h.g.g.s.s.j.v.d.] s e ,.~.F C C C C C C C @.#.#.#.#.#.#.#.#.#.#.#.#.#.#.#.#.#.#.#.#.#.",
"c c c X           # J A.3 7 T k.S.P.!.!.E.C.m.s.] Y e 4 5 5 i (._ C C C C C C C C C @.#.#.#.#.#.#.#.#.#.#.#.#.#.#.#.#.#.#.#.#.#.",
"c c c X               @ J J.g 6 , > : > , > : , , , 4 i e.(.G   C C C C C C C C C @.#.#.#.#.#.#.#.#.#.#.#.#.#.#.#.#.#.#.#.#.#.#.",
"c c c c X                 . o W J.y.U t 9 9 9 t ) i.I.H o       C C C C C C C C @.#.#.#.#.#.#.#.#.#.#.#.#.#.#.#.#.#.#.#.#.#.#.#.",
"c c c c c X                     . . . . o + o . . . .           C C C C C C C @.#.#.#.#.#.#.#.#.#.#.#.#.#.#.#.#.#.#.#.#.#.#.#.#.",
"c c c c c c X                                                   C C C C C C @.#.#.#.#.#.#.#.#.#.#.#.#.#.#.#.#.#.#.#.#.#.#.#.#.#.",
"c c c c c c c X                                                 C C C C C @.#.#.#.#.#.#.#.#.#.#.#.#.#.#.#.#.#.#.#.#.#.#.#.#.#.#.",
"c c c c c c c c X                                               C C C C @.#.#.#.#.#.#.#.#.#.#.#.#.#.#.#.#.#.#.#.#.#.#.#.#.#.#.#.",
"c c c c c c c c c X                                             C C @.@.#.#.#.#.#.#.#.#.#.#.#.#.#.#.#.#.#.#.#.#.#.#.#.#.#.#.#.#.",
"c c c c c c c c c c X X                                         @.@.#.#.#.#.#.#.#.#.#.#.#.#.#.#.#.#.#.#.#.#.#.#.#.#.#.#.#.#.#.#.",
"c c c c c c c c c c c c X X                                 X X $.#.#.#.#.#.#.#.#.#.#.#.#.#.#.#.#.#.#.#.#.#.#.#.#.#.#.#.#.#.#.#.",
"c c c c c c c c c c c c c c X X X                       X X c c #.#.#.#.#.#.#.#.#.#.#.#.#.#.#.#.#.#.#.#.#.#.#.#.#.#.#.#.#.#.#.#.",
"c c c c c c c c c c c c c c c c c X X X X X X X X X X X c c c c #.#.#.#.#.#.#.#.#.#.#.#.#.#.#.#.#.#.#.#.#.#.#.#.#.#.#.#.#.#.#.#.",
"c c c c c c c c c c c c c c c c c c c c c c c c c c c c c c c c #.#.#.#.#.#.#.#.#.#.#.#.#.#.#.#.#.#.#.#.#.#.#.#.#.#.#.#.#.#.#.#.",
"c c c c c c c c c c c c c c c c c c c c c c c c c c c c c c c c #.#.#.#.#.#.#.#.#.#.#.#.#.#.#.#.#.#.#.#.#.#.#.#.#.#.#.#.#.#.#.#.",
"c c c c c c c c c c c c c c c c c c c c c c c c c c c c c c c c #.#.#.#.#.#.#.#.#.#.#.#.#.#.#.#.#.#.#.#.#.#.#.#.#.#.#.#.#.#.#.#."
};
