/* XPM */
static char *_f44794143bd4e0ae7aacf2c1e65d658nbw1OxoAxtzkZOOQ[] = {
/* columns rows colors chars-per-pixel */
"64 64 246 2 ",
"   c #381815",
".  c #07183D",
"X  c #1B1C39",
"o  c #301727",
"O  c #172B3C",
"+  c #302B2E",
"@  c #37241E",
"#  c #580708",
"$  c #560F12",
"%  c #46191A",
"&  c #5A1316",
"*  c #490A0C",
"=  c #6A0A0C",
"-  c #760909",
";  c #681518",
":  c #7A1619",
">  c #640D11",
",  c #46251B",
"<  c #51311C",
"1  c #451B2C",
"2  c #761E23",
"3  c #4B2823",
"4  c #542929",
"5  c #5D332B",
"6  c #582937",
"7  c #4D3332",
"8  c #682226",
"9  c #79252A",
"0  c #63362D",
"q  c #792D34",
"w  c #663C34",
"e  c #733439",
"r  c #6F3E17",
"t  c #69413A",
"y  c #70473B",
"u  c #614B19",
"i  c #001642",
"p  c #031B4A",
"a  c #011E5A",
"s  c #182349",
"d  c #0F2752",
"f  c #25294E",
"g  c #252B50",
"h  c #332F4C",
"j  c #022367",
"k  c #012773",
"l  c #012A7D",
"z  c #062B78",
"x  c #162E77",
"c  c #3A3C79",
"v  c #583542",
"b  c #452F40",
"n  c #733D54",
"m  c #643347",
"M  c #0A435B",
"N  c #014C6D",
"B  c #0A4865",
"V  c #154A67",
"C  c #005275",
"Z  c #005579",
"A  c #175371",
"S  c #33536D",
"D  c #394954",
"F  c #6A4845",
"G  c #764A47",
"H  c #79455A",
"J  c #7B575A",
"K  c #7D544D",
"L  c #73536D",
"P  c #585663",
"I  c #8A0A09",
"U  c #950A08",
"Y  c #97110F",
"T  c #8D1213",
"R  c #85181A",
"E  c #961717",
"W  c #830E10",
"Q  c #A20E09",
"!  c #A5120E",
"~  c #AB120E",
"^  c #A81716",
"/  c #B31412",
"(  c #BB1C13",
")  c #B61B17",
"_  c #A30F11",
"`  c #BB241C",
"'  c #BD2014",
"]  c #A52214",
"[  c #861E24",
"{  c #971E24",
"}  c #88252A",
"|  c #982527",
" . c #892E34",
".. c #952D34",
"X. c #8C353C",
"o. c #98363B",
"O. c #9E3A2D",
"+. c #A62427",
"@. c #BD2B24",
"#. c #B62627",
"$. c #BA342B",
"%. c #A72D33",
"&. c #AA3638",
"*. c #B93938",
"=. c #AE2F31",
"-. c #9A211D",
";. c #C0352E",
":. c #C13B37",
">. c #AC5436",
",. c #D17432",
"<. c #C4433B",
"1. c #8E3B42",
"2. c #963D44",
"3. c #A53E41",
"4. c #BA3E43",
"5. c #98444C",
"6. c #875B59",
"7. c #8E4F53",
"8. c #A9464A",
"9. c #B84649",
"0. c #AA4D53",
"q. c #B34B55",
"w. c #AA5559",
"e. c #B7565B",
"r. c #BE514D",
"t. c #976350",
"y. c #864C66",
"u. c #89566B",
"i. c #965967",
"p. c #8E5B73",
"a. c #985B74",
"s. c #B45C61",
"d. c #BA5B65",
"f. c #A45674",
"g. c #966965",
"h. c #9A657D",
"j. c #916E6B",
"k. c #BA6469",
"l. c #A76878",
"z. c #BC6B75",
"x. c #BC7679",
"c. c #AA6E71",
"v. c #A46E4B",
"b. c #C44946",
"n. c #C34442",
"m. c #C75858",
"M. c #CA564F",
"N. c #D06F59",
"B. c #C65F67",
"V. c #C76768",
"C. c #C56C74",
"Z. c #C4757C",
"A. c #CA7679",
"S. c #D27877",
"D. c #CB706D",
"F. c #D18E50",
"G. c #D8A37D",
"H. c #012D84",
"J. c #012E89",
"K. c #0B2F82",
"L. c #0B3389",
"P. c #173B8B",
"I. c #2A3B84",
"U. c #2E4891",
"Y. c #03628B",
"T. c #006A97",
"R. c #327997",
"E. c #0073A4",
"W. c #007FB5",
"Q. c #005D84",
"!. c #5E659A",
"~. c #957389",
"^. c #A66A85",
"/. c #A7748C",
"(. c #B77C86",
"). c #B17792",
"_. c #C87C85",
"`. c #D17E84",
"'. c #0982B7",
"]. c #3587B0",
"[. c #4682A3",
"{. c #008BC7",
"}. c #0095D5",
"|. c #019ADB",
" X c #0A9BDB",
".X c #0F92C9",
"XX c #009FE3",
"oX c #04A0E2",
"OX c #2CA4D5",
"+X c #7DBEE1",
"@X c #60B4DE",
"#X c #B88699",
"$X c #B29094",
"%X c #BC93A5",
"&X c #A592A7",
"*X c #98A0A6",
"=X c #CD848C",
"-X c #CB8788",
";X c #D48688",
":X c #CB8C96",
">X c #D48C92",
",X c #DA9496",
"<X c #DA999C",
"1X c #D69698",
"2X c #D2988D",
"3X c #C697A8",
"4X c #DC9CA1",
"5X c #D69BAA",
"6X c #CB9CB4",
"7X c #C893AB",
"8X c #DDA1A4",
"9X c #DBA6A9",
"0X c #CCA8B8",
"qX c #D7AAB9",
"wX c #CAB2B2",
"eX c #E0A7A9",
"rX c #E2AEB3",
"tX c #E3B2B6",
"yX c #E5B6BB",
"uX c #E6BABB",
"iX c #E1A39A",
"pX c #ECD0A8",
"aX c #D4C2BD",
"sX c #D5AEC1",
"dX c #D8B5C5",
"fX c #D4BBC9",
"gX c #E4BEC3",
"hX c #E4BDC8",
"jX c #AECCD6",
"kX c #D7CFD3",
"lX c #EACACC",
"zX c #E8C4C6",
"xX c #E4C8D6",
"cX c #EDD2D4",
"vX c #E9D6DB",
"bX c #F1D8DC",
"nX c #ECDCCA",
"mX c #DFE0DD",
"MX c #EBD7E2",
"NX c #F1DEE9",
"BX c #F3E1E3",
"VX c #F4E4E9",
"CX c #F6EBED",
"ZX c #F6ECF1",
"AX c #F7F1F5",
"SX c #E4E3E4",
/* pixels */
"XXXXXXXXXXXXXXXXXXXXXXXXXXXXXXXXXXXXXXXXXXXXoXoXoXoXoXoXoXoXoXoXH.J.J.J.J.J.J.J.J.J.J.J.J.J.J.J.J.J.J.J.J.J.J.J.J.J.J.J.J.J.J.J.",
"XXXXXXXXXXXXXXXXXXXXXXXXXXXXXXXXXXXXXXXXXXXXoX|.oXoX|.{.{.'.{.oXJ.J.J.J.l l k k k l H.J.J.J.J.J.J.J.J.J.J.J.J.J.J.J.J.J.J.J.J.J.",
"XXXXXXXXXXXXXXXXXXXXXXXXXXXXXXXXXXXXXXXXXXXXXX}.'.'.Y.M N N C E.l K.x x d s O . i i j H.J.J.J.J.J.J.J.J.J.J.J.J.J.J.J.J.J.J.J.J.",
"XXXXXXXXXXXXXXXXXXXXXXXXXXXXXXXXXXoXXXXXXXXXoX].u < 7 7 O M N Z a j + < @ @ < + . i i j J.J.J.J.J.J.J.J.J.J.J.J.J.J.J.J.J.J.J.J.",
"XXXXXXXXXXXXXXXXXXXXXXXXXXXXXXXXXXXXXXXXoXoX.Xu t.wXaX2XF O M N . + 3 t.rXwX6.< o . . j H.J.J.J.J.J.J.J.J.J.J.J.J.J.J.J.J.J.J.J.",
"XXXXXXXXXXXXXXXXXXXXXXXXXXXXXXXXXXXXXXXXoXoX.Xy mXmXkXSXwX+ d N 7 r i.mXmXSXmXG X . i j H.J.J.J.J.J.J.J.J.J.J.J.J.J.J.J.J.J.J.J.",
"XXXXXXXXXXXXXXXXXXXXXXXXXXXXXXXXXXXXXXXXoXoX.X6.mX$XD $XwXK D S y t.$XwXP *XmXj.X . p l J.J.J.J.J.J.J.J.J.J.J.J.J.J.J.J.J.J.J.J.",
"XXXXXXXXXXXXXXXXXXXXXXXXXXXXXXXXXXXXXXXXXXoX.Xv.kX$X6.c.w.5.c.G.2X2X:Xc.7 J wXj.X i k J.J.J.J.J.J.J.J.J.J.J.J.J.J.J.J.J.J.J.J.J.",
"XXXXXXXXXXXXXXXXXXXXXXXXXXXXXXXXoXoXoXXXoX].[.G.rXeX5XB.=.=.=.0.G.:Xd.5.1.1.^.g p i a k k H.H.J.J.J.J.J.J.J.J.J.J.J.J.J.J.J.J.J.",
"XXXXXXXXXXXXXXXXXXXXXXXXXXXXXXXXoXoXXXOXR.*.;XlXrXeXB.%.+.#.+.%.w.x.q...{ } 3.m h h s i i a l J.J.J.J.J.J.J.J.J.J.J.J.J.J.J.J.J.",
"XXXXXXXXXXXXXXXXXXXXXXXXXXXXXXXXoXoXoXiXr.V.aXtXrXC.#.+.#.#.=.V.rXgX,X9.{ { [ ..w.q.m . . . a l J.J.J.J.J.J.J.J.J.J.J.J.J.J.J.J.",
"XXXXXXXXXXXXXXXXXXXXXXXXXXXXXXXXoXoXoXvXCXzXuX2X>XB.4.4.#.#.m.eXhXgX<Xm.#.{ [ [ 8.C.e.o . i . j H.J.J.J.J.J.J.J.J.J.J.J.J.J.J.J.",
"XXXXXXXXXXXXXXXXXXXXXXXXXXXXXXXXXXXXXXMXxXZXZXvXrXgX8X`.m.4._.4X<X;XB.:.#.#.%.4.d.z.C.5.o i i a H.J.J.J.J.J.J.J.J.H.J.J.J.J.J.J.",
"XXXXXXXXXXXXXXXXXXXXXXXXXXXXXXXXXXXXXXMX7XfXfXNXZXAXZXVXyXZ.d.9.n.:.#.#.^ 4.`.5X5X:X:X:XL s . a l J.J.J.J.J.J.J.J.J.J.J.J.J.J.J.",
"XXXXXXXXXXXXXXXXXXXXXXXXXXXXXXXXXXXXXXvX%X~.p./.sXMXAXZXZX6X3.^ / / ) _ { B.qXhXhXxXxXhX&Xg p a H.J.J.J.J.J.J.J.J.J.J.J.J.J.J.J.",
"XXXXXXXXXXXXXXXXXXXXXXXXXXXXXXXXXXXXXXjXxX^.H v p.7XxXVXZXhXd.E _ / _ { q.5XhXsX6XqX7X7X~.p a k H.J.J.J.J.J.J.J.J.J.J.J.J.J.J.J.",
"XXXXXXXXXXXXXXXXXXXXXXXXXXXXXXXXXXXXXXOXVXdX).u.H n H ^.7XxX7Xe.4.4.q.z.3X7X/.^.^./.).~.c i j H.J.J.J.J.J.J.J.J.J.J.J.J.J.J.J.J.",
"XXXXXXXXXXXXXXXXXXXXXXXXXXXXXXXXXXXXXXoXnXMXsX#Xp.m 1 o 1 L ^.^.a.a.h.^.a.a.a.y.H L ~.L p j H.J.J.J.J.J.J.J.J.J.J.J.J.J.J.J.J.J.",
"XXXXXXXXXXXXXXXXXXXXXXXXXXXXXXXXXXXXXXoXpXvXsX/.a.y.m v 1 1 m 6 m n y.i.p.p.H n H h.!.f . k J.J.J.J.J.J.J.J.J.J.J.J.J.J.J.J.J.J.",
"XXXXXXXXXXXXXXXXXXXXXXXXXXXXXXXXXXXXXXXX*XxXxX&X).^.^.a.a.a.p.p.^./.^.a.y.n y.~./.$Xh i i k J.J.J.J.J.J.J.J.J.J.J.J.J.J.J.J.J.J.",
"XXXXXXXXXXXXXXXXXXXXXXXXXXXXXXXXXXXXXXXXOX8.9XkXxXfX6X6X6X7X).h.^.^.^.f.a./.7XsX#X1.X i i k J.J.J.J.J.J.J.J.J.J.J.J.J.J.J.J.J.J.",
"XXXXXXXXXXXXXXXXXXXXXXXXXXXXXXXXXXXXXXXXoXW ..zXNXMXhXsX6X7X).f.f.^.).).%X0XsX#Xq $ + p i a H.J.J.J.J.J.J.J.J.J.J.J.J.J.J.J.J.J.",
"XXXXXXXXXXXXXXXXXXXXXXXXXXXXXXXXXXXXXXXX XT - ..dXMXxXMXxXxXhX6X6X`.sXhXsX0X#Xe &  .y.s i p H.J.J.J.J.J.J.J.J.J.J.J.J.J.J.J.J.J.",
"XXXXXXXXXXXXXXXXXXXXXXXXXXXXXXXXXXXXXX|. X*.I # } 5XxXMXNXNXNXcXhXsXqXsX3X).w.9 2.C.).g i i k J.J.J.J.J.J.J.J.J.J.J.J.J.J.J.J.J.",
"XXXXXXXXXXXXXXXXXXXXXXXXXXXXXXXXXXXXXXXX@X`./ = $ q w.3XwXxXxXxXsX7X).i.8 q ; 1._.s._.f i i k J.J.J.J.J.J.J.J.J.J.J.J.J.J.J.J.J.",
"XXXXXXXXXXXXXXXXXXXXXXXXXXXXXXXXXXXXXXoXF.N.V.1Xz.X.5.c.} ; > : 2.y.8 * $ $ ; d._.3.z.f i i H.J.J.J.J.J.J.J.J.J.J.J.J.J.J.J.J.J.",
"XXXXXXXXXXXXXXXXXXXXXXXXXXXXXXXXXXXXXXoXF.@.m.bX<XC.Z.V.W - - = R  .& * & > 2._.q.%.[ s i p H.J.J.J.J.J.J.J.J.J.J.J.J.J.J.J.J.J.",
"XXXXXXXXXXXXXXXXXXXXXXXXXXXXXXXXXXXXXXoX.X*.#.1X5XC.d.e.%.Y E { 3.1.2.2.[ [ k.4X`.`._.f i i H.H.J.J.J.J.J.J.J.J.J.J.J.J.J.J.J.J.",
"XXXXXXXXXXXXXXXXXXXXXXXXXXXXXXXXXXXXXXXX XS.+.*.5XZ.q.8.X...w.z._.s. .[ R 2.8.`.4X4X=Xg i i l J.J.J.J.J.J.J.J.J.J.J.J.J.J.J.J.J.",
"XXXXXXXXXXXXXXXXXXXXXXXXXXXXXXXXXXXXXXXX+XuXC.#.>X9XV.| - T 4._.`.^.0.2.2.} { _.eX=X_.g i i l J.J.J.J.J.J.J.J.J.J.J.J.J.J.J.J.J.",
"XXXXXXXXXXXXXXXXXXXXXXXXXXXXXXXXXXXXXXoX,./ / ) b.A.9.) / ~ ^ V.gXrX_.1.> = R 1.8 .._.g i i l J.J.J.J.J.J.J.J.J.J.J.J.J.J.J.J.J.",
"XXXXXXXXXXXXXXXXXXXXXXXXXXXXXXXXXXXXXX|.,.^ I = T o.[ W _ / ) 4.=X(.} = - = ....2 | z.g i p H.J.J.J.J.J.J.J.J.J.J.J.J.J.J.J.J.J.",
"J.J.J.J.J.J.J.J.J.J.J.J.J.J.J.J.J.J.J.J.P ` @.A.:Xk.W = = : [ } X.X. .9 ; 8 1.2.s.C.i.V N Y.}.XXXXXXXXXXXXXXXXXXXXXXXXXXXXXXXXXX",
"J.J.J.J.J.J.J.J.J.J.J.J.J.J.J.J.J.J.J.J.c D.D.AXAXbXD.+.o.(.f.w.5.q & 3 3 3 4 i.=X,Xp.V N T.}.XXXXXXXXXXXXXXXXXXXXXXXXXXXXXXXXXX",
"J.J.J.J.J.J.J.J.J.J.J.J.J.J.J.J.J.J.J.J.P.uXeXAXAXCXhXS.;XaX,XV.B.1.4 3 4 < 0 0 6.0.G V N Y.}.XXXXXXXXXXXXXXXXXXXXXXXXXXXXXXXXXX",
"J.J.J.J.J.J.J.J.J.J.J.J.J.J.J.J.J.J.H.H.P.2Xm.BXZXnXD.( ;.G.9X9X(.G 0 0 0 0 w w w 2 4 B N Y.}.XXXXXXXXXXXXXXXXXXXXXXXXXXXXXXXXXX",
"J.J.J.J.J.J.J.J.J.J.J.J.J.J.J.J.J.J.J.J.P.F.` ,XcXiX;.( ( ^ &.s.e , t G w y y G K w 4 B N T.}.XXXXXXXXXXXXXXXXXXXXXXXXXXXXXXXXXX",
"J.J.J.J.J.J.J.J.J.J.J.J.J.J.J.J.J.J.J.J.x ,.( ;.S.m.( ( ) Y -.X.0 @ t G 7.g.g.g.g.w 7 z N E.XXXXXXXXXXXXXXXXXXXXXXXXXXXXXXXXXXXX",
"J.J.J.J.J.J.J.J.J.J.J.J.J.J.J.J.J.J.J.J.K.v.` ` n.N.' ( / E 9.S.7.% w F G K G t 5 w h B N {.XXXXXXXXXXXXXXXXXXXXXXXXXXXXXXXXXXXX",
"J.J.J.J.J.J.J.J.J.J.J.J.J.J.J.J.J.J.J.J.H.c <.@.1X9X$.) +.0.>XeXf.6 3 5 ,     , 3 6.S B N {.XXXXXXXXXXXXXXXXXXXXXXXXXXXXXXXXXXXX",
"J.J.J.J.J.J.J.J.J.J.J.J.J.J.J.J.J.J.J.J.J.P.2Xm.BXlXD.=.e.lXcXyX,Xg.6           F -XS N N {.XXXXXXXXXXXXXXXXXXXXXXXXXXXXXXXXXXXX",
"J.J.J.J.J.J.J.J.J.J.J.J.J.J.J.J.J.J.J.J.J.P.aXrXCXbXiXB.;XbXbXhXtX,X0.2 * 4 w J (.,XS N N {.XXXXXXXXXXXXXXXXXXXXXXXXXXXXXXXXXXXX",
"J.J.J.J.J.J.J.J.J.J.J.J.J.J.J.J.J.J.J.J.J.P.*XzXBXuXm.$.9.,XaXhXuX`.4.^ T O.x.qX9XZ.S C N E.|.XXXXXXXXXXXXXXXXXXXXXXXXXXXXXXXXXX",
"J.J.J.J.J.J.J.J.J.J.J.J.J.J.J.J.J.J.J.J.J.P.!.1XbXS.;.~ ) *.G.hXeXb.) ^ ! / 9.8X8X3.v N N N E.XXXXXXXXXXXXXXXXXXXXXXXXXXXXXXXXXX",
"J.J.J.J.J.J.J.J.J.J.J.J.J.J.J.J.J.J.J.J.J.L.!.r.,X:.( ) ) ( :.A.V.` ( / / ~ _ e.e.-.W b N N Z }.XXXXXXXXXXXXXXXXXXXXXXXXXXXXXXXX",
"J.J.J.J.J.J.J.J.J.J.J.J.J.J.J.J.J.J.J.J.J.J.I.#.N.` ( ( ( ( <.-XS.;./ / ! _ &.C.0.R : [ V N N W.XXXXXXXXXXXXXXXXXXXXXXXXXXXXXXXX",
"J.J.J.J.J.J.J.J.J.J.J.J.J.J.J.J.J.J.J.J.J.J.I.n.,Xb.' ( ' b.,XcXaXV.` ! E 3.A.9X;X8.o.q.P C N Y.|.XXXXXXXXXXXXXXXXXXXXXXXXXXXXXX",
"J.J.J.J.J.J.J.J.J.J.J.J.J.J.J.J.J.J.J.J.J.J.I.;XbXeXM.@.b.9XcXBXcX4Xm.=.e.<X4XA.A.V.q._.~.A N C }.XXXXXXXXXXXXXXXXXXXXXXXXXXXXXX",
"J.J.J.J.J.J.J.J.J.J.J.J.J.J.J.J.J.J.J.J.J.J.I.hXCXBXrXV.,XBXBXbXcXuX;Xm.-XlX4X0.q.e.B.>X2XA N N }.XXXXXXXXXXXXXXXXXXXXXXXXXXXXXX",
"J.J.J.J.J.J.J.J.J.J.J.J.J.J.J.J.J.J.J.J.J.J.U.lXVXBXeXM.>XBXbXbXcX9Xm.$.:.V.S.k.X.3.Z.>X<XA N N E.|.XXXXXXXXXXXXXXXXXXXXXXXXXXXX",
"J.J.J.J.J.J.J.J.J.J.J.J.J.J.J.J.J.J.J.J.J.J.I.,XBXtX<.` *.D.<XuX4Xm.` ~ ~ ^ +.&.{ | %.3.z.F N N C |.XXXXXXXXXXXXXXXXXXXXXXXXXXXX",
"J.J.J.J.J.J.J.J.J.J.J.J.J.J.J.J.J.J.J.J.J.J.I.m.lXV.' ( / -.&.e.e.| Y Y T T I T 8.d.q...| O.B N N |.XXXXXXXXXXXXXXXXXXXXXXXXXXXX",
"J.J.J.J.J.J.J.J.J.J.J.J.J.J.J.J.J.J.J.J.J.J.I.#.N.;.( / ~ _ | k.-Xe.3.R W W R 8.A.S.A.C.| -.B N N Q.XXXXXXXXXXXXXXXXXXXXXXXXXXXX",
"J.J.J.J.J.J.J.J.J.J.J.J.J.J.J.J.J.J.J.J.J.J.x $.,X:./ ~ Q Y w.8X8XqX<Xk.{ [ w.A.`.4XeX8Xe.E v.N N N |.XXXXXXXXXXXXXXXXXXXXXXXXXX",
"J.J.J.J.J.J.J.J.J.J.J.J.J.J.J.J.J.J.J.J.J.J.x G.hXrXV.#._ o.<XzXyXyXeX,Xm.9.`.eXyXhXlXrXe.T >.V N N |.XXXXXXXXXXXXXXXXXXXXXXXXXX",
"J.J.J.J.J.J.J.J.J.J.J.J.J.J.J.J.J.J.J.J.J.J.P.pXBXbXlXeXD.:XuX9XeXyXzX;X4.` n.,XcXbXbX4X+.I -.N N N Z XXXXXXXXXXXXXXXXXXXXXXXXXX",
"J.J.J.J.J.J.J.J.J.J.J.J.J.J.J.J.J.J.J.J.J.J.P.kXBXBXcXiXb.m.<XtXzXlXeXm.` ( ( ;.G.hXxXV.) T T w.N N N |.XXXXXXXXXXXXXXXXXXXXXXXX",
"J.J.J.J.J.J.J.J.J.J.J.J.J.J.J.J.J.J.J.J.J.J.J.U.cXcX,X*.( ( :.;XlXuXD.;.' ( ( ( ' 9.C.@./ U | 8.N N N C XXXXXXXXXXXXXXXXXXXXXXXX",
"J.J.J.J.J.J.J.J.J.J.J.J.J.J.J.J.J.J.J.J.J.J.x $.D.<X#.! ! Q Q Q =.9.^ Y Q U U U U I 0.| U - - - 5.C C E.XXXXXXXXXXXXXXXXXXXXXXXX",
"J.J.J.J.J.J.J.J.J.J.J.J.J.J.J.J.J.J.J.J.J.J.K.] Y E U I U U U I Y 8.| U U I I I = &.2XA.} # # % '.oXXXXXXXXXXXXXXXXXXXXXXXXXXXXX",
"J.J.J.J.J.J.J.J.J.J.J.J.J.J.J.J.J.J.J.J.J.J.K.J.J.J.J.J.J.J.J.J.XXXXXXXX|.XXXXXXXXXXXXXXXXXXXXXX XoXoXXXXXXXXXXXXXXXXXXXXXXXXXXX",
"J.J.J.J.J.J.J.J.J.J.J.J.J.J.J.J.J.J.J.J.J.J.J.J.J.J.J.J.J.J.J.J.XXXXXXXX|.XXXXXXXXXXXXXXXXXXXXXXoXoXXXXXXXXXXXXXXXXXXXXXXXXXXXXX",
"J.J.J.J.J.J.J.J.J.J.J.J.J.J.J.J.J.J.J.J.J.J.J.J.J.J.J.J.J.J.J.J.XXXXXXXXXXXXXXXXXXXXXXXXXXXXXXXXXXXXXXXXXXXXXXXXXXXXXXXXXXXXXXXX",
"J.J.J.J.J.J.J.J.J.J.J.J.J.J.J.J.J.J.J.J.J.J.J.J.J.J.J.J.J.J.J.J.XXXXXXXXXXXXXXXXXXXXXXXXXXXXXXXXXXXXXXXXXXXXXXXXXXXXXXXXXXXXXXXX"
};
