/* XPM */
static char *_6b2c2758e8240f0b7b513463802df21v3P3d7hN7nYrYc9C[] = {
/* columns rows colors chars-per-pixel */
"64 64 180 2 ",
"   c #1E3D74",
".  c #1D3F78",
"X  c #22376F",
"o  c #21386F",
"O  c #223770",
"+  c #203971",
"@  c #1D4077",
"#  c #1C437A",
"$  c #1B487F",
"%  c #20427A",
"&  c #E11C1D",
"*  c #E11F20",
"=  c #DF2A29",
"-  c #E12323",
";  c #E12827",
":  c #E12C2A",
">  c #E3312F",
",  c #E23231",
"<  c #E33C3B",
"1  c #E23B37",
"2  c #E4413E",
"3  c #E54543",
"4  c #E64C4B",
"5  c #E6504D",
"6  c #E75451",
"7  c #E75D5A",
"8  c #E8625F",
"9  c #E86562",
"0  c #E96965",
"q  c #E96A69",
"w  c #EB7471",
"e  c #EC7976",
"r  c #EB7E7B",
"t  c #EB837D",
"y  c #1C4780",
"u  c #164E85",
"i  c #1A4B83",
"p  c #184F88",
"a  c #1C5087",
"s  c #16538B",
"d  c #19538B",
"f  c #1A598E",
"g  c #1C5D93",
"h  c #165D95",
"j  c #245D93",
"k  c #14649C",
"l  c #1B649B",
"z  c #16699F",
"x  c #1C699F",
"c  c #2D689B",
"v  c #0F6FA9",
"b  c #0E6FA7",
"n  c #146CA4",
"m  c #1A6BA1",
"M  c #1467A0",
"N  c #0F72AB",
"B  c #1373AB",
"V  c #1A75AB",
"C  c #1979AE",
"Z  c #0D7EB8",
"A  c #1376B3",
"S  c #147AB5",
"D  c #187AB3",
"F  c #256FA4",
"G  c #2776AA",
"H  c #227BB1",
"J  c #747B9E",
"K  c #0D83BC",
"L  c #1384BC",
"P  c #1D84B9",
"I  c #2585BA",
"U  c #7E85A6",
"Y  c #078BC6",
"T  c #0B8BC5",
"R  c #0B8EC9",
"E  c #0986C1",
"W  c #148EC5",
"Q  c #1B8CC3",
"!  c #118FC9",
"~  c #0493CF",
"^  c #0D91CA",
"/  c #1494CB",
"(  c #1A94CB",
")  c #1C94C9",
"_  c #0596D1",
"`  c #0996D1",
"'  c #0699D3",
"]  c #0B9BD4",
"[  c #0597D9",
"{  c #0599DB",
"}  c #0B9DDA",
"|  c #139DD5",
" . c #1A9ED5",
".. c #129ED8",
"X. c #1796D1",
"o. c #248EC5",
"O. c #2293C9",
"+. c #2794C8",
"@. c #219DD5",
"#. c #0DA1DC",
"$. c #0FA0D7",
"%. c #15A0D6",
"&. c #1BA1D6",
"*. c #13A1D9",
"=. c #1CA3D9",
"-. c #21A2D7",
";. c #22A4D9",
":. c #2CA6D8",
">. c #35A6D7",
",. c #059EE1",
"<. c #0A9FE1",
"1. c #05A1E2",
"2. c #0AA2E4",
"3. c #18A7E3",
"4. c #22ABE5",
"5. c #6BC6ED",
"6. c #64C3EC",
"7. c #979CB7",
"8. c #8A90AE",
"9. c #9CA1BB",
"0. c #A1A6BE",
"q. c #A4A8BF",
"w. c #EC8683",
"e. c #ED8985",
"r. c #EE8E8A",
"t. c #F0988F",
"y. c #EE9592",
"u. c #EE9B9A",
"i. c #EF9A96",
"p. c #F09D99",
"a. c #F1A09C",
"s. c #F1A6A3",
"d. c #F1A9A5",
"f. c #F2AFAA",
"g. c #F3B1AC",
"h. c #F2B6B2",
"j. c #F3B9B6",
"k. c #F5C1BE",
"l. c #A9ADC4",
"z. c #A5A9C1",
"x. c #ABB1C6",
"c. c #B6BACC",
"v. c #B5BACC",
"b. c #BCBED1",
"n. c #BDC1D1",
"m. c #BBE7F7",
"M. c #C2C4D4",
"N. c #CBCEDB",
"B. c #C7C9D8",
"V. c #CED1DD",
"C. c #D2D4DF",
"Z. c #F5C5C4",
"A. c #F6CCCB",
"S. c #F6CAC6",
"D. c #F7D1CE",
"F. c #F9D6D4",
"G. c #F8D9D7",
"H. c #F9DDDB",
"J. c #F6D6D2",
"K. c #FAE1DE",
"L. c #DBDCE5",
"P. c #D3D5E1",
"I. c #CBEDF9",
"U. c #D0EFFA",
"Y. c #DEE1E9",
"T. c #E2E4EB",
"R. c #E9EBEF",
"E. c #F9E3E1",
"W. c #FBEEEC",
"Q. c #FBE8E6",
"!. c #FBF1EF",
"~. c #EBECF1",
"^. c #E5F5FB",
"/. c #EEF0F4",
"(. c #F3F4F6",
"). c #FCF5F3",
"_. c #FDF8F7",
"`. c #F6F6F8",
"'. c #F5FBFD",
"]. c #FFFFFF",
/* pixels */
"$ i y i $ I / / ( / ) ^ ^ ^ / O.i # a # $ $ # $ $ # l Y R ^ T ^ R ^ ! Y T d $ $ $ % % # % $ $ i ! Y / R R R R ^ ^ T B % $ % i i ",
"  # @   @ Q | | =.] %.] ] ] ] / # @ + + + +   + @ + k ' ~ ] ] ] ] ] ] ] _ u + O + X O X + + + i ] ] ] ] ` ] ' ] ] ] n   O +   % ",
"@     # @ o.%.;.=.=.=.] %.] ;.( $   # @ @ @   + + o l ~ ] ] ' ~ ] ] ] ] ' a O + + + + O O + + y | _ ] ] _ ] _ ] ] ] C     @ # @ ",
"+ # + # + +.%.| =.| ;.| %.~  . .# @ # +   +   + @ o l ~ ' %.] ' ] | ] ~ _ u + + O + + + X + + i | _ %.] _ ` ] ] ] ] B       #   ",
"+ $   @ # +.&.=.| %.%.' ] ] X.>.# + @ + + + + @ % + h ~ ' ' ' ' ` ] _ ` _ i O + + + O O + + + y ~ ' ] ' _ _ ] ] *.] n + +       ",
"  $       ) ] ] ] ] %.] ' _ ] ^   @ + o + + @ +   + k ~ ' ] ] $.~ ] ] ] _ u +     O O + o + + y ~ | ] ` _ _ _ ] ' %.B + + +     ",
"  @ #     W X.] -.%.] ] ' ] ] ^ @ +     + @ + + + + k ] ' ] ] ] ` ` ] ] _ p + + + + O X +   + $ ] ] ] ] ] ] ' ' ] ' B   +     + ",
"  #       o.| ] %.] | ] | ' ] ^ # @ + + o + @ o @ + k ] ~ | | ] ] ] ` ] _ p + O + X + X + + + $ ] ` | ] ] ' ' ] ] ] n   O       ",
"@ # # @   W | %.&.] %.%.| | ] / i # @ + o   @ +   + k _ _ | _ ' ..` ` ` _ s X   X X   X X + + i ] ' ] ' ~ ' #.' ] ' n   o @   # ",
"# @ @ @ @ Q %.:.:.;.=.] | %.%.) #   @     @ + o + X h ] _ ] _ _ ] ] ] _ ] a o   X o X     o   $ ] _ ] ] ' ' ~ ' ' ] B     @ @   ",
"i a u s u P / O./ / / T / / O.W a i i i a i a a i $ l T T ^ T Y R / T T ^ h $ i $ i i $ $ i i s T K Y R Y W K K / / C u a i a u ",
"%.X.&.] ] @ @ $ $ # # # i $ # f | X.] %.>.&.X.~ X.] z     #     # + + +   W ` _ ~ ~ ] X.~ ~ ~ K # @   # @   @ # + @ C >.-.] X.| ",
"' ] :.] |   # @ @ o   @ # @ + d  .&.=.| $.%.| _ %.' z       X     X   X   T ] ` ~ ] ] _ ` ' ~ K o   o   +   + + + + H ] %.&.;.| ",
"] | &.] %.@ +       #   + % o f &.-.] | ] ] ] *.' $.k   +     X     o X + T ] | ' $.' _ _ _ ~ Q + + @ o o @ @ + @ @ A ] ] ] &. .",
"| &.&.| | @     @   @ @ @ @ % a | | | ] ' ] %.%.$.] F +       O @   X X + E _ | ] ] ' ~ _ _ ' W + o @   + + #     # N ' ] ' %.| ",
"~ ' | ] ] @   @ .   @ @ @ $   s ] ] &.| ] ' | _ ] %.n + O           X X   Y ] ] ] ] ] ' ~ _ _ K o @   o + + @   + + b ] | ' &.] ",
"] ] ] ] &.# @       @ @ @ #   f | %.| ]  .| ] ] | ] M X   o     + + + O   T ] ` | _ ' _ _ _ ' E   @ o   X +         C *.] ] %.&.",
"| ] X.| | $ @ @   @ # . $ @ . s | ]  .] ] *.=.' ' ` m   o       + + + + + T | ~ _ _ ' _ ~ ] ' K       o       X o   B *.] &.] | ",
"] &.] | %..       . + o @ .   s &.|  .] =.=.] ] ' ' G   X +     + + + + + T ] ] _ ` _ _ ' | ] K   + + X O @ # +     C ;.] -.] =.",
"] ] ] =.=.u i i $ a u i i $ u f &.*. .] ] =.] ] ' ' G @ # # # y $ u $ u i Y ] %.] _ _ ' ] ] X.W $ $ # # # y y # @ # H *.] *.X.-.",
"} 1.3.4.4.4.4.4.4.4.4.4.4.4.4.4.4.4.4.4.4.4.4.4.4.4.4.4.4.4.4.4.4.4.4.4.4.4.4.4.4.4.4.3.4.4.4.4.4.4.4.4.4.4.4.4.4.4.4.4.4.2.#.;.",
"B } m.^.^.^.^.^.^.^.^.^.^.^.^.^.^.^.^.^.^.^.^.^.^.^.^.^.^.^.^.^.^.^.^.^.^.^.^.^.^.^.^.^.^.^.^.^.^.^.^.^.^.^.^.^.^.^.^.^.^.6.T B ",
"$ [ U.].].].].].].].].].].].].].].].].].].].].].].].].].].].].].].].].].].].].].].].].].].].].].].].].].].].].].].].].].].5.A + ",
"% [ U.].].].].].].].].].].].].].].`.].(.T.V.V.M.b.M.v.v.L.l.N.].7.~.0.L.v.c.B.M.'.L.R.].`.'.].].].].].].].].].].].].].].].5.A # ",
"% [ U.].].].].].].].].].].].].].~.7.R.J l.8.0.7.9.n.7.P.b.B.N.].M.T.c.B.9.b.v.8.T.l.8.n.M.7.L.].].].].].].].].].].].].].].5.A $ ",
"$ [ U.].].].].].].].].].].].].].'.V.~.Y.T.T.'._.].].~.].].].].].].].].].].].].'.'.~.T.C.C.b.~.].].].].].].].].].].].].].].5.A @ ",
"# [ U.].].].].].].].].].].].].].].].].].].].].].].].].].].].].].].].].].].].].].].].].].].].].].].].].].].].].].].].].].].5.S $ ",
"$ [ U.].]._.h.f.W.].].k.g.H.].E.f.k.].).d.r.f.K.f.f.f.f.g.J.g.g.).].A.g.D.].].W.d.r a.).f.f.g.A._.].].j.g.W.].D.f.S.].].].5.Z # ",
"$ [ U.].].W., & Z.].].4 & u.].a.& 6 W.2 & & & t.& & & & & r = * F.].w & t ].S.= & & ; k.& & & & < E.]., & A.].e & 9 ].].].5.A   ",
"$ [ U.].].W.: & Z.].].5 & u.].a.& 6 f.& 3 f.s.S.e.4 & < e.f.= * F.].w & t _.2 & 3 u.i.F.& & r 3 & 6 _., & A.].e & 0 ].].].5.A   ",
"$ [ U.].].W., & Z.].].5 & u.].a.& 6 i.& 8 _.].].].r & 9 ].H.: * F.].w & t j.& ; J.].].!.& & H.k.* - H., & A.].e & 0 ].].].5.A   ",
"$ [ U.].].W.> & S.].].4 & p.].a.& 6 Z.& & r._.].].r & 9 ].E.: - F.].w & t r & 4 ].].].).& & H.E.- & D., & A.].e & 0 ].].].5.S @ ",
") ,.U.].].W.: & Z.].].5 & u.].a.* 6 _.w & * 0 ].].r & 9 ].K.: * F.].w & t q & 8 ].].].).& & H.S.* - K., & A.].e & 9 ].].].5.} T ",
"..1.U.].].W., & Z.].].5 & u.].a.& 6 ].].e.* & i.].r & 9 ].K.= - F.].w & t w & 7 ].].].!.& & t.5 & 5 _., * A.].e & 9 ].].].5.#.| ",
"| 1.U.].].W.> & Z.].].5 & y.].i.& 6 ].]._.e & 3 _.r & 9 ].E.: & F.].q & e.e.& 2 _.].].!.& & & & * A.].1 & Z.].w & 0 ].].].5.#.] ",
"*.1.U.].].W.: & k._._.9 & 9 '.8 * 0 K.!.].u.& < _.r & 9 ].W.3 & s.W.3 & d.A.& & i.].`.!.& & w.< & w.].5 & w.).4 & t ].].].5.#.] ",
"| 1.U.].].W., & & & = y.& * ; & * s.y.- 1 * & e.].r & 8 ].].w.& * - & - Q.].8 & & = > k.& & H.k.* * h.r.& & ; & * D.].].].5.3.] ",
"=.1.U.].].W.> & & & - K.r * & & t ).j.= * * q ).].r & 8 ].].W.7 & & - s.].].Q.0 * & > D.& & H.].t & = A.9 & & - y.].].].].5.#.| ",
"=.1.U.].].].).!.!.!.).'.].W.F.W.].].].).H.W.].].]._.!.).].].].].E.G.).].].].].].Q.G.W.].!.!.].].].!.!._.].Q.G.!.].].].].].5.#.] ",
";.1.U.].].].].].].].].].].].].].].].].].].].].].].].].].].].].].].].].].].].].].].].].].].].].].].].].].].].].].].].].].].5.3.&.",
"=.1.U.].].].].].].].].].].].].].].].].].].].].9.l.c.L.8.N.M.M.c.0.'.L.T.9.R.M.L.T.].].].].].].].].].].].].].].].].].].].].5.*.] ",
"*.1.U.].].].].].].].].].].].].].].].].].].].].l.x.b.L.x.(.b.N.n.0.`.T.T.l.(.N.R.T.].].].].].].].].].].].].].].].].].].].].5.2. .",
") ,.U.].].].].].].].].].].].].].].].].].].].].].].].'.].]._.].]._.].].].'.].].].].].].].].].].].].].].].].].].].].].].].].5...Q ",
"# _ I.'.'.'.'.'.'.'.'.'.'.'.'.'.'.'.'.'.'.'.'.'.'.'.'.'.'.'.'.'.'.'.'.'.'.'.'.'.'.'.'.'.'.'.'.'.'.'.'.'.'.'.'.'.'.'.'.'.'.6.S # ",
"# [ <.<.<.2.2.2.2.2.2.2.2.1.2.2.<.,.<.<.<.<.<.<.<.} 2.2.2.2.2.1.2.2.2.2.2.2.<.<.<.<.<.} <.<.<.2.2.2.2.2.2.2.2.2.2.2.<.<.2.,.A # ",
"  y i s u ;...=.=...=.$.*.] ;.( s i s i u i u y u i C ` #.] { ' $.] ] ' _ d # y $ i i y i y i h } _ ] $.' | ' } } } n y i i i @ ",
"+ #   #   :...=. . .*.] ] _ | +.    @     +       + b ~ ' | ] ] ] ] ] ~ _ y O   O + + O O + + a ..' %.] ~ ' ' ] ] ] k   +   #   ",
"  $ +   $ -.| =.] | | ' ] ] | +.+     +   +         n ~ ' ] ' ' ] ` _ ` _ #     + O X O + + + p ` ' ' ' ~ ' ] ] *.] l   o       ",
"  # @   #  .| ] &.*.%.] _ ] ] T o   . o       o     M _ ' ] ] *.` ] ] ] ~ $ X   + O O O +   + p ] =.' ] _ ] ' ] ' ..k + + +   + ",
"    .   @ / X.] ;.] ] ' ] ] ] K       o o       . o n ] ` ] | ] ] ] ] | ~ $ o   + O + O +   + u ' ] ] ] ] ' _ ] ] ' z + +       ",
". @ @ .   @.| | %.' =.] | ' ] W @ #           X     b ] _ ] ` ` ] _ _ ] ~ $ o X O O + O + + X s ] _ ] ] ] ' ' ] ] ] k + o   @ @ ",
"@ $ @ . @ | | =.=.| %.| | =.| T # .   o O     X     n ] _ | _ ` ..] ` ` ~ # X   O + + + + +   d ] ' X.` _ ] ' _ ' ' k +   @   # ",
"@ @ @ $ @  .&.>.;.;.%.] | %.&.) @ + # . @ @ @     X m _ _ ` _ _ ] ] _ ] _ i     O + + +     O a ] _ ] _ _ ' _ ~ ] =.z +   # .   ",
"m n M n k V C C B C B B D C C C x m z z F z z z M h z b N B v B B B B v B n k k z z z z k k k M B N N B b V b b B B V F m z n z ",
"]  .=.] !   @ # # @ @ @ $ @ @ x %.| | %.:.&.] ' ..] f     + + .     O O   / ] ' ~ ] ] ] ~ _ _ Z .   o           + + H ;.=.| %.%.",
"' | -.] W o       + # + @ @ o x &.-.| =.] | %.' ] ] h   + + +     O O + # R | ` _ ] _ _ _ _ _ Z o       +     o   + C ] %. .-.| ",
"|  . .] W       @ + @ + @ @ + z &.&.] ] ] ] %.%.' %.f   + #   + @   o X   R ] ] _ | ' _ _ _ ' Q o       o       @   A ] ] ~ %.&.",
"| | | ] W       @ @ # + # @ @ k ] &.] | ~ ' &.] ] %.j +   @ + +     X X   Y _ | ] ` ` ` _ _ ' L o o     o   #     # N _ ] ' =.] ",
"~ %.' ] ! @ #   @ @ @ @ # # + z %.| &.| %.] ] ~ ] %.g +   o @ + X   X X @ Y | ] | _ ' ' _ _ _ Z o @ o   o           b %.| ' ;.%.",
"] ] ] | W @ @   @ + # @ # # @ m | | %.] | %.$.' ] ' f X   o     +   X X $ ^ ] _ ] ~ ] _ ~ _ ' K   @     o o     o   C | ] | ] %.",
"] | ] %.W # @ @   @ @ + # @ @ k  .]  .| %.%.%._ ~ ] g   o + +   + + + +   Y ..' ~ ~ ] ' _ ] ] Z o     o       + + @ B %.] =.~ %.",
"] &.| &.) +   @ @ @ + @ # @ # l &.| @.] &.=.] ] ' ] c   o o +   +       + R _ *.~ ] ~ ~ ] X.| L   o o o o @ @ o + + C &.]  .] =.",
"] ^ | X.W @ @ # @ @ # @ # @ # x  .| %./ -.&.X.' ] ] l o   @       @ +   % ! ` | ] ] ' ] ' ] ] L                 @   G =. . .|  .",
"] | | | W @ @ @ @ @ @ @ # # @ l | | | | | ] | ~ ] ] l o +       @ + + +   T ] ` ~ ] ~ ~ ~ ~ ' L             @     @ n X.] ]  . ."
};
