/* XPM */
static char *_e430419d7504357d7af2ebeaef5ee1ct3jNedKJKULafGbf[] = {
/* columns rows colors chars-per-pixel */
"64 64 218 2 ",
"   c #1F3058",
".  c #1D2D5A",
"X  c #012264",
"o  c #092764",
"O  c #142D63",
"+  c #012876",
"@  c #15347B",
"#  c #223B79",
"$  c #203662",
"%  c #2C447B",
"&  c #31487F",
"*  c #3F4567",
"=  c #6F6D5E",
"-  c #77705D",
";  c #454E6A",
":  c #4A557C",
">  c #545468",
",  c #625B66",
"<  c #4E6770",
"1  c #6E7173",
"2  c #B27C3C",
"3  c #A7743A",
"4  c #917456",
"5  c #8D7C53",
"6  c #A57A42",
"7  c #8D7C6F",
"8  c #917B67",
"9  c #817972",
"0  c #BE803F",
"q  c #AB8244",
"w  c #BA8D4F",
"e  c #B58447",
"r  c #BF974F",
"t  c #A88359",
"y  c #B38952",
"u  c #BA9255",
"i  c #BA9757",
"p  c #8E8472",
"a  c #999578",
"s  c #958E70",
"d  c #A09262",
"f  c #A79879",
"g  c #B3956D",
"h  c #B9A168",
"j  c #C3874A",
"k  c #C5984E",
"l  c #C38D51",
"z  c #C49B54",
"x  c #CB9C53",
"c  c #C49A5B",
"v  c #CC9C5C",
"b  c #C59356",
"n  c #D49852",
"m  c #D0AA4F",
"M  c #CDA45B",
"N  c #CAA658",
"B  c #D4A85C",
"V  c #CFB05A",
"C  c #C59D64",
"Z  c #C69664",
"A  c #CDA465",
"S  c #CEA76A",
"D  c #CCAC6C",
"F  c #C7A666",
"G  c #D3A265",
"H  c #D4AC64",
"J  c #D5AD6C",
"K  c #DBAE6B",
"L  c #D7A766",
"P  c #CCB06D",
"I  c #D3B16B",
"U  c #DAB36C",
"Y  c #DBBB6D",
"T  c #D7B363",
"R  c #CCAB72",
"E  c #C9AA72",
"W  c #D4AC73",
"Q  c #D1AF7A",
"!  c #DCAC72",
"~  c #CEB174",
"^  c #D3B373",
"/  c #DCB373",
"(  c #D4B47B",
")  c #DBBA7C",
"_  c #D8B878",
"`  c #E3B36C",
"'  c #E2BB67",
"]  c #E1BD75",
"[  c #E6B979",
"{  c #DDC172",
"}  c #DDC27D",
"|  c #D7C274",
" . c #E5C36B",
".. c #E2C374",
"X. c #E4C47B",
"o. c #E9C47B",
"O. c #E6CA7C",
"+. c #EBCA7C",
"@. c #EAC272",
"#. c #ECD07D",
"$. c #F2CC7D",
"%. c #042F87",
"&. c #012E89",
"*. c #0C3284",
"=. c #04318B",
"-. c #0A3387",
";. c #173882",
":. c #264586",
">. c #0C739D",
",. c #17769B",
"<. c #136F95",
"1. c #26758E",
"2. c #246A86",
"3. c #0074A6",
"4. c #0976A3",
"5. c #0077AA",
"6. c #0079AE",
"7. c #007DB2",
"8. c #1179A3",
"9. c #26819F",
"0. c #0081B9",
"q. c #2E8BAD",
"w. c #50868B",
"e. c #6A948F",
"r. c #5198A1",
"t. c #6CA0A0",
"y. c #008BC6",
"u. c #0090CE",
"i. c #039CDD",
"p. c #0A9EDC",
"a. c #0696D3",
"s. c #159CD4",
"d. c #0FA3DF",
"f. c #11A2DD",
"g. c #2DA3CF",
"h. c #37ADD4",
"j. c #2BAAD8",
"k. c #009FE3",
"l. c #04A0E3",
"z. c #58B8D4",
"x. c #61AECF",
"c. c #68BACA",
"v. c #909182",
"b. c #A19880",
"n. c #9BA488",
"m. c #B6B48F",
"M. c #99BBB0",
"N. c #C9B188",
"B. c #D5B481",
"V. c #D5BA81",
"C. c #DBBB84",
"Z. c #DBBA85",
"A. c #CCB999",
"S. c #DDBF91",
"D. c #E5BC87",
"F. c #E4BD93",
"G. c #90CBBF",
"H. c #B6CAB8",
"J. c #BED7AC",
"K. c #DBCB85",
"L. c #DDC08B",
"P. c #DBC187",
"I. c #CAC49D",
"U. c #DBC898",
"Y. c #DAD79C",
"T. c #E3C383",
"R. c #E9C682",
"E. c #E6C982",
"W. c #EBCB84",
"Q. c #E2C489",
"!. c #E5CC8C",
"~. c #EACC8C",
"^. c #EAC588",
"/. c #F0CD8C",
"(. c #F3C983",
"). c #E5D08B",
"_. c #EED28E",
"`. c #F5D38C",
"'. c #F3D688",
"]. c #E3C292",
"[. c #E5CA92",
"{. c #EBCB94",
"}. c #EEC79C",
"|. c #E4CC99",
" X c #ECC696",
".X c #F0CB95",
"XX c #EBD297",
"oX c #F4D492",
"OX c #F4DB9B",
"+X c #F9DB9A",
"@X c #F5D795",
"#X c #F7E298",
"$X c #D8D2A5",
"%X c #DBDBB1",
"&X c #CFD4AC",
"*X c #ECCCA2",
"=X c #F2CEA7",
"-X c #EDDAA2",
";X c #E7D7A8",
":X c #F4D3A7",
">X c #F4DDA4",
",X c #F8DDA4",
"<X c #F4DBA9",
"1X c #F6D6AD",
"2X c #E8DBB7",
"3X c #F9D3B1",
"4X c #D6E2B0",
"5X c #FAE2A3",
"6X c #F4E3AC",
"7X c #FAE2AC",
"8X c #F4E3A6",
"9X c #F5E3B2",
"0X c #F9E2B1",
"qX c #F7E8B7",
"wX c #ECE4B2",
"eX c #91CAC6",
"rX c #A9D1C0",
"tX c #C9D1CA",
/* pixels */
"k.k.k.k.k.k.k.k.k.k.k.k.k.k.k.k.k.k.k.k.k.k.k.k.k.k.k.k.k.k.k.k.&.&.&.&.&.&.&.&.&.&.&.&.&.&.&.&.&.&.&.&.&.&.&.&.&.&.&.&.&.&.&.&.",
"k.k.k.k.k.k.k.k.k.k.k.k.k.k.k.k.k.k.k.k.k.k.k.k.k.k.k.k.k.k.k.k.&.&.&.&.&.&.&.&.&.&.&.&.&.&.&.&.&.&.&.&.&.&.&.&.&.&.&.&.&.&.&.&.",
"k.k.k.k.k.k.k.k.k.k.k.k.k.k.k.k.k.k.k.k.k.k.k.k.k.k.k.k.k.k.k.k.&.&.&.&.&.&.&.&.&.&.&.&.&.&.&.&.&.&.&.&.&.&.&.&.&.&.&.&.&.&.&.&.",
"k.k.k.k.k.k.k.k.k.k.k.k.k.k.k.k.k.k.k.k.k.k.k.k.k.k.k.k.k.k.k.k.&.&.&.&.&.&.&.&.&.&.&.&.&.&.&.&.&.&.&.&.&.&.&.&.&.&.&.&.&.&.&.&.",
"k.k.k.k.k.k.k.k.k.k.k.k.k.k.k.k.k.k.k.k.k.k.k.k.k.k.k.k.k.k.k.k.&.&.&.&.&.&.&.&.&.&.&.&.&.&.&.&.&.&.&.&.&.&.&.&.&.&.&.&.&.&.&.&.",
"k.k.k.k.k.k.k.k.k.k.k.k.k.k.k.k.k.k.k.k.k.k.k.k.k.k.k.k.k.k.k.k.&.&.&.&.&.&.&.&.&.&.&.&.&.&.&.&.&.&.&.&.&.&.&.&.&.&.&.&.&.&.&.&.",
"k.k.k.k.k.k.k.k.k.k.k.k.k.k.k.k.k.k.k.k.k.k.k.k.k.k.k.k.k.k.k.k.&.&.&.&.&.&.&.&.&.&.&.&.&.&.&.&.&.&.&.&.&.&.&.&.&.&.&.&.&.&.&.&.",
"k.k.k.k.k.k.k.k.k.k.k.k.k.k.k.k.k.k.k.k.k.k.k.k.k.k.k.k.k.k.k.k.&.&.&.&.&.&.&.&.&.&.&.&.&.&.&.&.&.&.&.&.&.&.&.&.&.&.&.&.&.&.&.&.",
"k.k.k.k.k.k.k.k.k.k.k.k.k.k.k.k.k.k.k.k.k.k.k.k.k.k.k.k.k.k.k.k.&.&.&.&.&.&.&.&.&.&.&.&.&.&.&.&.&.&.&.&.&.&.&.&.&.&.&.&.&.&.&.&.",
"k.k.k.k.k.k.k.k.k.k.k.k.k.k.k.k.k.k.k.k.k.k.k.k.k.k.k.k.k.k.k.k.&.&.&.&.&.&.&.&.&.&.&.&.&.&.&.&.&.&.&.&.&.&.&.&.&.&.&.&.&.&.&.&.",
"k.k.k.k.k.k.k.k.k.k.k.k.k.k.k.k.k.k.l.l.k.k.k.k.k.k.k.k.k.k.k.k.&.&.&.&.&.&.&.&.&.&.&.&.&.&.&.&.&.&.&.&.&.&.&.&.&.&.&.&.&.&.&.&.",
"k.k.k.k.k.k.k.k.k.k.k.k.k.k.k.k.k.k.k.p.f.j.z.z.eX&X&XM.g.p.s.p.&.&.&.&.&.&.&.&.&.&.&.&.&.&.&.&.&.&.&.&.&.&.&.&.&.&.&.&.&.&.&.&.",
"k.k.k.k.k.k.k.k.k.k.k.k.k.k.k.k.l.k.s.tX4X4X4X2XwX8XOX`.U.H.;XI.: *.%.&.&.&.&.&.&.&.&.&.&.&.&.&.&.&.&.&.&.&.&.&.&.&.&.&.&.&.&.&.",
"k.k.k.k.k.k.k.k.k.k.k.k.k.k.k.k.l.s.&XqX6X6X9X9X<X5X'.+.oX<X<X<XW.g # &.&.&.&.&.&.&.&.&.&.&.&.&.&.&.&.&.&.&.&.&.&.&.&.&.&.&.&.&.",
"k.k.k.k.k.k.k.k.k.k.k.k.k.k.k.k.d.H.wX6X6X6X9X0X7X,XW.'.+X0X7X<X~.Y 8 ;.;.&.&.&.&.&.&.&.&.&.&.&.&.&.&.&.&.&.&.&.&.&.&.&.&.&.&.&.",
"k.k.k.k.k.k.k.k.k.k.k.k.k.k.k.k.x.wX6X6X6X6X9X0X0X@XX.(.,X0X<XXX{ V U A.A.v.% %.&.&.&.&.&.&.&.&.&.&.&.&.&.&.&.&.&.&.&.&.&.&.&.&.",
"k.k.k.k.k.k.k.k.k.k.k.k.k.k.k.k.tX0X9X6X6X6X7X0X7XoX+.oX<X7X#X`.H N C.;X;XK.V.1 *.&.&.&.&.&.&.&.&.&.&.&.&.&.&.&.&.&.&.&.&.&.&.&.",
"k.k.k.k.k.k.k.k.k.k.k.k.k.k.l.f.2XqX9X9X6X8X5X#X@X..+.@X0X5X'. .m H  X3X:XXXE.~ :.&.&.&.&.&.&.&.&.&.&.&.&.&.&.&.&.&.&.&.&.&.&.&.",
"k.k.k.k.k.k.k.k.k.k.k.k.k.k.k.f.&XqXqX9X5X5X#X#XO.' R.,X7X5X'.' m [ =X3X>X.X^.' 8 # *.&.&.&.&.&.&.&.&.&.&.&.&.&.&.&.&.&.&.&.&.&.",
"k.k.k.k.k.k.k.k.k.k.k.k.k.k.k.d.rXqXqX9X7X#X#X#. .@.`.8X,XOXR.T B D.3X3X@X.XD.T B ` a : %.&.&.&.&.&.&.&.&.&.&.&.&.&.&.&.&.&.&.&.",
"k.k.k.k.k.k.k.k.k.k.k.k.k.k.k.l.eXqXqX9X7X#X'. .' $.OXOXOX_...H ! }.3X=X/.[ ` z v ) K.N.1 @ %.&.&.&.&.&.&.&.&.&.&.&.&.&.&.&.&.&.",
"k.k.k.k.k.k.k.k.k.k.k.k.k.k.k.k.c.9X2X9X5X@X@.'  .`.+X+X'.E.J K D.=X=X.Xo.[ ` z ' .X} @.` ; %.%.&.&.&.&.&.&.&.&.&.&.&.&.&.&.&.&.",
"k.k.k.k.k.k.k.k.k.k.k.k.k.k.k.k.c.2X9X<XOX(.' B W.+X+XoX'.X.T K }.1X}.T.] K U M o.D.Y U L , %.%.&.&.&.&.&.&.&.&.&.&.&.&.&.&.&.&.",
"k.k.k.k.k.k.k.k.k.k.k.k.k.k.k.k.j.%X<X<XXXR.U @.`.+X+X`.+.Y B _ |.|.{.[ K A L ` ` / U / L 8 *.%.&.&.&.&.&.&.&.&.&.&.&.&.&.&.&.&.",
"k.k.k.k.k.k.k.k.k.k.k.k.k.k.k.k.p.m.6X-X{.R.] R.~.oXoX/.] m N } [.!.W.X./ c / (.[ ` ! D.C l 9 :.&.&.&.&.&.&.&.&.&.&.&.&.&.&.&.&.",
"l.k.k.k.k.k.k.k.k.k.k.k.k.k.k.k.u.q.$XOX{.^.o.W.~._.~.R.B k B E.K.| I I A u [  XD.T ! ! e 2 v f -.&.&.&.&.&.&.&.&.&.&.&.&.&.&.&.",
"k.k.k.k.k.k.k.k.k.k.k.k.k.k.k.k.3.3.t.U.~.[..XoX_.W.O...D M ] R.W...T N b G E Q ( ^ E C 3 2 C E ;.&.&.&.&.&.&.&.&.&.&.&.&.&.&.&.",
"k.k.k.k.k.k.k.k.k.k.k.k.k.k.k.3.5.3.3.n./.$X:X.X~.+.O.{ _ R.R.+.O...D w l ! Z.R C.~ h 6 0 l _ h % &.&.&.&.&.&.&.&.&.&.&.&.&.&.&.",
"k.k.k.k.k.k.k.k.k.k.k.k.k.k.k.3.3.3.3.4.n.U.;X{.Q.W.R.P.T.!.E.+.| Y r q b / Z.( Z.B.c 2 j ! _ Z ; &.&.&.&.&.&.&.&.&.&.&.&.&.&.&.",
"k.k.k.k.k.k.k.k.k.k.k.k.k.k.k.3.3.3.3.3.,.m.-X).~.!.{.{.!.~.E...Y V e q Z C.P.( Z.Q v n B _ S v , %.&.&.&.&.&.&.&.&.&.&.&.&.&.&.",
"k.k.k.k.k.k.k.k.k.k.k.k.k.k.k.3.3.3.3.3.5.9.Y.).[.{.*X*X XW.O...| V r u ~ ) _ ^ ) S l l G W S n 4 # &.&.&.&.&.&.&.&.&.&.&.&.&.&.",
"k.k.k.k.k.k.k.k.k.k.k.k.k.k.k.3.3.3.3.3.5.3.r.).[.$X;X|.W.W.O.{ P c F [ P.( _ E Z e l Z S J c x n ; %.&.&.&.&.&.&.&.&.&.&.&.&.&.",
"&.&.&.&.&.&.&.&.&.&.&.&.&.&.&.X X X X X X X X < m.I.;X!.O.+.O.{ P E C.P.V.R R i q 6 b W E G v k x s a.l.k.k.k.k.k.k.k.k.k.k.k.k.",
"&.&.&.&.&.&.&.&.&.&.&.&.&.&.&.&.X X X X X X X X o * f W.E.E.E.D.) ( L.V.V.C.y e 6 L Q B.R S c x C t a.l.k.k.k.k.k.k.k.k.k.k.k.k.",
"&.&.&.&.&.&.&.&.&.&.&.&.&.&.&.&.X X X X X X X X X X O 7 ( Q.~.Q.L.V.C.V.L.F q e y E Q ( R A z z b w.l.l.k.k.k.k.k.k.k.f.k.k.k.k.",
"&.&.&.&.&.&.&.&.&.&.&.&.&.&.&.&.X X X X X X X X X X X O 7 !.[.Q.L.P.C.S.[.E u A R E V.V.W A v k 6 q.k.l.k.k.k.k.k.k.k.f.k.k.k.k.",
"&.&.&.&.&.&.&.&.&.&.&.&.&.&.&.&.=.X X X X X X X X X X X . g A.S.L.C.Z.S.B.( E ) ~ ~ V.( S v b w 8 s.k.k.k.k.k.k.k.k.k.k.k.k.k.k.",
"&.&.&.&.&.&.&.&.&.&.&.&.&.&.&.&.&.&.X X X X X X X X X X X . p C.L.F.F.D.E _ ) W P _ ^ I C v j - 2.k.k.k.k.k.k.k.k.k.k.k.k.k.k.k.",
"&.&.&.&.&.&.&.&.&.&.&.&.&.&.&.&.&.&.X X X X X X X X X X X X . 1 N.F.F.Z.( ^ I ^ ~ ~ J J n y = <.5.k.k.k.k.k.k.k.k.k.k.k.k.k.k.k.",
"&.&.&.&.&.&.&.&.&.&.&.&.&.&.&.&.&.&.&.X X X X X X X X X X X X o e.Z.D.B.B.B.^ I ~ P h d 5 < >.3.3.k.k.k.k.k.k.k.k.k.k.k.k.k.k.k.",
"&.&.&.&.&.&.&.&.&.&.&.&.&.&.&.&.&.&.&.&.X X X X X X X X X X X X 8.e.a a a f ( ^ n.w.1.>.4.3.3.3.3.6.k.k.k.k.k.k.k.k.k.k.k.k.k.k.",
"&.&.&.&.&.&.&.&.&.&.&.&.&.&.&.&.&.&.&.&.&.X X X X X X X X X X X 5.5.5.3.4.,.,.1.>.3.3.3.3.3.3.3.3.5.k.k.k.k.k.k.k.k.k.k.k.k.k.k.",
"&.&.&.&.&.&.&.&.&.&.&.&.&.&.&.&.&.&.&.&.&.X X X X X X X X X X X 3.3.3.3.3.3.3.3.3.3.3.3.3.3.3.3.3.3.y.k.k.k.k.k.k.k.k.k.k.k.k.k.",
"&.&.&.&.&.&.&.&.&.&.&.&.&.&.&.&.&.&.&.&.&.&.X X X X X X X X X X 3.3.3.3.3.3.3.3.3.3.3.3.3.3.3.3.3.3.u.k.k.k.k.k.k.k.k.k.k.k.k.k.",
"&.&.&.&.&.&.&.&.&.&.&.&.&.&.&.&.&.&.&.&.&.&.&.&.X X X X X X X X 3.3.3.3.3.3.3.3.3.3.3.3.3.3.3.3.3.3.i.k.k.k.k.k.k.k.k.k.k.k.k.k.",
"&.&.&.&.&.&.&.&.&.&.&.&.&.&.&.&.&.&.&.&.&.&.&.&.&.&.X X X X X X 3.3.3.3.3.3.3.3.3.3.3.3.3.3.3.3.3.7.k.k.k.k.k.k.k.k.k.k.k.k.k.k.",
"&.&.&.&.&.&.&.&.&.&.&.&.&.&.&.&.&.&.&.&.&.&.&.&.&.&.&.X X X X X 3.3.3.3.3.3.3.3.3.3.3.3.3.3.3.3.3.u.k.k.k.k.k.k.k.k.k.k.k.k.k.k.",
"&.&.&.&.&.&.&.&.&.&.&.&.&.&.&.&.&.&.&.&.&.&.&.&.&.&.&.&.+ X X X 3.3.3.3.3.3.3.3.3.3.3.3.3.3.3.3.3.k.k.k.k.k.k.k.k.k.k.k.k.k.k.k.",
"&.&.&.&.&.&.&.&.&.&.&.&.&.&.&.&.&.&.&.&.&.&.&.&.&.&.&.&.&.+ X X 3.3.3.3.3.3.3.3.3.3.3.3.3.3.4.6.u.k.k.k.k.k.k.k.k.k.k.k.k.k.k.k.",
"&.&.&.&.&.&.&.&.&.&.&.&.&.&.&.&.&.&.&.&.&.&.&.&.&.&.&.&.&.&.X X 3.3.3.3.3.3.3.3.3.3.3.3.3.3.7.k.k.k.k.k.k.k.k.k.k.k.k.k.k.k.k.k.",
"&.&.&.&.&.&.&.&.&.&.&.&.&.&.&.&.&.&.&.&.&.&.&.&.&.&.&.&.&.&.&.X 3.3.3.3.3.3.3.3.3.3.3.3.3.7.k.k.k.k.k.k.k.k.k.k.k.k.k.k.k.k.k.k.",
"&.&.&.&.&.&.&.&.&.&.&.&.&.&.&.&.&.&.&.&.&.&.&.&.&.&.&.&.&.&.&.&.3.5.3.3.3.3.3.3.3.3.3.7.6.k.k.k.k.k.k.k.k.k.k.k.k.k.k.k.k.k.k.k.",
"&.&.&.&.&.&.&.&.&.&.&.&.&.&.&.&.&.&.&.&.&.&.&.&.&.&.&.&.&.&.&.&.k.3.3.3.3.3.3.3.5.3.k.k.k.k.k.k.k.k.k.k.k.k.k.k.k.k.k.k.k.k.k.k.",
"&.&.&.&.&.&.&.&.&.&.&.&.&.&.&.&.&.&.&.&.&.&.&.&.&.&.&.&.&.&.&.&.k.k.k.k.k.k.k.k.k.k.k.k.k.k.k.k.k.k.k.k.k.k.k.k.k.k.k.k.k.k.k.k.",
"&.&.&.&.&.&.&.&.&.&.&.&.&.&.&.&.&.&.&.&.&.&.&.&.&.&.&.&.&.&.&.&.k.k.k.k.k.k.k.k.k.k.k.k.k.k.k.k.k.k.k.k.k.k.k.k.k.k.k.k.k.k.k.k.",
"&.&.&.&.&.&.&.&.&.&.&.&.&.&.&.&.&.&.&.&.&.&.&.&.&.&.&.&.&.&.&.&.k.k.k.k.k.k.k.k.k.k.k.k.k.k.k.k.k.k.k.k.k.k.k.k.k.k.k.k.k.k.k.k.",
"&.&.&.&.&.&.&.&.&.&.&.&.&.&.&.&.&.&.&.&.&.&.&.&.&.&.&.&.&.&.&.&.k.k.k.k.k.k.k.k.k.k.k.k.k.k.k.k.k.k.k.k.k.k.k.k.k.k.k.k.k.k.k.k.",
"&.&.&.&.&.&.&.&.&.&.&.&.&.&.&.&.&.&.&.&.&.&.&.&.&.&.&.&.&.&.&.&.k.k.k.k.k.k.k.k.k.k.k.k.k.k.k.k.k.k.k.k.k.k.k.k.k.k.k.k.k.k.k.k.",
"&.&.&.&.&.&.&.&.&.&.&.&.&.&.&.&.&.&.&.&.&.&.&.&.&.&.&.&.&.&.&.&.k.k.k.k.k.k.k.k.k.k.k.k.k.k.k.k.k.k.k.k.k.k.k.k.k.k.k.k.k.k.k.k.",
"&.&.&.&.&.&.&.&.&.&.&.&.&.&.&.&.&.&.&.&.&.&.&.&.&.&.&.&.&.&.&.&.k.k.k.k.k.k.k.k.k.k.k.k.k.k.k.k.k.k.k.k.k.k.k.k.k.k.k.k.k.k.k.k.",
"=.=.=.=.=.&.&.&.&.&.&.&.&.&.&.&.&.&.&.&.&.&.&.&.&.&.&.&.&.&.&.&.k.k.k.k.k.k.k.k.k.k.k.k.k.k.k.k.k.k.k.k.k.k.k.k.k.k.k.k.k.k.k.k.",
"&.&.&.&.&.&.&.&.&.&.&.&.&.&.&.&.&.&.&.&.&.&.&.&.&.&.&.&.&.&.&.&.k.k.k.k.k.k.k.k.k.k.k.k.k.k.k.k.k.k.k.k.k.k.k.k.k.k.k.k.k.k.k.k.",
"&.&.&.&.&.&.&.&.&.&.&.&.&.&.&.&.&.&.&.&.&.&.&.&.&.&.&.&.&.&.&.&.k.k.k.k.k.k.k.k.k.k.k.k.k.k.k.k.k.k.k.k.k.k.k.k.k.k.k.k.k.k.k.k.",
"&.&.&.&.&.&.&.&.&.&.&.&.&.&.&.&.&.&.&.&.&.&.&.&.&.&.&.&.&.&.&.&.k.k.k.k.k.k.k.k.k.k.k.k.k.k.k.k.k.k.k.k.k.k.k.k.k.k.k.k.k.k.k.k."
};
