/* XPM */
static char *result[] = {
/* columns rows colors chars-per-pixel */
"64 64 235 2 ",
"   c #1D2C3A",
".  c #212F3E",
"X  c #594D38",
"o  c #243343",
"O  c #2A3949",
"+  c #303D4F",
"@  c #38434B",
"#  c #394656",
"$  c #3C5164",
"%  c #424D5C",
"&  c #49545A",
"*  c #575853",
"=  c #4D5C6B",
"-  c #475564",
";  c #525C69",
":  c #485467",
">  c #55616D",
",  c #5A6469",
"<  c #546372",
"1  c #5C6974",
"2  c #5C6C7B",
"3  c #596776",
"4  c #5F707D",
"5  c #4A6377",
"6  c #626E7B",
"7  c #646D76",
"8  c #67747C",
"9  c #6C7272",
"0  c #6A604E",
"q  c #B4741D",
"w  c #B67B2B",
"e  c #8C6B3E",
"r  c #CE7F11",
"t  c #CE7E0F",
"y  c #816E50",
"u  c #398F77",
"i  c #458C7B",
"p  c #CE8216",
"a  c #D38818",
"s  c #D9931F",
"d  c #D48D24",
"f  c #DB9925",
"g  c #CD8F32",
"h  c #E19F2E",
"j  c #DEA12D",
"k  c #DEA231",
"l  c #E7A82D",
"z  c #EBB22D",
"x  c #E2A936",
"c  c #EBB536",
"v  c #F2BC36",
"b  c #F3BE3A",
"n  c #F1B73C",
"m  c #F5C03A",
"M  c #F8C23E",
"N  c #B3894B",
"B  c #9B896B",
"V  c #BAAA79",
"C  c #CB9850",
"Z  c #E9B945",
"A  c #EEBA4C",
"S  c #D0AB70",
"D  c #E1B766",
"F  c #D9AC5D",
"G  c #EEC44C",
"H  c #EEC348",
"J  c #F6C442",
"K  c #F8C443",
"L  c #F4C54D",
"P  c #FAC64B",
"I  c #F6CC4B",
"U  c #FBC94E",
"Y  c #F6C945",
"T  c #EEC652",
"R  c #F3CB54",
"E  c #FDCB54",
"W  c #F3CD5A",
"Q  c #FACB57",
"!  c #F6D255",
"~  c #F6D55B",
"^  c #FAD35C",
"/  c #F7D95E",
"(  c #F8DA5E",
")  c #F9D156",
"_  c #D7C878",
"`  c #E8D26F",
"'  c #FCD564",
"]  c #F6DB62",
"[  c #F8DC61",
"{  c #F9DC6B",
"}  c #F7D768",
"|  c #EEDA77",
" . c #FBDE73",
".. c #F5DB77",
"X. c #F0CE69",
"o. c #FCE275",
"O. c #FDE37C",
"+. c #FBE16D",
"@. c #647483",
"#. c #6B7683",
"$. c #6C7A85",
"%. c #6C7D8B",
"&. c #667888",
"*. c #737E8A",
"=. c #727D86",
"-. c #687E90",
";. c #5C7084",
":. c #3E9B81",
">. c #3CA687",
",. c #4E9C89",
"<. c #6F808D",
"1. c #73818D",
"2. c #79848C",
"3. c #76868A",
"4. c #6D8192",
"5. c #738492",
"6. c #798692",
"7. c #7B8A94",
"8. c #758999",
"9. c #7B8D9B",
"0. c #758797",
"q. c #7E919E",
"w. c #759795",
"e. c #4BAA92",
"r. c #53AA96",
"t. c #65A79A",
"y. c #7D92A1",
"u. c #6BAEA5",
"i. c #74B7AB",
"p. c #70B7AA",
"a. c #5FB2A2",
"s. c #76C4B6",
"d. c #818C95",
"f. c #828F9A",
"g. c #84939D",
"h. c #88949E",
"j. c #8B9698",
"k. c #8A928F",
"l. c #AEA993",
"z. c #8495A2",
"x. c #8A97A2",
"c. c #8699A5",
"v. c #8B9AA5",
"b. c #8B9DAA",
"n. c #869BAB",
"m. c #919DA4",
"M. c #929FAA",
"N. c #8A9EB1",
"B. c #8DA1AC",
"V. c #84AFAE",
"C. c #94A3AD",
"Z. c #99A4AD",
"A. c #99A4A7",
"S. c #8DA3B2",
"D. c #94A6B2",
"F. c #95A9B5",
"G. c #9CAAB4",
"H. c #95A9B9",
"J. c #9BADBA",
"K. c #99A6B2",
"L. c #9DB1BD",
"P. c #98BABB",
"I. c #85B9B6",
"U. c #A1AFBA",
"Y. c #A1ADB5",
"T. c #A4B3BD",
"R. c #A7B4BB",
"E. c #B5BDB4",
"W. c #ADB3A7",
"Q. c #9EA095",
"!. c #CBB490",
"~. c #85C7BC",
"^. c #95C3BE",
"/. c #BDC4BB",
"(. c #D2CA90",
"). c #EFD789",
"_. c #FFE782",
"`. c #FAE58A",
"'. c #F8E796",
"]. c #CFCCAE",
"[. c #FAE7A4",
"{. c #E9E2B1",
"}. c #F3D7A3",
"|. c #9DB3C2",
" X c #A3B5C2",
".X c #A9B7C2",
"XX c #A4B9C5",
"oX c #ABBAC4",
"OX c #A4BAC9",
"+X c #ACBECA",
"@X c #A1B7C8",
"#X c #B1BEC5",
"$X c #B2BEC9",
"%X c #99C8C4",
"&X c #89C6C0",
"*X c #ADC1CD",
"=X c #A4CBCB",
"-X c #A8C8CB",
";X c #B3C3CD",
":X c #B7C4C8",
">X c #A5D1CE",
",X c #ADCED1",
"<X c #AEC5D1",
"1X c #B3C5D1",
"2X c #B9C6D1",
"3X c #B5CAD4",
"4X c #BBCBD5",
"5X c #BCCDD9",
"6X c #B6CCD9",
"7X c #ADD3D3",
"8X c #BDD3DC",
"9X c #B7D6D9",
"0X c #BDDDE0",
"qX c #C1CFD9",
"wX c #C0CED7",
"eX c #C3D3DD",
"rX c #C9D6DE",
"tX c #C4D9DD",
"yX c #D3D8CF",
"uX c #DCE4D4",
"iX c #DBE2CE",
"pX c #FAF1CC",
"aX c #C4D6E1",
"sX c #C9D6E1",
"dX c #C5DAE3",
"fX c #CBDBE4",
"gX c #CDDEE8",
"hX c #D1DEE7",
"jX c #D1DFE9",
"kX c #CEE1E9",
"lX c #C8E0E5",
"zX c #D4E3EC",
"xX c #D7E5EA",
"cX c #D7E8F0",
"vX c #FEFAEE",
/* pixels */
"1XOX0XaXoX8 T.3XB.q.4XfXfXrXrXsXsXrXsXsXhXjXxXhXfXhXrX4X4XsX2X.XsX2Xx.$XhXqXY.6.d.m.=.=.f.#.*.; # % % : % ;.+ # N.H.y.;.# +   -.",
"|.OX5XdX8X9.C.8XH.8.oXlX4XR.R.R.oX2XwXwXrXsXfXfXsXfXhXhXgXzXjXjXjXhXwXrXhXhXqXm.#.h.m.*.*.*.*.: # % : ; ;.;.: # -.-.;.+ . . + H.",
"|.@X8XgXaXz.9.dX|.7.F.fX*X6.7.x.z.D.M.v.m.G.G.R.T.U..X.X X2X4X4XrXwX$X2XwXwXrXwXd.#.Z.x.#.#.*.: % % % 3 0.N.N.x.;.% + .   . % +X",
"+X|.dXdXaX9.1.aXXXB.F.rXY.#.8 7.6.z.9.&.*.f.1.9.q.5.f.z.3.C.R.A.#XK.Z.U.U.Y.2XjX2Xd.d.h.*.*.6.; + + % 3 N..X2XJ.;.. o o . o *.5X",
"6XN.aXaX6X-.$.5X,XL.j.rXZ.#.$.7.z.M.z.*.0.c.z.N.K.z.C.b.8.Z.R.h..Xm.x.Z.M.f..XwXjX$Xd.#.M.h.#.< + # % ;.x.U..X;.% + + o . # J.sX",
"6XS.aX0X$X3 @.1X8XF.3.rXZ.3.g.c.b.D.f.&.6.b.5XaXeX4X4X;XT.*X;XoX$XR.G.C.Z.Z.Z.U.hXzX$X*.x.x.*.#.% % % ; N..XJ.% = + O o o &.+XgX",
"OXOX8X8XH.# 2 |.dXH.7.tXG.7.B.q.0.*.f.*.b.c.aX2X.X;X;X4X;XsXfXfXeXeXqXeXeXsX4X4XqXjXjXR.7 *.; *.d.; # : y.@X@X;.;.+ o . # N.sXsX",
"8XS.H.<X< # -.D.dX3X1XlXZ.<.7.h.K.c.n.z.M.H.5X+X8 1.=.2.#.+XD.F.g.b.7.g.v.Y.U.J.$XwXsXsXY.1 *.2X7 ; #.#.n.@XJ.;.;.o   O -.1XgXsX",
"9X|.H.8.+ : -.q.gXlXG.sXb.3.c.y.8X.Xy.0.D..X5X5X$.9.3.2.3.*XK. XC.7.1.7.6.6.b.$.$.6.2.2XfXY.*.m.x.*.;.y.H.+XJ.;.;.+   3 J.sXsXgX",
"|.|.S.$ O &.y.8.8X8X;XfXh.7.z.z.5X.XS.n.n.H.gXfXT. XJ.C.c.1X;X<XF.K.g.g.x.0.d.=.#.D.2.d.eXsXM.7 $X.Xf.#.H.@X6.: : + < f.$XgXsXgX",
"y.@X;.o 5 S.|.n.+XdX6XfXh.b.z.5.5XJ.z.S.n.@XzXzXfXfXaX5X1XdXfXaX*X3X1X;X1X+XJ.H.H.+XD.x.#XhXrXf.;.K.x.6.0.H.#.# : #.*.9.1XsXgXjX",
"4.4.# - y.OX<XOXaXkXaXfXA.J.S.9.5XK.n.D.q.OXaXjXzXzXgX5X3XaXlXfX5XdXfXgXgXjXsXaXaXeX4X+X4XhXhX4Xf.6.N.H.*.y.;.#.#.< #.*.5XgXjXjX",
"5 $ $ 8.-X0X0XgXzXzXtXrXZ.L.b.0.4XZ.9.y.b.L.-X-XzXiX}.).| | | | ` ` D F !.iXcXfXeXwXqX$XqXjXhXsX2Xd.6.M.M.*.#.#.;.;.&.H.aXsXjXjX",
"$ $ -.%XlXkXzXzXcXcXsXrXF.F.q.%.8XB.5.0.H.Y./.(...[ [ [ [ [ ( [ [ / [ / R x g D Q.m.v.h.M.M.d.C.sX$Xd.d.M.;.#.#.;.;.-.@XsXgXjXjX",
"5 4.@XdXkXcXcXlXkXcXhXfXC.c.%.8.8XZ.8.h.].).[ [ [ [ [ [ [ [ ( ( [ [ / [ [ [ } Z h N y 9 ; 3 7 *..XsX.Xd.6.*.x.#.#.#.-.@XaXgXjXjX",
"n.OXdXcXcXcXlX0XlXcXkXkXx.7.<.g.L.B.j.(.[ ( [ [ [ [ [ / / ! / / [ [ [ [ +.O._.o.W k g e * *.D.K.M.$XqXY.*.x..X; @.#.-.H.6XaXgXjX",
"6XgXkXcXzXzX0XlXcXcXkXcXB.w.y.0.%.k.V [ [ [ [ / W Z z l c m m m m K I ^ o.O.o.{ O._.A d w +X8XaX2Xx..XsXK.6.h.> ;.#.*.H.5X+XqXgX",
"zXjXcXzXcXcXcX0X0XcXxXxXZ.7.y.5.l.| [ [ +.[ G c l z v m m m m m m m K U ^ ' [ O._._...A g C ].dXjXK.6.2XsXZ.#.x.K.7 #..XqX+XOXsX",
"zXkXcXcXcXcXkX>X7XcXcXxXv.8.S.(.o.[ o.'.[.x f z v m m m m m m m m M U E U K Q O._._.O.+.A g C 0XsXqX;.;.2XsXx.7 .X*.; 6.6XaXsXgX",
"jXkXzXcXcXcXkX9X9XxXcXxXg.5.6._ [ [ o.[.}.j m m m m m m m m v m K U E P K U E ^  .O.+.[ X.c d C sXsXd.o 2.hXsXd.#.*.m.7 f.6XgXaX",
"kXkXkXcXcXcXgX0X%X0XcXkXw.9 _ ` { } G x x v m m m m m m J I I J P E P K U E E Q E ( ] ( ] R l r !.2XU.+ : $XhXqXd.*.Y.M.&.x.K.6X",
"kXzXkXgXzXdX6XgX9X0XcXkX7.k.` ] `.X.x f v m m m m m m m Q O.O.L P K K P E E E E P M ) ( [ ] T s r !.M.: + m.hXjX2X2.*.Y.;.3 |.5X",
"fX8X3X8XfXdX8XdX>X9XcXtXm.` [ O.pX}.k c v m m m m m m K ^ _._.T A J P E E E E K m m M ! [ +. .A r g Y.#.. *.qXjXhX$Xd.*.;.f.@X2X",
"<X3X6X0XgXgX8XgX9X7XcXuX(.[ `.pXvXvX[.L m m m m K ^ ' { o._._. .' ' ' R P E K m m m m I ] o.O.} r w l.6.+ ;.wXjXhXhX$Xd.;.-.|.$X",
"<X%X%X&X=XdXeXfX0X7XzXtX_ ] +.[.vXpX).A m m m Y { _._._._._._._._._._.} T J b b m m m K { O.O./ l t B 3.# > 1XzXxXxXjX$X6.;.z.J.",
"=Xu.u.r.p.=X8XdXlX7XxX].] ] ] T ).).b v m m m ' O._._.o.{ _._...O._._. .R z m m m m M U ' { [ ( L p d 0 o = +XzXcXzXjXhX.X6.*.9.",
"u.u ,.r.a.i.,XeXlX9XxX].] ] / k x P b m m m M { _._. .W R _._.G } O._.O.W z m b b M U E U ) ( [ ~ s p X o - .XzXzXzXzXhXsX.Xn.&.",
"i u ,.p.r.e.P.5XlX0XuX`.] / G f h b m m m m M { _._. .W L _._.G ]  ._.O.W z m m M U E Y K I ( [ [ k a e * $ U.zXzXzXjXqXjXsX X-.",
"u r.s.i.r.e.~.5XlX9XiX] ] ] c s l v m m m m K { O._.O.W R _._.T L I Y K m v m M U E U M m Y ( [ ] Z p w * % Y.jXjXjXfX-X6XdXdXH.",
"u i.s.u.p.r.i.9XtXlXiX[ [ [ x s l b b m m m K { _._.O. .{ _._.T b m m m m m M U E P m m m J ( [ ] H a q X - T.fXgXgXfXOX|.%XkXsX",
",.~.I.i.s.e.u.9X3X0XiX[ [ / j s z b b m m M U ' O._._._._._._. .} T b v b M U E U m m m m J ~ [ [ G s q X = @XfXjXjXfX<X^.,.>XzX",
"r.a.a.~.s.p.&X0XtXlXiX( [ / j s z b m m M U E K ^  .O._._._._._._._.o.G n U E P m m m m m J ! [ / T a q X < 1XgXjXjXfX4X9X,.e.7X",
"e.>.e.u e.r.I.9X8XxXuX[ [ / j s z m b M U E K A E Q ' ' o._._._._._._...R A K m m m m m m M ! [ ( I a q X #.$XhXjXhXjXaXaX-Xt.u.",
"I.u a.,.,.u.6XfXwXkXuX[ [ [ j s l b K U E P K U E E E E ' _._.W  ._._.O.W c M m m m b m m J ( [ [ H a q X *. XgXhXjXjXgXaXaX-X=X",
"=Xt.t.t.i.,XfXeXfXkXuX] [ [ x s l M U E P M E ^ ' ' ^ Q R _._.G ~  ._.O.R z m m m m m m m Y ( [ ( Z a w 0 *.z.aXfXfXjXfXeXtXeXeX",
"2X^.=X-X,XfXsXeXkXcXuXo.[ [ Z f l P E P M U ^  ._._. .W I _._.G W O._.O.R z m m b m m m m I ( [ [ c a N 9 *.-.$XeXsXsXaXeXrXrXrX",
"R.eXfXkXsXkXfXfXxXcXxX(.] ( ! f l A U M U E ' o._._...W L _._.G X.O._.O.W z m m m b m m m I [ [ ( f r B M.Y.K.qXrXsXfXsXrXkXkXhX",
"h.;XeXjXxXkXkXfXeXkXxXW.{ [ +.x h n K U Q E Q O._._.O.' W _._.W { O._.o.R z m m m m M m Y ! [ / ! a r W.sXsXsXsXsXrXqXwXwX2X.XR.",
"8 J.8XjXxXhXkXwX#XsXxX].` +.O.W h l P E Q Q E ' O._._._._._._.O._._._.} m v m m b m W R I ( [ / c p C ].wX$X+XU.U.G.M.v.v.9.#.6 ",
", Y.rXgXkXhXhX2XR.wXgXE._ _._.[ x f A E E E P K Q  ._._._._._._._.o.W v v m m m b L [.o./ [ / W d p V A.M.6.#.< 6 #.3 7 @.< < ; ",
"* A.4XrXfXrXrX:XY.:XhXwX{.`.o.+.R h h E E P b b m m M I ' _._.T b v m m m m m m Y {.vX[.O.[ / G r w Q.f.c.6.*.2 0.5.#.6 %.< > 2 ",
"3.A.2XrXfXxXxXxXxXxXcXxXjX[.o.o._.A h c K b M b m m M U { _._.G v b m m m m m m } pXvXvX'.{ W j r S A.K..X|.|.|.1X5X+X0.@.2 *.@.",
"/.R.lXxXxXcXxXhXhXrXhXxXfXW.).O.`. .A d z b b m m J U E Q ' ' J v b m m m m m m m ..pX[.{ / Z r h yXgXgXgXgXaX$X5XsXoX%.;.f.%.3 ",
"eX8 m.C.M.v.g.g.h.7.2XhX.X*.l.`._._...Z s z b m M P E P M m m m m m m m m m m m Y ( '._./ Z s d l.x.M.*.x.*.d.C.9.D.J.&.*.z.2 &.",
"rXd.= 3.6.g.8.9.g.B.rXwX0.@.8.(._.o.[ / Z f l b P E P M m m m m m m m m m m m I ( ( +.] T j w y x.f.N.@.v.*.%.N.f.0.|.9.q.%.0.2 ",
"4X2X@ 8 0.9.%.0.v.4XtXF.$.3 5 k.(.+.[ ( ( ) x l A K m b m m m m m m m m m M ! / [ ( ] T j d N & z.f.M.*.M.n.D.J.H.S.@X|.8.-.n.2 ",
"G.jX9 > 1.g.<.9.T.gX:X5.<.4 &.4 E.'.{ ( [ [ o.} Z l z m m m m m m m M Y ! [ [ [ [ ( R f g !.A., z. XOX|.+X+X1X6X5X5X1X|.n.*.9.;.",
"z.eXD.& 3 0.9.K.4XtXg.2 <.q.7.c.6XkXiXo.{ O._. .[ ! H H H H I I I ! ~ ( [ [ [ [ ( Z f g l.eXsXf.6.$XeXsXsXgXdXfXfXgXeXH.y.-.#.$.",
"*..X4X& & 3.c.;XfX X8 4 4.y.z.L.dXzXxXuX[._.o.] ] [ ] [ [ [ / [ [ [ [ [ [ [ ] ) x a S l.A.R.hX2Xh.R.aXgXkXkXlX8X0X8X8X+Xn.&.;.@.",
"5.c.sX2., $.D.8XeX7.&.8.q.B.B.B.aXkXkXlXkXpX`.+.] [ [ [ / ] [ [ [ [ [ [ ~ R Z g C l.$X+XZ.d.2XxX#Xh.T.,X7X0X9X>X,X=X8XdXH.;.;.#.",
"K.8.4XR.7 8 oXdXL.&.8.8.g.*XF.8.4XzXtXdXkXkXzXuX{.).| +.] ] [ [ [ ~ T A D S !.:Xd.m.K.1XU.2.Z.wXfXb.3.V.%X%X%X=X6X%X3XgX+X9.5.M.",
";X9.x.sX8 3.5X;X#.<.z.5.L.T.8.0.*XkX9XlX0XkXzXzXlXY.k.:XyX/.W.Q./.yXiXyXwX3X4XgX1X6.b..X:XK.m.C.eXwXw.w.P.>X=X>X0X7X9XdX+XU.g.$X",
"aX9.*.4X.XZ.5XT.< 8.y.b.1Xc.8.q.3XgXdXdX=X9XkXkXkXB.g.wXG.Z.4Xb.K.zXzXzXsX$X1XaXeXJ.G.z.R.2Xv.2.K.rX;X7.P.tXfXfXgXfXfXeXT.:XG.R.",
"sXb.%.U.qXK.;X4X5.z.9.g.B.8.y.y.tXoXsX9X=X=X8XxXrXZ.v.T.j.eX;X7.K.gXcXzXcXsX1X$XjX1Xb.$.C.eXR.6 7 oXdXR.A.rXfXfXfXfXgXxXtX:XoX2.",
"H.*.9.z.qXM.d.wX;Xg.v.4.%.y.w.H.4X;XR.fX9X^.,XlXkXF.j.T.T.;X;Xf.R.jXcXcXcXjXaX4XzXgX1Xg.7.;XeX7.A.h.;XeXL.G.;XoX*XtXlXhXwX:Xh.> ",
"-.8.*.3 oX$X7 Y.tXT.L.v.z.z.n.8XeXZ.L.rXkX9X,X9XkXT.g.G.oX;XA.9.wXjXcXzXcXzXjX1XsXzXdX+XL.$.*X+Xh.f.v.4X4XA.T.1XwXfXwX:X:XG., = ",
"4.y.%.4 x.wX2.; eXtXoXD.J.H.*XkXfXU.qXjXzXaX,X7X9X8Xh.c.v.x.8 v.hXzXcXcXjXxXcXsXhXsXsXgX+X5.7.J. Xm.g.C.eX4XZ..X3X5XqX:XR.3.= < ",
"F.J.4 2 1.:XY.& Y.fX8Xh.3.q.OXdXgXaXgXgXzXkX8X%X=XtXL.c.7.=.3.;XzXcXjXcXcXcXcXjXhX X.XgX4Xb.1.1.;XG.1.f.+XfX+XZ.3X4X:X:Xd.#.2 = ",
"v.c.8 %.%.J.wX7 3.4XlXR.%.&.n.3XgXzXeX;XdXkXkX9X^.>X3XT.G.G.+XgXcXjXcXxXxXxXcXcX1XJ.S.4XaXOXf.9.C.*Xc.x.Z.2XrX.X*X;X:Xv., &.3.<.",
"y.5.*.5.&.z.4Xm.& G.4XrXG.0.y.J.5XgX8X.X4XzXzXlX,X^.,X8XeXaXkXkXjXcXjXcXzXxXcXxX1X X0.x.qXaXD.b.8 F..Xm.x.G.qXrXE.:XA.6 - = @.%.",
"n.5.5.$.-.%.U.2X* i G.fXeXK.y.y. XaXaX1X2X9XfXxXlX=X^.8XkXkXzXzXjXzXzXzXzXzXzXhX1Xb.@.2 C.8X-XB.#.<.L.G.x.f..XrX/.R.2.; 3 & = 4 ",
"y.8.b.1.f.&.x.qXk.* 7.qXxX;Xc.&.z.+X5XdX4XT.eXkXlX9X^.=XtXjXzXkXzXzXzXzXzXjXsX$Xc.6 = - 1 T.eXJ.c.<.7.oXK.2.M.#XR.d.; 1 <.4 2 c.",
"8.H.aXz.8.q.*.$X#X@ 8 :XgXgX-X5.&.b.1X8XsXoX3XsXxXrX=X^.,XfXjXjXjXjXzXcXjXsX.Xd.; & # % ; 8 *X2XL.c.$.C.$Xm.Y.Z.v., & 3 5.%.c.*X",
"K.aX4Xy.*.*.@.m.hX* 7 oXsXzXsXK.2 @.|.4XaX8XG.;XkXkXfX-X,X8XjXzXzXjXjXjXsXU.6 O o # &.4 , # 8 4X6XB.q.g.Y.$Xj.Z.8 , 2 <.<.7.z.:X"
};
