/* XPM */
static char *result[] = {
/* columns rows colors chars-per-pixel */
"64 64 114 2 ",
"   c #CBAA70",
".  c #C39F5F",
"X  c #C39E5E",
"o  c #CAA96F",
"O  c #CDAD75",
"+  c #CAA86E",
"@  c #CBAB71",
"#  c #C5A162",
"$  c #C4A061",
"%  c #CCAC73",
"&  c #C6A265",
"*  c #C29C5C",
"=  c #C7A568",
"-  c #CDAD74",
";  c #C7A467",
":  c #C8A569",
">  c #CCAB72",
",  c #CBAA71",
"<  c #C9A86D",
"1  c #C8A66A",
"2  c #CCAB73",
"3  c #C5A163",
"4  c #C19C5B",
"5  c #C29E5E",
"6  c #C6A264",
"7  c #CBA970",
"8  c #C4A062",
"9  c #C29D5D",
"0  c #C9A76B",
"q  c #C5A264",
"w  c #C39E5F",
"e  c #C6A365",
"r  c #CCAC74",
"t  c #C9A76C",
"y  c #CAA96E",
"u  c #CDAC74",
"i  c #C6A366",
"p  c #C19B5A",
"a  c #C09A58",
"s  c #C29D5C",
"d  c #C29E5D",
"f  c #C39F60",
"g  c #CAA86D",
"h  c #765100",
"j  c #C49F60",
"k  c #C19C5A",
"l  c #C8A66B",
"z  c #C4A162",
"x  c #C7A468",
"c  c #775200",
"v  c #785200",
"b  c #795300",
"n  c #7F5700",
"m  c #865C00",
"M  c #895E00",
"N  c #8A5F00",
"B  c #875D00",
"V  c #805800",
"C  c #785300",
"Z  c #CBA96F",
"A  c #855B00",
"S  c #8B6000",
"D  c #8D6100",
"F  c #7E5700",
"G  c #775100",
"H  c #8C6000",
"J  c #8C6100",
"K  c #7A5400",
"L  c #7E5600",
"P  c #835A00",
"I  c #CBAB72",
"U  c #875C00",
"Y  c #815800",
"T  c #845B00",
"R  c #7F5800",
"E  c #C9A76D",
"W  c #7B5500",
"Q  c #7D5600",
"!  c #815900",
"~  c #885E00",
"^  c #845A00",
"/  c #7C5500",
"(  c #7B5400",
")  c #885D00",
"_  c #845F01",
"`  c #9E7D03",
"'  c #A18003",
"]  c #856101",
"[  c #7A5500",
"{  c #C3A506",
"}  c #EBD109",
"|  c #ECD309",
" . c #CAAD07",
".. c #7E5A01",
"X. c #8E6B02",
"o. c #E5CA09",
"O. c #F6DD0A",
"+. c #E8CE09",
"@. c #957302",
"#. c #866201",
"$. c #DDC208",
"%. c #E2C708",
"&. c #8C6902",
"*. c #A78704",
"=. c #DABE08",
"-. c #AE8E04",
";. c #795400",
":. c #876401",
">. c #C19B59",
",. c #825A00",
"<. c #825900",
"1. c #855C00",
"2. c #8B5F00",
"3. c #C7A569",
/* pixels */
"  . X o O O O O O O O O O O O O O O O O O O O O O O O O O O O O O O O O O O O O O O O O O O O   + @ O O O O O O O O O O O O O O ",
"  # $ o O O O O O O O O O O O O O O O O O O O O O O O O O O O O O O O O O O O O O O O O O O % & * = - O O O O O O O O O O O O O ",
"O @ @ O O O O O O O O O O O O O O O O O O O O O O O O O O O O O O O O O O O O O O O O O O O % ; X : - O O O O O O O O O O O O O ",
"O O O O O O O O O O O O O O O O O O O O O O O O O O O O O O O O O O O O O O O O O O O O O O O > , % O O O O O O O O O O O O O O ",
"O O O O O O O O O - < 1   O O O O O O O %   , O O O O O O O O O O > > O O O O O O O O O O O O O O O O O O 2 : : % O O O O O O O ",
"O O O O O O O O O 2 3 4 : O O O O O O O 1 5 6 > O O O O O O O O 7 8 3   O O O O O O O O O O O O O O O O O 7 9 9   O O O O O O O ",
"O O O O O O O O O % ; $ 0 O O O O O O O 1 9 q > O O O O O O O O o X w   O O O O O O O O O O O O O O O O O , & e , O O O O O O O ",
"O O O O O O O O O O 2 > r O O O O O O O % 7   O O O O O O O O O r t t r O O O O O O O O O O O O O O O O O O % % O O O O O O O O ",
"O O O O O O O O O O O O O O O O O O O O O O O O O O O O O O O O O O O O O O O O O O O O O O O O O O O O O O O O O O O O O O O O ",
"O O O O O O O O O O O O O O O O O O O O O O O O O O O O O % + y O O O O O O O O O O O O O O O O O O O O O O O O O O O O O O O O ",
"O O O O O O O O O O O O O O O O O O O O O O O O O O O O u i p 5   O O O O O O O O O O % % O O O O O O O O O O O O O O   : t r O ",
"O O O O O O O O O O O O O O O O O O O O O O O O O O O O u # a s   O O O O O O O O O , & e @ O O O O O O O O O O O O O 1 4 $ > O ",
"O O O O O O O O O O O O O O O O O O O O O O O O O O O O O + i 1 O O O O O O O O O O o 9 d   O O O O O O O O O O O O O < # ; 2 O ",
"O O O O O O O O O O O O O , , - O O O O O O O O O O O O O O O O O O O O O O O O O O > : 1 % O O O O O O O O O O O O O - 2 % O O ",
"O O O O O O O O O O O O , # f + O O O O O O O O O O O O O O O O O O O O O O O O O O O O O O O O O O O O O O O O O O O O O O O O ",
"O u u O O O O O O O O O , $ X g O O O O O O O O O O O O O O O O O O O O O O O O O O O O O O O O O O O O O O O O O O O O O O O O ",
"< 3 ; r O O O O O O O O O o o u O O O O O O O O O O O h h h h h h h h h h h O O O O O O O O O O O O O O O O O O O O O O O O O O ",
"j a k o O O O O O O O O O O O O O O O O O O O O O h h h h h h h h h h h h h h h O O O O O O O O O O O O O 7 l y O O O O O O O O ",
"j a p o O O O O O O O O O O O O O O O O O % % h h h h h h h h h h h h h h h h h h h O O O O O O O O O O - ; 4 & % O O O O O O O ",
"t z i % O O O O O O O O O O O O O O O O > i h h h h h h h h h h h h h h h h h h h h h O O O O O O O O O - 1 f x % O O O O O O O ",
"O r r O O O O O O O O O O O O O O O O O @ h h h h h h h h h c v v v c h h h h h h h h h O O O O O O O O O % > % O O O O O O O O ",
"O O O O O O O O O O O O O O O O O O O O h h h h h h h b n m M N N N B V C h h h h h h h h O Z 1 g - O O O O O O O O O O O O O O ",
"O O O O O O O O O O O O O O O O O O O h h h h h h b A S D D D D D D D D N F h h h h h h h h x p q % O O O O O O O O O O O O O O ",
"O O O O O O O O O O O O O O O O O O O h h h h G V H D D D D D D D D D D D J A K h h h h h h l $ = % O O O O O O O O O O O O O O ",
"O O O O O O O O O O O O O - > > O O h h h h h L H D D D D D D D D D D D D D D H P c h h h h h > % O O O O O O O O O O O O O O O ",
"O O O O O O O O O O O O O < $ q I O h h h h K S D D D D D D H S S H D D D D D D D P h h h h h O O O O O O O O O O O O O O O O O ",
"O O O O O O O O O O O O O t 9 j @ O h h h G U D D D D D M Y K b b K T H D D D D D D R h h h h O O O O O O O O O O O O O O O O O ",
"O O O O O O O O O O O O O > t E u h h h h W H D D D D P G h h h h h G Q M D D D D D N v h h h h O O O O O O O O O O O O O O O O ",
"O O O O O O O O O O O O O O O O O h h h h ! D D D D ~ c h h h h h h h h G n H D D D D L h h h h O O O O O O O O O O O O O O O O ",
"O O O O O % > u O O O O O O O O O h h h h P D D D D n h h h h h h h h h h h P D D D D ! h h h h O O O O O O O O O O O O O O O O ",
"O O O O % x 8 t O O O O O O O O O h h h h ^ D D D D / h h h h h h h h h h h Q D D D D P h h h h % O O O O O O O O O O O O O O O ",
"O O O O 2 # 4 : O O O O O O O O O h h h h ^ D D D D / h h h h h h h h h h h / D D D D P h h h h % O O O O O O O O O O O O O O O ",
"O O O O u t :   O O O O O O O O O h h h h ^ D D D D / h h h h h h h h h h h / D D D D P h h h h O O O O O O O O O O O     O O O ",
"O O O O O O O O O O O O O O O O O h h h h ^ D D D D / h h h h h h h h h h h / D D D D P h h h h O O O O O O O O O O   $ f o O O ",
"O O O O O O O O O O O O O O O O O h h h h ^ D D D D / h h h h h h h h h h h / D D D D P h h h h O O O O O O O O O O   $ . o O O ",
"O O O O O O O O O O O O O O O O O h h h h ^ D D D D / h h h h h h h h h h h / D D D D P h h h h O O O O O O O O O O O 7 7 O O O ",
"O O O O O O O O O O O O O O O O O h h h h ^ D D D D / h h h h h h h h h h h / D D D D A h h h h O O O O O O O O O O O O O O O O ",
"O O O O O O O O O O O O O O O O O h h h h ^ D D D D / h h h h h h h h h h h ( J D D D ) G h h h O O O O O r , I O O O O O O O O ",
"O O O O O O O O O O % > % O O O O h h h h ^ D D D D Q K W Q Q Q Q Q Q Q Q Q R H D D D N c h h h O O O O O l w & > O O O O O O O ",
"O O O O O O O O O r = j 1 - O O O h h h h P D D D D S H D D D D D D D D D D D D D D D N v h h h O O O O O 1 s 3 > O O O O O O O ",
"O O O O O O O O O r & p ; u O O O h h h h F H D D D D D D D D D D D D D D D D D D D D M c h h h O O O O O > g o O O O O O O O O ",
"O O O O O O O O O O y 1 o O O O O h h h h v m D D D D D D D D D D D D D D D D D D D D P G h h h O O O O O O O O O O O O O O O O ",
"O O O O O O O O O O O O O O O O O h h h h h K N D D D D D D D D D D D D D D D D D H m b h h h h O O O O O O O O O O O O O O O O ",
"O O O O O O O O O O O O O O O O O h h h h h h V N H H N B P R F F F F F F F F F Q ( _ ` ' ] c h O O O O O O O O O O O O O O O O ",
"O O O O O O O O O O O O O O O O O h h h h h h h b ( b c h h h h h h h h h h h h h [ { } |  ...h O O O O O O O O O O O O O O O O ",
"O O O O O O O O O O O O O O O O O h h h h h h h h h h h h h h h h h h h h h h h h X.o.O.O.+.@.h > O O O O O O O O O O O O O O O ",
"O O O O O O O O O O O O O O O O O h h h h h h h h h h h h h h h h h h h h h h h h #.$.O.O.%.&.h > O O O O O O O O O O O O O O O ",
"O O O O O O O O O O O O O O O O O h h h h h h h h h h h h h h h h h h h h h h h h c *.=.$.-.;.h r O O O - r r O O O O - < l , O ",
"O O O O O O O O O O O O O O O O O h h h h h h v v C K / / / / / / / / / Q R Y Y n K C ] :.C h h O O O O < 6 1 r O O O > # 4 : O ",
"O O O O , o > O O O O O O O O O O h h h h G ! N H H J D D D D D D D D D D D D D D S V h h h h h O O O O = >.8 % O O O % i $ t O ",
"O O O % e s = O O O O O O O O O O h h h h Q D D D D D D D D D D D D D D D D D D D D S C h h h h O O O O y i l r O O O O > > r O ",
"O O O % i d : O O O O O O O O O O h h h h T D D D D D D D D D D D D D D D D D D D D D / h h h h O O O O O u - O O O O O O O O O ",
"O O O O >   % O O O O O O O O O O h h h h ,.D D D D D D D D D D D D D D D D D D D D D n h h h h O O O O O O O O O O O O O O O O ",
"O O O O O O O O O O O O O O O O O h h h h F D D D D N T ,.<.<.<.<.<.<.<.Y n ! D D D D ! h h h h O O O O O O O O O O O O O O O O ",
"O O O O O O O O O O O O O O O O O h h h h Y D D D D F h h h h h h h h h h h / D D D D P h h h h O O u , , O O O O O O O O O O O ",
"O O O O O O O O O O O O O O O O O h h h h 1.D D D D / h h h h h h h h h h h / D D D D P h h h h O O t . 3 > O O O O O O O O O O ",
"O O O O O O O O O O O O O %     O h h h c M D D D H K h h h h h h h h h h h / D D D D P h h h h O O t 9 8 > O O O O O O O O O O ",
"O O O O O O O O O O O O O l d q > h h h v 2.D D D S b h h h h h h h h h h h / D D D D P h h h h O O % y o O O O O O O O O O O O ",
"@ O O O O O O O O O O O O l 5 q > h h h K H D D D M c h h h h h h h h h h h / D D D D <.h h h h O O O O O O O O O O O O O O O O ",
"$ o O O O O O O O O O O O %   , O h h h ( D D D D B h h h h h h h h h h h h Q D D D D V h h h h O O O O O O O O O O O O O O O O ",
"X o O O O O O O O O O O O O O O O h h h / D D D D A h h h h h h h h h h h h R D D D D F h h h h O O O O O O O O O O O O O O O O ",
"< r O O O O O O O O O O O O O O O h h h / D D D D ^ h h h h h h h h h h h h T D D D D / h h h h O O O O O u 1 3.I O O O O O O O ",
"O O O O O O O O O O O O O O O O O h h h / D D D D P h h h h h h h h h h h G B D D D J K h h h h O O O O O E 4 >.; O O O O O O O ",
"O O O O O O O O O O O O O O O O O h h h / D D D D ,.h h h h h h h h h h h c ~ D D D H b h h h h O O O O O < s p ; O O O O O O O "
};
