/* XPM */
static char *result[] = {
/* columns rows colors chars-per-pixel */
"64 64 240 2 ",
"   c #000000",
".  c #070909",
"X  c #0C0C0D",
"o  c #080705",
"O  c #180808",
"+  c #0F1112",
"@  c #131314",
"#  c #171919",
"$  c #1B1C1C",
"%  c #181617",
"&  c #0F0F10",
"*  c #230101",
"=  c #2C0102",
"-  c #280B0C",
";  c #340101",
":  c #3C0101",
">  c #350B0D",
",  c #280E10",
"<  c #281816",
"1  c #37191A",
"2  c #30120F",
"3  c #1D201F",
"4  c #23211F",
"5  c #3B231E",
"6  c #1E1E21",
"7  c #201F21",
"8  c #3E1E21",
"9  c #1F2022",
"0  c #232325",
"q  c #262629",
"w  c #28272B",
"e  c #27282B",
"r  c #2A2A2D",
"t  c #312E2E",
"y  c #382726",
"u  c #38312C",
"i  c #2D2D31",
"p  c #272A32",
"a  c #312E33",
"s  c #3D2D33",
"d  c #333234",
"f  c #353439",
"g  c #3C3B3B",
"h  c #3A3536",
"j  c #293036",
"k  c #430202",
"l  c #4B0304",
"z  c #4E0509",
"x  c #480A0C",
"c  c #530305",
"v  c #5C0305",
"b  c #53050A",
"n  c #5B060A",
"m  c #55090D",
"M  c #5A0A0E",
"N  c #5F0807",
"B  c #480E13",
"V  c #560B10",
"C  c #5B0D12",
"Z  c #481517",
"A  c #5C1216",
"S  c #5E1419",
"D  c #561619",
"F  c #45100F",
"G  c #630405",
"H  c #6C0405",
"J  c #610509",
"K  c #6C070A",
"L  c #63090E",
"P  c #6C0A0D",
"I  c #720405",
"U  c #7C0404",
"Y  c #7B070A",
"T  c #730A0C",
"R  c #78080B",
"E  c #620C12",
"W  c #6A0D12",
"Q  c #760E11",
"!  c #641216",
"~  c #6C1215",
"^  c #62141B",
"/  c #6B141A",
"(  c #63191E",
")  c #6C1A1E",
"_  c #691816",
"`  c #76171A",
"'  c #661C22",
"]  c #6B1D23",
"[  c #671A24",
"{  c #721E22",
"}  c #771E25",
"|  c #462828",
" . c #46362D",
".. c #55362B",
"X. c #432C33",
"o. c #463938",
"O. c #562F2E",
"+. c #652224",
"@. c #6C2226",
"#. c #6C232A",
"$. c #6E292C",
"%. c #622E2A",
"&. c #7C2224",
"*. c #73252C",
"=. c #79252B",
"-. c #732A2E",
";. c #772529",
":. c #61382F",
">. c #742C32",
",. c #7A2D32",
"<. c #792B36",
"1. c #653835",
"2. c #753235",
"3. c #7D3135",
"4. c #7B333A",
"5. c #7D393E",
"6. c #682B36",
"7. c #501E1E",
"8. c #46433E",
"9. c #56463C",
"0. c #6A443A",
"q. c #714737",
"w. c #303D50",
"e. c #6D3A42",
"r. c #374E69",
"t. c #494747",
"y. c #574D41",
"u. c #554C4B",
"i. c #5B5248",
"p. c #595757",
"a. c #4A515F",
"s. c #674E44",
"d. c #6A5C4E",
"f. c #655649",
"g. c #685D55",
"h. c #72584D",
"j. c #6E6154",
"k. c #736354",
"l. c #7C6C5C",
"z. c #786757",
"x. c #4D5669",
"c. c #5F6068",
"v. c #676868",
"b. c #727272",
"n. c #7C7C7C",
"m. c #756C63",
"M. c #830304",
"N. c #870809",
"B. c #9C0404",
"V. c #940608",
"C. c #871719",
"Z. c #951A1B",
"A. c #9B0E11",
"S. c #A40303",
"D. c #AB0303",
"F. c #A8090B",
"G. c #B40304",
"H. c #BB0203",
"J. c #BD0709",
"K. c #AF1416",
"L. c #8F1E21",
"P. c #832629",
"I. c #872527",
"U. c #822F33",
"Y. c #83353B",
"T. c #853438",
"R. c #972D2E",
"E. c #AD2D2C",
"W. c #C40203",
"Q. c #CB0203",
"!. c #C8090B",
"~. c #D40202",
"^. c #DC0202",
"/. c #D90809",
"(. c #D40F11",
"). c #E40203",
"_. c #EB0203",
"`. c #E40A0B",
"'. c #F30102",
"]. c #C01F21",
"[. c #C23832",
"{. c #C5443B",
"}. c #863B42",
"|. c #88434A",
" X c #925146",
".X c #826A5A",
"XX c #86725E",
"oX c #847463",
"OX c #8A7665",
"+X c #8C7A69",
"@X c #917E6C",
"#X c #8A766A",
"$X c #AC7A68",
"%X c #B06552",
"&X c #C16E5F",
"*X c #97836E",
"=X c #968371",
"-X c #9B8572",
";X c #9D8A76",
":X c #978D7E",
">X c #A28E79",
",X c #A58B76",
"<X c #A6917B",
"1X c #AC957D",
"2X c #B98D76",
"3X c #C98D71",
"4X c #3D72B0",
"5X c #366294",
"6X c #4B78AE",
"7X c #7594BB",
"8X c #5E95D1",
"9X c #8A8A8A",
"0X c #838383",
"qX c #939393",
"wX c #9D9D9D",
"eX c #AD9883",
"rX c #B49D86",
"tX c #AE8381",
"yX c #BCA48C",
"uX c #B7A189",
"iX c #ACACAC",
"pX c #A5A4A4",
"aX c #B4B4B4",
"sX c #BDBDBD",
"dX c #B0AEAE",
"fX c #C79984",
"gX c #C3AB94",
"hX c #C5AC93",
"jX c #D7BDA4",
"kX c #E6B59D",
"lX c #D3C1B3",
"zX c #86ACD4",
"xX c #C4C4C4",
"cX c #CBCBCB",
"vX c #D3D3D3",
"bX c #DBDBDB",
"nX c #D4D5DB",
"mX c #E3E3E3",
"MX c #EBEBEB",
"NX c #D9E2EC",
/* pixels */
"* * * * * = * ; S.).^.D.: * * * - = l Q.~.V.; ; : : l ^ 4.S ( C z z z z z S [ #.}.] !.T b m ( +.m m b m m z m m b m M m $.A m ( ",
"* * * * * * * v ~.)._.^.I 1 | 5 Z F B.).^.H.; = v k C ,.] #.[ x z z z z ] #.4.4.>.' N.L b b b b m m m m ( m m b m m +.%.D A A %.",
"= = * * * * * M.^._._.^.R.z.l.l.OXXX[.'.).Q.c ; S.V.v z A z z l z z z V <.] ] 4.4.>.n m b m b m V V 5.$.$.A m m b m V m 2.$.A ( ",
"= = = * * * ; D.Q._./.%X;X*XOX*XeXrXeX[._.~.M.c ^.W.U l x n / ' z z V >.}.5.>.V C b b m m m A $.$.S ( +.-.V m m m m m m C m m m ",
"; = = * O * k W.Q./.[.,X;X=X+X;XuXgXyX$X(.^.S.M._.W.B.l M F.!.C.b m b z D S V m m m m b m V S >.+.( ^ #.#.V m m m m m V m C V C ",
"= = = = c c M.Q.H.K.fX1X1X=X+X<XyXhXyXuX{.^.Q.~._.W.S.l v ^.).~.S.M.v z z m m C C C F.R m $.>.[ ' +.A +.-.C m M M m A m D ! A 2.",
"= = = ; H.H.Q.H.S. XhXhXuX-XOX-X1XhXuXyX&X_.^._._.W.S.l G ).'._.^.H.Y b z ( >.<.4.[ !.R m A $.4.@.( m m m m m m C m m M @.$.( +.",
"= ; ; v ).).^.D.N.1XjXlXyX-XoXOXXX1X<XyX3X`._.^.^.W.D.k M.^._.'.).W.V.m >.' 4.2.[ #.N.J m m V V m m m M m m m C m A A A [ $.) q.",
"= = ; U _._.W.B._ uXlXjXhX*XXX*Xz.f.OX1X*X!._.Q.~.Q.D.: S.W.~.).).W.F.$.>.S <.}.>.>.C m m m m m m V ^ A @.m M M C m $.@.^ $.( $.",
"= = : S.).).W.U ( hXhXuX,X+XXX>X=Xm..X*Xf.N.).H.~.~.D.c ~.G.S.V._.W.F.E 5.4.>.] V b m m m m C [ 4.S 2.$.2.m M V M C C C -.@.' -.",
"= = : G.).).W.H ..yX1X<X=XOXz.>XeX:XrX>Xk.+.W.D.Q.^.H.V.^.G.B.G ).W.G.Y Z.Q n b m M J M m m ' 5.4.D 2.@.@.m M M A A C C ( A ^ ^ ",
"= = : H.).).H.G %.1X,X;X*XoXz.>XgXgXuX>X*X..B.S.Q.).~.W.^.D.N.v /.Q.H.G.W.S.M V M C F.Y V S #.}.5.^ 2.+.>.M M M M M A C A A ^ ^ ",
"= ; k W.).^.H.c ..;X*X*XoXXXk.=XeXyXrX<X<X2.! J G.).)._.W.S.G k W.Q.W._.^.Q.I.|.}.#.!.Q C <.[ >.$.[ 2.$.-.C V C C C C A C ^ ^ >.",
"= I M.Q.).~.G.l :.*XoX+Xl.z.k.oX>XeXeX1X;X$.! C I W._._.H.B.l : D.~.~._._.Q.K.[ 6.[ N.L M M ^ ] ] A V M m M M M C C A E $.@.] 2.",
"l ^._.^.^.~.S.l O.XXl.l.k.k.j.l.-X>X<X1X+X#.^ b l U _.^.D.M.: : V.).).)._.~.H.=.] 4.n m m m M m M M M V C M M M C C E A 6.>.] 5.",
"U _._.^.~.Q.B.: 7.z.k.k.k.d.d.l.=X;X+X.Xk.B x l l b W.~.D.H : : I _._.W._.^.Q.C.[ C m m C C M M V C A A *.C C M C C @.Y.>.>.#.|.",
"W.)._.~.W.G.M.: Z d.k.d.d.f.i.k.*X;Xl.l.f.Z A N v = x v l o O * ; ; : v = v k = - = O , | % , 5 | , O 1 o.X.- O > > O O Z 1 1 1.",
"Q.~._.~.B.v l : F d.d.d.f.i.f.k.*Xl.j.z.q.+.*.!                                                                                 ",
"W.S.^.Q.M.k : : F 0.k.f.9.y.i.j.oXoXd.k.1.^ A ^                                                                       v.g       ",
"G.H H.Q.U : ; : k 9.k.f.9.9.i.f.l.=X1X;X+.C V V                     iXv.            @ aXb.                          # cXiX      ",
"B.: M.H.G ; ; : : ..l.d.9.9.8.9.d.#XeX.Xl l k z   f # v.    # b.f   mXpXg       b.b.< cXxXt.. c.u.  O u b.u     g b.# cXpX  v.$ ",
"M.; k H k : ; : k 7.oXz.9.9.8.u y.z.,X1.l m V n $ vXxXvXb.  dXbXaX0XbXmXcX#   b.vXbXcXsXmXvXp.bXmXf 7XbXbXcX# 8.bXvXsXcXiX0XnXd ",
"c ; = ; : : ; : k 7.*Xl.k.f.9.u y o.s.D ^ { [ C 0 dXxXsXdXqXcXaXvX0XmXvXqXX 9 sXsXiXxXvXbXqXbXaXsXcXqXvXlXsXwXcXxXdXsXcXbXcXwX  ",
"; = = ; : : ; ; : 1 oXl.k.j.f.9. .> x A ! } [ [ q aXb.b.xXcXaX$ sXaXmXqX    3 sXcXwX6 cXpXp.bXd g MXqXbX# sXxXcXn.  # cXmXxX    ",
"= ; = = ; ; ; ; : 5 k.OXl.j.j.i. .k k z A A C z q xXb.b.cXxXaX@ iXaXbXqX      v.bXcXwXcXpXv.cXt h vXpXmX# cXbXxXb.  $ cXmX9X    ",
"= = = ; ; : ; ; 2 q u l.l.z.j.i.9.l k k l l z l q sXb.b.cXsXaX0 xXiXcX9X      t.t.sXxXxXqXu.vXf v.bXqXbX$ cXvXsXqX  v.cXmXmXp.  ",
"= = ; : : > 1 4 4 4 3 9.l.l.k.j.@XO.k x z V C n p xXb.b.vXn.vXvXsXf dXbXxX% 0 vXcXxXaXaXvXxXaXvXvXwXqXmX# cXiXpXsXvXcXcXsXcXcX0 ",
"= = ; ; 2 y t 4 $ 3 3 4 v.=Xl.oXdXp.y B C ! [ W + jXu w.xX# 9XbXwX. r xXdX@ X wXnXvX@ h cXiXi bXbXq v.iX@ iXn.# cXvX9XdXn.4 vXf ",
"= = > 1 d d i 4 % 3 $ $ t.pX+XeXnXc.f f | 7.[ A               @                                                                 ",
"= < t h d t t r 4 $ $ $ j aXdXxXNXc.d d d s O.Z                                                                                 ",
"2 w 0 r d t r i q 4 4 3 6 x.zX4X7Xc.a a i i f h                                                                                 ",
"y q 7 7 q r i r q q q 4 6 9 6X8X6Xa.a a i r a h                                                                                 ",
"u r 4 3 3 q r t q q 3 0 3 3 w.4X6Xw.d i r r i d f s X.[ <.4.] S b z C -.<.] ] ! l : k l l m N._.).~.R./ [ n E M E E E E / / / ^ ",
"y d 0 0 4 0 q t q 0 r r 9 9 p 5X8Xa.d d r 0 i a i w.X.#.[ <.*.V z b m V 5.<.$.z x : ; k l m T `.).~.F.E E C M E E E E E E W E / ",
"y d 0 4 0 0 q e q < 0 r e 9 0 r.8Xc.d a r w a i i f s [ V S C m b b b m [ A C l k : ; : k b J Q._.~.H.P C C C L E E E E E W / / ",
"| g q 0 0 0 q 0 e $ $ r j 0 4 i 6Xx.d d r w r p p a s x x x z z z b z b b m b b k : ; : k b m A.'.^.~.Y E n E n M E E E / / / *.",
"y o.i 9 q w q q 9 9 + e i e 0 q a.x.f j r r t r p a a D S b V V z b b b ^ ' $.@.m k k : k l V R.`.).^.F.*.C L W n L E L / } { } ",
"2 t.i $ $ 0 r r e 9 + 9 r r e 0 j w.i a a w i q w a a 1.#.] ] S z m V ( 4.[ ,.] ,.m H k : k D 3.K._.^.!.I.M M W L W [ U.<.<./ =.",
"2 i.g 4 3 0 q q 9 9 + 3 r 0 r q e p i d a w t q w w a e.[ ^ [ V z b V @.|.[ >.@.( C G : : k A }.R.'.`.~.A.E E C L E ! [ } U./ { ",
"2 t.d 0 3 0 e e q 3 + # 0 r q r e i i i a w i q w q i w.>.$.<.[ z z b b ^ -.,.4.@._ l : ; : l ) R.(._.^.!./ E J L E L W E { } U.",
", u.8.0 # 3 0 e e 9 + # 0 r d q r i i r r r i 9 q q p a b b m z z b b b b V n V M b k : ; : k b M F.'.^.Q.R L E E L L L W W W ~ ",
"O j.t.q 0 0 0 0 e 0 + @ 4 q i r e r d r r i i $ 0 q i d Z m m b c z b b C b V n b b l k ; : k z c I _.).~.B.L J L L L W K E W W ",
"- p.o.q 0 e r e 0 0 X + 9 w r d i w i r r r d $ 6 q i a | [ *.A z b z V Y.@.>.,.) M G l : ; k b n c !._.^.!.K C L L L L ~ Q W ~ ",
"O  .t.f r 9 e i w 4 X + 3 0 w i j q 0 r e r i 9 $ 0 w i X.6.*.[ b b C ] [ ^ ,.-.Y.) !.I : ; : z l z V._.).~.N.E L E K W <.}./ U.",
"* h p.f 4 9 e j o.o.@ + 6 0 0 r i i # e e r j 0 # $ w a w.6.*.[ z z b ^ ] ^ Y.] [ ( F.G k : : k k k T ).).^.G.K J L { =.W } W } ",
"* 8.p.t.t 9 e r t.tX< % $ 0 0 q r i 9 + 0 r i r @ # 0 r a | V V z b b c ^ { ,.}.,.,.K v l : : : k k c !.'.^.~.N.W W K W Q { Q ` ",
"* y j.t.e 0 4 e h tXs.% $ 7 0 0 e p q + $ w i i & % 7 w s s z z z b b b c b n n n n n c l : : ; : : l V._.).^.F.J L W L ~ ~ } U.",
"* 2 p.8.u e 0 e q t u.q q 0 0 0 q r r 3 + e r i @ & 7 q s w.X.D z b b b E M V n n b n b l : : ; ; : k G ~._.^.~.I T N.N.K K T Q ",
"* * i.t.g e 3 3 4 9 p i r i d i a i a w 7 p 9.s., % 7 q a f X.[ b b b C -.! ,.,.) L G b l : : : ; : k c G.'./.^.V.F.W.F.P P T T ",
"* O o.u.g u 0 4 0 3 9 q r j d d f a f a a f a.gX3X..% 7 6 7 s S c b C U.}.=.Y.] Y.} !.M.l k : : : : b M Z.`._.^.W./.Q.D.P Q T T ",
"* O < p.t.g 0 $ $ 0 q 9 q i p i a a f a a a 8.pXkX$X< 7 w a a Z z c n M T.{ }.} @./ D.I k l : : k : l N ` `._.)./.`.Q.G.&.&.Q ` ",
"* * - t.t.8.0 3 $ 9 q 6 e r r i p i i i p a f 9XkX3X .r 7 a a 8 c b b b ! C ! ;.] ,.I v l k : k : k b _ I.K.'.).)._.Q.J.` P.T I.",
"* * - t t.o.t 3 6 6 q 6 q p q q i w p p w i a t.3X3X .w q 0 q y c b c b n b n n n n n v c l : k k k c W =.C.'._._._.Q.!.P.&.Q I.",
"* * - u 8.g r 3 6 6 6 7 q q q q 7 w 7 a i i a a q. .r w i p q s l c c n ! C E C n n n n c c k k k k l c P Q (.'.'._.Q.W.` I.` C.",
"* * * 1 g t.i 3 6 6 6 6 7 q q q 7 p w i p a a a 4 0 0 w w i i i z b b E =.] -.=.) L J n n c l k k k l G K.].(.'.'._.~.Q.Q ` Q Y ",
"* * * O t t.g 4 6 @ 6 6 7 7 q q w w i i i i i a 0 0 w r r r i a B c M *.U.E =.{ T.{ !.V.n v v N c k l G J.'.'.'.'.'.~.Q.N.R Y Y ",
"* * * - 4 d h 4 + @ # # 6 7 q w p i p a p w a a w w w q w w w i B z c n ,.] U.{ / / J.M.L ;._ P N l c N Z.).'.'.'.'.~.~.M.R R Y ",
"* * * , 3 # e e 6 @ @ # # 6 7 7 7 7 7 7 7 7 w w w r p q w q q r Z l c c n ! &.|.U.U.N.K N W &.&.` c N G P K.'.'.'.'.~.Q.C.C.Y Y ",
"* * * - 4 @ + 0 # + + + + @ 6 6 7 7 6 $ 7 p p w 7 7 7 q q q q w B l c c c n v n M J G J n n L &._ P N G ~ T Q.'.'.'.^.~.Z.C.C.I.",
"* O * * # # X @ 9 + X + & & X X & & @ % 7 7 7 7 6 6 # 6 6 7 0 w x l l c n b c v v v n G J G G L ~ ~ ` ` ` I N.~.'.'.^.~.Z.I.N.N.",
"* * * - $ # . X X X o % O.....0.| o o X & + % 7 7 p w q 0 0 0 1 l l c M { / ) ~ ~ v v J N N J G G G G H P I H N.).'.^.~.Z.C.C.C.",
"* * * = 0 @ X X . o o o 1 1. X Xq.& X X & & + % 7 7 7 q 0 3 1 B l c c ! ) ! =.;.T.` V.I v N P G G G G H H H I T D._.).~.K.R.C.Z.",
"* * * 2 i + # X . . . . o o % | | @ + + + + @ @ % % % < < , k l l c c c @.&.) U.@.~ Q.N.G G _ C.P.Q P P P P H I Y !.).~.S.M.M.N.",
"* * * , f # $ X X X . . o o . o . & % @ % % % 6 # # < B V l l l l l c c ! / ) ~ &.@.B.I N &.U.&._ ` ~ I.C.I I H U M.!.Q.B.M.M.N."
};
