/* XPM */
static char *result[] = {
/* columns rows colors chars-per-pixel */
"64 64 213 2 ",
"   c #1E232C",
".  c #1E2A37",
"X  c #212F3E",
"o  c #2C333B",
"O  c #333A3E",
"+  c #10141E",
"@  c #243344",
"#  c #2B3B4C",
"$  c #293746",
"%  c #333C49",
"&  c #2D3E52",
"*  c #333E52",
"=  c #39434C",
"-  c #2E4154",
";  c #334153",
":  c #3A4454",
">  c #3C4956",
",  c #34465B",
"<  c #3C4B5C",
"1  c #37485B",
"2  c #3A4D61",
"3  c #3E5264",
"4  c #3E5469",
"5  c #424B55",
"6  c #424D5D",
"7  c #4B5256",
"8  c #43515D",
"9  c #4B565C",
"0  c #4C5355",
"q  c #454F61",
"w  c #445263",
"e  c #495563",
"r  c #45566A",
"t  c #44596B",
"y  c #4D5B6B",
"u  c #4B5867",
"i  c #535C65",
"p  c #515D6B",
"a  c #4A5D73",
"s  c #475B71",
"d  c #566163",
"f  c #55616D",
"g  c #5A656D",
"h  c #5E696C",
"j  c #4D6275",
"k  c #546473",
"l  c #5A6673",
"z  c #5C6975",
"x  c #566A7C",
"c  c #5C6C7B",
"v  c #556779",
"b  c #5F707E",
"n  c #606C6C",
"m  c #636D75",
"M  c #626E7B",
"N  c #64727D",
"B  c #6A757C",
"V  c #697578",
"C  c #727C7F",
"Z  c #3D937E",
"A  c #358C71",
"S  c #458C7B",
"D  c #556B80",
"F  c #5D6F82",
"G  c #5C7084",
"H  c #647483",
"J  c #6A7683",
"K  c #677986",
"L  c #6C7A86",
"P  c #637689",
"I  c #66798A",
"U  c #6C7D8B",
"Y  c #697788",
"T  c #727D86",
"R  c #727E8B",
"E  c #697E92",
"W  c #3E9B81",
"Q  c #3CA687",
"!  c #499C88",
"~  c #549C8B",
"^  c #6F808D",
"/  c #738186",
"(  c #73828D",
")  c #79848C",
"_  c #79898E",
"`  c #6D8292",
"'  c #6E879A",
"]  c #748593",
"[  c #798692",
"{  c #758895",
"}  c #7B8A95",
"|  c #758698",
" . c #768A9A",
".. c #7B8D9B",
"X. c #7D919E",
"o. c #759795",
"O. c #4BAA92",
"+. c #5BA697",
"@. c #4EAD95",
"#. c #65A79A",
"$. c #788EA1",
"%. c #7D92A1",
"&. c #5FB2A2",
"*. c #6BAEA5",
"=. c #67B6A6",
"-. c #74B7AB",
";. c #7ABCB2",
":. c #76AEA4",
">. c #76C4B6",
",. c #80898C",
"<. c #818C95",
"1. c #828E9A",
"2. c #83929D",
"3. c #89949D",
"4. c #879498",
"5. c #91959F",
"6. c #8495A2",
"7. c #8A97A2",
"8. c #8699A5",
"9. c #8B9AA5",
"0. c #849BAB",
"q. c #8B9DAA",
"w. c #909CA5",
"e. c #929FAA",
"r. c #899FB1",
"t. c #8DA1AD",
"y. c #84AFAE",
"u. c #94A3AD",
"i. c #99A5AD",
"p. c #9CA8AF",
"a. c #94A1A5",
"s. c #8DA2B2",
"d. c #8CA4B8",
"f. c #94A5B2",
"g. c #99A6B1",
"h. c #95A9B5",
"j. c #9CAAB4",
"k. c #92A7B9",
"l. c #95AABA",
"z. c #9BADBB",
"x. c #9DB1BD",
"c. c #98BABB",
"v. c #85B9B6",
"b. c #A1ADB5",
"n. c #A1AFBA",
"m. c #A3B1B6",
"M. c #A4B3BD",
"N. c #A9B5BD",
"B. c #A9BABF",
"V. c #85C7BC",
"C. c #95C3BE",
"Z. c #9DB3C2",
"A. c #97AFC2",
"S. c #A3B5C2",
"D. c #A9B7C1",
"F. c #A4B9C5",
"G. c #ABBAC4",
"H. c #A4BAC9",
"J. c #ACBDCA",
"K. c #A1B7C8",
"L. c #B1BEC5",
"P. c #B2BEC9",
"I. c #AFBFD0",
"U. c #99C8C4",
"Y. c #89C6C0",
"T. c #AEC1CD",
"R. c #A4CBCB",
"E. c #A8C8CB",
"W. c #B3C1C6",
"Q. c #B3C3CD",
"!. c #B8C5CD",
"~. c #BBC9CF",
"^. c #A5D1CE",
"/. c #AEC4D1",
"(. c #ADCED1",
"). c #B4C6D1",
"_. c #B9C6D1",
"`. c #B5CAD5",
"'. c #BBCBD5",
"]. c #BCCED9",
"[. c #B7CCDA",
"{. c #ADD3D3",
"}. c #B4D2D6",
"|. c #B9D3D7",
" X c #BDD2DC",
".X c #BADADC",
"XX c #B4D7D9",
"oX c #BEDBE1",
"OX c #C0CDD7",
"+X c #C1CFD9",
"@X c #C3D3DD",
"#X c #C8D6DE",
"$X c #C1DADF",
"%X c #C7D5DB",
"&X c #C4D6E1",
"*X c #C9D6E1",
"=X c #C5DAE3",
"-X c #CBDBE4",
";X c #CDDEE9",
":X c #D1DEE7",
">X c #D1DFE9",
",X c #CBE0E6",
"<X c #CEE1EA",
"1X c #C4E0E5",
"2X c #D2E0E7",
"3X c #D4E3EC",
"4X c #D9E6EE",
"5X c #D9E8EF",
"6X c #D6E6F0",
"7X c #D9E7F1",
"8X c #DCEAF2",
"9X c #D7E8F1",
"0X c #E0EDF5",
/* pixels */
").H.oX&XG.N M.`.t.X.|.-X-X%X%X-X-X#X*X:X:X:X4X:X#X-X%XOX].*X_.D.#X_.5.!.-X+Xg.} 3.5.T R 1.Y R p * q q q q a 1 1 r.k.r.j 2 * X | ",
"Z.H.[.=X X..u. Xl. .G.#X'.N.M.N.G.!.'.OX%X#X-X-X-X-X:X:X:X3X>X>X>X:XOX#X:X:X+Xw.M 5.w.R R R T e : q q p F F r q R E j # @ @ $ u.",
"Z.H.oX;X=X6...=Xx...j.,XG._ } 3.3.f.e.7.9.j.j.M.M.n.D.G.M._.OX'.#XOX!._.OXOX*XOX<.J g.5.H Y R p : : q l | r.q.6.D q # @ . @ q G.",
"I.A.&X=X@X..( @XF.t.f.#XM.B N ..| 6...Y R 1.( ..2.] 1.6.( i.m.u.L.g.e.n.n.g.OX>X_.[ <.5.R R R k : : 6 l r.K._.n.p * @ @ X @ R ].",
"[.r.&X=X].U L  X`.c.8.#Xp.J L } 6.e.1.R [ 0.6.r.f.7.u.q. .u.N.4.N.w.7.i.e.3.D.'.>XP.<.J 5.1.R f : : q l r.S.H.c q * $ $ X 1 h.*X",
"`.d.oX@XQ.k K /. Xh./ %Xi.( 2.7.q.f.6.Y R q.].&X@X'.].P.M.Q.Q.G.P.N.j.u.i.i.i.n.*X4XP.R 5.5.[ Y e : : l r.D.g.q s * # @ @ K J.;X",
"H.H.].&Xf.> c x.=Xh.} #Xj.} t.X.} R [ [ e.0.@X).D.T.`.'.!.=X-X-X@X&X+X@X@X&X'._.@X>X3Xn.H T p R [ p : u 6.K.A.F j * @ X 6 0.&X-X",
"oXr.k./.f 1 ^ s.=X`.Q.-Xp./ ..6.g.0.0.7.e.k.].I.B T T ( J J.u.h.2.9.} 3.9.j.M.n.P.OX*X*Xb.g R _.m f F J 0.K.A.Y H $ . $ U ).-X-X",
"}.Z.k.o.# t ` $.;X1Xj.-X9.^ 6.2.+XH.1.E k.J.].].L ..) ( ] J.g.S.u.} ( } [ ] e.T L [ ) !.*Xn.R 7.5.R D 6.A.I.A.D x * X l j.=X-X-X",
"A.H.d.1 # P %. .+XoXT.-X5.} X.8.].D.r.r.7.k.;X*XM.M.z.u.8.`.P./.h.f.7.3.7.] } T J f.[ <.#X#Xe.m I.D.1.Y k.K.R p y * p ..Q.-X-X;X",
"0.Z.x - k t.Z.6.J.&X[.-X7.a.8.` [.n.6.k.0.K.3X6X;X-X=X].).*X-X&XT.).T./.).J.z.l.l.J.f.7.P.:X%X<.l n.3.R R A.Y : q J R | ).-X;X>X",
"` ` , w X.H./.J.&X<X&X-Xa.z.t.X.+Xg.7.k.1.J.&X;X3X3X;X].`.@X-X;X X=X-X;X;X3X&X&X@X@X'.J._.:X4X'.5.[ i.k.U 6.F J N l Y ..].-X;X>X",
"j 4 , ' E.&XoX=X3X3X$X#Xf.x.q.{ ].u.$.0.q.A.H.J.3X-X@X`.P.`.+X@XJ.'.].'.@X3X2X=X@X+X'.).'.>X:X*XI.1.R i.g.Y Y J F M Y A.&X*X;X3X",
"4 4 I E.1X<X6X6X6X3X-X-Xg.h...^ ].e.R E k.k.I.J.3X@X].'.J.P.`.`.G.`.).!.].&X-X-X9.e.7.1.e.e.<.i.:XG.<.1.g.l Y J F F U K.&X;X3X>X",
"v ] F.=X6X6X9X1X<X6X>X-Xa.8.^  .+Xg.R $.n.k.-X&X>X;X*X*X].].&X].].&X&X&X#X*X-X-X6.J k i i l n R D.*XD.<.R R 5.Y Y Y R A.&X;X3X;X",
"8.F.=X3X6X9X1X.X<X6X2X2X8.} U 2.A.q.$.r.J.D.3X3X4X>X3X3X-X6X;X;X;X;X3X6X3X3X;X].D.Y e = 5 ] f.h.e.P.+Xn.R 7.D.p M R E k.[.+X;X;X",
"`.;X3X6X6X6XoX1X<X9X2X2Xa. .6.E H U ` z.&X;X6X3X3X3X3X;X'.*X;X;X;X>X4X7X7X6X>X).).R 5 * E [. X&X_.7.D.*Xg.[ 7.l c H R k.].J.].-X",
"3X<X3X6X6X6X<X1X1X9X9X5Xu.o.8.E ..| %.I.6X6X3X3X4X3X%XM.w.n._.-X;X3X3X7X7X6X>X;XI.J * E A.[.oX;X-Xg.[ I.*Xe.J 3.g.M Y S.@XI.I.&X",
"<X<X3X3X3X9X3X^.{.9X5X3X9...r.%.$.U q.-X3X;X=X2X3X3XM.T J T 3.].;X3X3X7X>X>X3X>Xu.5 r 0.K.[.[.oX*X+XH M '.*X7.n D.R i [ [.&X=X;X",
"3X<X6X6X9X9X3XXX.X3X5X3X6.] U z.S.h.-X3X3X!.G.3X4X5X%X,.L z / z.&X;X6X3X4X>X>X&X3.$ 4 ' %.K.I. X-X*X1.$ [ :X*X<.J R e.m 1.].;X+X",
"3X;X3X6X9X6X,X.XU..X5X2X1.v ( { h.D. X*X6X+X-X4X0X8X4XN._ _ m ) ].;X<X3X3X>X>X].F @ 2 E $.d.A.I.&X XZ.* e D.:X%X<.R n.w.Y 7.h.'.",
";X>X>X;X<X,X X<XXX1X5X,X<.} 8.7.q.S.-X3X8X>X3X5X0X>X4X:Xa.m g B G.&X>X2X:X3X>X).6 F ' s.d.0.$.%.A.6.r.w % 9.#X:XOX) T n.c v z.].",
"-X X`.oX=X-X].=X^.XX4X-X2.9.7...f.@X3X4X8X4X4X5X8XOXL.:XOXS 9 n j.@X;X:X:X:X>Xh.# j r.Z.A.A.A.A.d.k.A.Y @ / @X3X:XL.<.R c ..H.].",
"/.(.}..X<X-X X;X.X{.3X%X6.s. . .S.2X4X5X8X8X8X0X:Xw.w.~.4XL.9 O 7.).&X;X>X>X&X} # 2 G 0.d.%.I.I.A.I.A.| ; b '.3X:X:XP.<.F ] k.).",
"/.U.U.Y.U.=X&X;XoX{.9X@X} 0. .2.T.3X3X8X8X0X0X4Xm.} { f.%X;X<.O / M.+X*X:X>X+Xl & 4 4 D $.E K.K.r./.%.I ; p ).3X>X4X>XP.} F 2.A.",
"R.=.=.#.-.R.&X@X1X{.2X|.( ] { { '.2X3X9X8X0X8X%X8.7.] 2.z.-X%Xn d 9.P.%X;X>X_.8 - 4 4 r E E A.A.0.E.' 4 $ y G.7X4X4X>X:XD.| | ..",
":.W ! ~ &.-.(.+X,X.X3X'.U L ] 2.].3X3X8X8X8X2XM.7.z.6.6.2.!.3XL.n S m.OX-X;XQ.5 * , 2 q D D d.I.z.S.x @ @ w S.3X>X4X>X>X-XD.6.H ",
"S A ! -.+.O.C.].1X.X3X!.L ^ ..z. X3X4X8X8X5X!.t.8.m.q.8.7.u.].3Xb.h 4.L.@X*XJ.w & * 1 s D s 0.I.J.k.t # $ 2 n.3X>X4X>X+X;X-XZ.R ",
"A @.>.;.+.! V.}.,X.X<X!.L U 6.9.%X3X7X8X8X#Xu.f.x.t.2.f.0.6.f.-X:X,.V a.Q.@XJ.6 $ * 1 s P s E Z./.$.2 & $ < x.>X;X2X=XH.{.=X-Xh.",
"A -.>.*.=.@.;.[.%X1X2XW.( s.7.R =X6X8X8X3Xn.8.z...f.q.8.h.8.o.M.4X:XS C j.'.G.< @ * * r P D s $.d.a & - # w S.;X>X;X;XE.C.U.>X*X",
"O.Y.v.;.V.@.=.XX~..X,XL.U U y H -X3X8X8X'.q.S.6.%.S.H.0.9.U ^  .!.4X!.n _ G.D.> $ q a 2 a G 4 v $.2 & & @ y S.-X>X>X-X/.C.~ ^.>X",
"+.+.=.>.>.=.Y.oX$X,X3XL.J y H h.%X8X8X;Xw.g.J.t.t.&X-Xz.s.H X.%.,.%X3Xa.h 3.u.: $ r r * 3 D s l.Z.4 2 & @ k `.;X>X;X-X'.}.~ O.{.",
"~ Z O.Q O.O.v. X+X>X4XG.R ] | ..Q.4X3Xz._ x.u. .F.3XD.X.9...r.f.R i.;X:X<.i m 5 X 5 q : q E k.;X6.q r & @ H I.:X>X:X>X&X&XR.#.#.",
"V.! @.! ! *.}.#X@X:X4XL.R $.8.9._.8X%X2.6.{ %.0.=X'.t.0.s.z.q.S.0.7.G.3XOXn % 7   % 5 * u e.I.*XG D D @ # R Z.;X;X>X>X;X&X&X(.E.",
"E.#.+.#.;.(.;X@X-X2X4XL.] Y q.Q.2X2Xu.] 8.` 8.T.;Xg.t.l.0.S.z. X!.9.8.`.2XN.5 O   $ * % q 7.K.&Xr.Y E q 1 R 6.*X-X-X:X-X$X#X%X@X",
"T.B.E.E.(.-X-X@X2X3X4XN.( E f.-X3XG.....0.o.8. XT.8.s.h.t.K.I.-X'.S...q.%X:X5.O   X % $ : Y z.I.I.E F r p R U I.+X-X*X&X%X#X#X#X",
"x. X,X2X;X<X;X-X3X8X3XM.T 6.S.3X@X6.H  .t. .%.x.t.X.t.%.l./.&X+Xe.].f...N.>X#Xm   + o % 5 l n.I.I.g.1.<.e.k.g.+X*X*X-X-X-X:X-X-X",
"4.).&X2X2X2X-X-X@X2X4XM.[ z.].>Xj...H { s.$.%.8.X.8.:.t.A.&X3XS.} Q.).9.9.P.4XP.0 O h R 2.e._.*X-X*X+X%X*X*X*X*X*X@X+X+X].!.G.S.",
"C j. X>X2X2X:XOXL.#X4XN.2.'.>XQ.X.t...{ k.t.$.6...r.k.k.H.;X3Xf.j.a._.P.9.9.OX4Xb.V p.#X>X>X:X*X*X*X*X+XOXI.P.n.b.z.e.w.w.} J M ",
"d b.-X-X2X:X-X!.N.%X3XN.u.-X+X2...d.7.X.Z.z. .8.6.s.K.d.Z.].6X].S...n.+Xz.2.g.*X:X5.T b.P._.P.D.n.D.n.e.e.R Y g M J l z H k k p ",
"9 a.'.#X,X#X#X!.b.!.2X!.OX:Xz.M  .0.] 7.Z.Z.z.u.J.<XJ.A.K.D.7X<XP.1.a.D.].a.2.G.:X#XC 7 B 4.<.7.n.D.g.<.7.| ] z | ] Y M Y k k c ",
",.a.~.#X:X2X2X2X:X3X4X4X4X~.] b { ( | 8.u.S.<X6X6X6X].-X&X).6X9X=XS.2...'.).u.3.P.:XP.7 i w.2.<.e.u.u.j.D.n.S.z.Q.].J.} Y z R M ",
"L.m.:X2X3X5X2X2X-X:X2X3X#Xu.b ] ] } 6.T.-X<X=X<X6X6X9X7X7X2X;X6X6X&Xj.S.].-Xm.j.g.%X>Xp.m p.P.OX-X>X;X-X;X;X&X).].*XG.E c 1.R v ",
"%XC 5.u.u.9.2.5.3.} !.2XG.T %.U N %.Q.;X3X3X3X<X).-X9X7X7X7X=X&X X>X`.J.T.a.@Xg.7.p.*X:Xe.,.e.5.n.3.e.R 6.] } u...f.z.H [ 6.v U ",
"-X} i ( } X.....2.q.-XOX} G  .h.f.j.1X3X6X3X3X XP.P.>X7X7X7X3X].].-X-X@Xq.u.J.OXb.b.D.:X+X,.g g 7.2.r.M 9.R R q.1.} S. .$.E ] v ",
"_.~.= N { X.^ ( 9.~.-Xu.L x p z ] '.3X6X3X9X3X;Xh.J.>X7X7X7X7X>X@X).&X;XG.Z.t.Q.'.N.b.I.>XP.d 9 1.6.e.R q.8.f.z.l.r.K.Z.| ] 8.z ",
"j.2Xm g ( X.^ ..m.;X).[ ^ b K b g.=X<X3X3X6X3X<X`.+X>X6X7X7X8X7X&XJ.`.;X].x.6.h.P.P.b.g.+X:Xi.d 2.M.G.Z.J.I.).[.].[.`.Z.0.R ..H ",
"6.%Xg.7 z } ..f.|.#X2.z ^ X. .8. X3X6X3X3X3X6X3X>X3X3X-X].+X:X7X3X_.).%X&XH.u.[ b.I.b.3.n.*X*X<...).@X&X-X;X&X-X-X;X@Xl.%.E Y Y ",
"` S.'.9 i ^ 2.T.-XB.N N ` 6.%.z.=X2X3X3X3X3X3X6X6X3X XM.u.h.M.*X6X-X+X`.].].G.} 9.D.P.w.i.N.:X~.4.N.=X;X1X3X1X XoXoXoXI.6.P x H ",
"] 8.#X) f L f.$X X} U { ..t.f.t.$X3X<X<X<X3X3X6X6X,Xg.2.7.7.} G.3X6X-XP.I.&X].Z.1.9.).P.g.<.!.2XB.4.M.{.XXXXXX(.(.E. X=Xl.H F Y ",
"f...!.B.h B G.&Xj.K .. .2.T.h.{ `.3X$X=X<X<X6X3X3X!._ 2.j.f.2.7.*X3X>X].J.].-X[.1.9.h._.j.) p.OX-X9.( y.U.U.U.R.(.U.`.;XG. .[ u.",
"Q...7.*XC ( ].).L ^ %.` x.M...| T.3X}.=X1X<X<X3X<Xj.) Q.%XD.j.7.P.3X6X>X+X_.'.;X).[ 9.D.Q.g.w.u.%XOXo.o.c.^.R.^.=X(.XX&XJ.x.4.P.",
"*X..R _.D.i.].n.k ..%.q./.8.o.$.[.-X=X=XR. X<X2X;X9.3.|.b.i.`.q.g.>X3X6X;XP.).&X&Xz.h.7.N.Q.9.) p.#XQ._ c.#X;X=X-X,X-X%XD.W.j.B.",
"-X9.R n.%Xg.`.'.] 6...2.t. ...6.&XG.-X.XU.R..X2X-Xi.7.m.1.@X!.} g.>X3X7X3X*X).J.2X).q.L u.@XN.m m G.=XN.a.#X;X-X-X-X,X2X#X!.B.) ",
"k.R ..6.+Xe.,.+XQ.2.8.` ` %. .l.'.P.D.=X.XU.{.-X-Xp.3.M.M.P.Q.1.S.3X7X7X4X3X+X].6X;X).1.} Q.%X} i.3.Q. XM.j.Q.G.Q.=X,X:XOX!.3.f ",
"E | R v D.P.m b.#XM.M.7.8.%.9.].@Xu.j.-X,X.X{.|.<XS.2.z.L._.e.1.I.3X7X>X4X3X>XQ.&X6X=XJ.Z.L J.P.3.1.9.'.|.i.n.).].-X%XW.W.p.f y ",
"] X.U b 7.OX) i  X%XG.g.z.l.).;X-Xn.+X>X3X=X{.{.XX@X6.6.9.7.N 9.>X4X7X4X4X>X4X:X;X*X-X-XJ.] } z.S.w.2.u.@X'.u.S.`.].%XW.m./ y k ",
"h.z.b c ^ !.m.7 x.-X'.5.U ..K.-X;X&X-X;X2X,X XU.R..XM.2...T ( !.8X>X>X4X4X4X7X>X:XS.G.;X].9.( ( Q.j.) 1.G.;XW.i.`.~.!.L.<.L c f ",
"8.7.N U U z.OXn S %X:XN.L K 0.`.;X3X@XQ.=X2X;XXXC.(.`.D.j.j.G.<X4X>X7X4X>X4X4X4X).z.f._.&XH.1. .a.T.7.7.g._.#XG.W.!.W.a.f K ] ^ ",
"%.] ^ ] K 6.'.w.0 m.OX#Xj.| 6.z.].;X@XS.].3X2X<X{.C.(.$X X%X<X<X>X7X4X>X4X4X7X>X).S.| 7.].&Xf.q.N z.S.9.7.b.+X%XB.W.p.m e y K L ",
"0.] ` L ^ L x.~.7 / j.-X@Xh.X.%.Z.&X&X`.`. X-X2X#XU.U..X2X2X3X3X:X3X3X3X>X7X4X*X).9.H c t. XT.t.L / x.x.7.2.D.#XW.N./ f z 8 y b ",
"%...q.( X.K 6.%X,.9 _ @X>X_.6.U 6.J.].=X].M.@X<X,X.XC.E.$X:X3X<X3X3X3X6X4X>X-XG.8.M p e z M.@Xx.6.U ..G.g.) e.L.m.<.i l ^ b b 3.",
"..h.&X8.] X.( W.L.= B !.<X2XJ.] U 9.`. X-XB.!.=X,X-XR.c.(.-X<X2X3X:X2X3X2X*XS.} i 8 > > i L T.`.x.6.J u.P.w.p.i.a.n 9 l [ U 7.W.",
"f.*X'.$.^ ( b 5.:Xd n D.-X2X=Xf.c H z.].@X].x.!.,X<X-XE.^. X;X3X3X>X3X3X-Xm.M $ X 3 H b l = B `.'.t.X.2.b.L.5.i.B i c ^ ^ { 8.T."
};
