/* XPM */
static char *fc20823b38194eda9bc420698e7e6a0dhQ77u81TVBJOsCEi[] = {
/* columns rows colors chars-per-pixel */
"64 64 57 1 ",
"  c #CBAA70",
". c #C39F5F",
"X c #C39E5E",
"o c #CAA96F",
"O c #CDAD75",
"+ c #CAA86E",
"@ c #CBAB71",
"# c #C5A162",
"$ c #C4A061",
"% c #CCAC73",
"& c #C6A265",
"* c #C29C5C",
"= c #C7A568",
"- c #CDAD74",
"; c #C7A467",
": c #C8A569",
"> c #CCAB72",
", c #CBAA71",
"< c #C9A86D",
"1 c #C8A66A",
"2 c #CCAB73",
"3 c #C5A163",
"4 c #C19C5B",
"5 c #C29E5E",
"6 c #C6A264",
"7 c #CBA970",
"8 c #C4A062",
"9 c #C29D5D",
"0 c #C9A76B",
"q c #C5A264",
"w c #C39E5F",
"e c #C6A365",
"r c #CCAC74",
"t c #C9A76C",
"y c #CAA96E",
"u c #CDAC74",
"i c #C6A366",
"p c #C19B5A",
"a c #C09A58",
"s c #C29D5C",
"d c #C29E5D",
"f c #C39F60",
"g c #CAA86D",
"h c #C49F60",
"j c #C19C5A",
"k c #C8A66B",
"l c #C4A162",
"z c #C7A468",
"x c #C29C5B",
"c c #CBA96F",
"v c #CBAB72",
"b c #C09A59",
"n c #C9A76D",
"m c #C19B59",
"M c #C09B59",
"N c #C7A569",
"B c #C8A56A",
/* pixels */
" .XoOOOOOOOOOOOOOOOOOOOOOOOOOOOOOOOOOOOOOOOOOOO +@OOOOOOOOOOOOOO",
" #$oOOOOOOOOOOOOOOOOOOOOOOOOOOOOOOOOOOOOOOOOOO%&*=-OOOOOOOOOOOOO",
"O@@OOOOOOOOOOOOOOOOOOOOOOOOOOOOOOOOOOOOOOOOOOO%;X:-OOOOOOOOOOOOO",
"OOOOOOOOOOOOOOOOOOOOOOOOOOOOOOOOOOOOOOOOOOOOOOO>,%OOOOOOOOOOOOOO",
"OOOOOOOOO-<1 OOOOOOO% ,OOOOOOOOOO>>OOOOOOOOOOOOOOOOOO2::%OOOOOOO",
"OOOOOOOOO234:OOOOOOO156>OOOOOOOO783 OOOOOOOOOOOOOOOOO799 OOOOOOO",
"OOOOOOOOO%;$0OOOOOOO19q>OOOOOOOOoXw OOOOOOOOOOOOOOOOO,&e,OOOOOOO",
"OOOOOOOOOO2>rOOOOOOO%7 OOOOOOOOOrttrOOOOOOOOOOOOOOOOOO%%OOOOOOOO",
"OOOOOOOOOOOOOOOOOOOOOOOOOOOOOOOOOOOOOOOOOOOOOOOOOOOOOOOOOOOOOOOO",
"OOOOOOOOOOOOOOOOOOOOOOOOOOOOO%+yOOOOOOOOOOOOOOOOOOOOOOOOOOOOOOOO",
"OOOOOOOOOOOOOOOOOOOOOOOOOOOOuip5 OOOOOOOOOO%%OOOOOOOOOOOOOO :trO",
"OOOOOOOOOOOOOOOOOOOOOOOOOOOOu#as OOOOOOOOO,&e@OOOOOOOOOOOOO14$>O",
"OOOOOOOOOOOOOOOOOOOOOOOOOOOOO+i1OOOOOOOOOOo9d OOOOOOOOOOOOO<#;2O",
"OOOOOOOOOOOOO,,-OOOOOOOOOOOOOOOOOOOOOOOOOO>:1%OOOOOOOOOOOOO-2%OO",
"OOOOOOOOOOOO,#f+OOOOOOOOOOOOOOOOOOOOOOOOOOOOOOOOOOOOOOOOOOOOOOOO",
"OuuOOOOOOOOO,$XgOOOOOOOOOOOOOOOOOOOOOOOOOOOOOOOOOOOOOOOOOOOOOOOO",
"<3;rOOOOOOOOOoouOOOOOOOOOOOOOOOOOOOOOOOOOOOOOOOOOOOOOOOOOOOOOOOO",
"hajoOOOOOOOOOOOOOOOOOOOOOOOOOOOOOOOOOOOOOOOOOOOOOOOOO7kyOOOOOOOO",
"hapoOOOOOOOOOOOOOOOOO%%OOOOOOOOOOOOOOOOOOOOOOOOOOOOO-;4&%OOOOOOO",
"tli%OOOOOOOOOOOOOOOO>i6oOOOOOOOOOOOOOOOOOOOOOOOOOOOO-1fz%OOOOOOO",
"OrrOOOOOOOOOOOOOOOOO@Xx<OOOOOOOOOOOOOOOOOOOOOOOOOOOOO%>%OOOOOOOO",
"OOOOOOOOOOOOOOOOOOOO%1=,OOOOOOOOOO>@%OOOOOOOOOc1g-OOOOOOOOOOOOOO",
"OOOOOOOOOOOOOOOOOOOOOOOOOOOOOOOOO%;w1OOOOOOOOOzpq%OOOOOOOOOOOOOO",
"OOOOOOOOOOOOOOOOOOOOOOOOOOOOOOOOO%q4=OOOOOOOOOk$=%OOOOOOOOOOOOOO",
"OOOOOOOOOOOOO->>OOOOOOOOOOOO-OOOOOot,OOOOOOOOOr>%OOOOOOOOOOOOOOO",
"OOOOOOOOOOOOO<$qvOOOOOOOOO-t$&>OOOOOOOOOOOOOOOOOOOOOOOOOOOOOOOOO",
"OOOOOOOOOOOOOt9h@OOOOOOOOOr8abiOOOOOOOOOOOOOOOOOOOOOOOOOOOOOOOOO",
"OOOOOOOOOOOOO>tnuOOOOOOOOOuimMiOOOOOOOOOO,o>OOOOOOOOOOOOOOOOOOOO",
"OOOOOOOOOOOOOOOOOOOOOOOOOOOutt2OOOOOOOOO%&9:OOOOOOOOOOOOOOOOOOOO",
"OOOOO%>uOOOOOOOOOOOOOOOOOOOOOOOOOOOOOOOO%ed1O%,>OOOOOOOOOOOOOOOO",
"OOOO%z8tOOOOOOOOOOOOOOOOOOOOOOOOOOOOOOOOO@ %uNd;%OOOOOOOOOOOOOOO",
"OOOO2#4:OOOOOOOOOOOOOOOOOOOOOOOOOOOOOOOOOOOOuzxi%OOOOOOOOOOOOOOO",
"OOOOut: OOOOOOOOOOOOOOOOOOOOOOOOOOOOOOOOOOOOO@+ OOOOOOOOOOO  OOO",
"OOOOOOOOOOOOOOOOOOOOOOOOOOOOOOOOOOOOOOOOOOOOOOOOOOOOOOOOOO $foOO",
"OOOOOOOOOOOOOOOOOOOOOOOOOOOOOOOOOOOOOOOOOOOOOOOOOOOOOOOOOO $.oOO",
"OOOOOOOOOOOOOOOOOOOOOOOOOOOOOOOOOOOOOOOOOOOOOOOOOOOOOOOOOOO77OOO",
"OOOOOOOOOOOOOOOOO>y OOOOOOOOOOOOOOOOOOOOOOOOOOOOOOOOOOOOOOOOOOOO",
"OOOOOOOOOOOOOOOOOBsq%OOOOOOOOOOOOOOOOOOOOOOOOOOOOOOOOr,vOOOOOOOO",
"OOOOOOOOOO%>%OOOO1Xe%OOOOOOOOOOOOOOOOOOOOOOOOOOOOOOOOkw&>OOOOOOO",
"OOOOOOOOOr=h1-OOO%,@OOOOOO%BN>OOOOOOOOOoorOOOOOOOOOOO1s3>OOOOOOO",
"OOOOOOOOOr&p;uOOOOOOOOOOOO,XsyOOOOOOOO@$X<OOOOOOOOOOO>goOOOOOOOO",
"OOOOOOOOOOy1oOOOOOOOOOOOOO>i& OOOOOOOO@#.<OOOOOOOOOOOOOOOOOOOOOO",
"OOOOOOOOOOOOOOOOOOOOOOOOOOO%%OOOOOOOOOO  uOOOOOOOOOOOOOOOOOOOOOO",
"OOOOOOOOOOOOOOOOOOOOOOOOOOOOOOOOOOOOOOOOOOOOOOOOOOOOOOOOOOOOOOOO",
"OOOOOOOOOOOOOOOOOOOOOOOOOOOOOOOOOOOOOOOOOOOOO->2OOOOOOOOOOOOOOOO",
"OOOOOOOOOOOOOOOOOOOOOOOOOOOOOOOOOOOOOOOOOOOOO+#i>OOOOOOOOOOOOOOO",
"OOOOOOOOOOOOOOOOOOOOOOOOOOOOOOOOOOOOOOOOOOOOO0xh>OOOOOOOOOOOOOOO",
"OOOOOOOOOOOOOOOOOOOOOOOOOOOOOOOOOOOOOOOOOOOOO,10rOOO-rrOOOO-<k,O",
"OOOOOOOOOOOOOOOOOOOOOOOOOOOOOOOOOOOOOOOOOOOOOOOOOOOO<61rOOO>#4:O",
"OOOO,o>OOOOOOOOOOOOOOOo1yOOOOOOOOOOOOOOOOOOOOOOOOOOO=m8%OOO%i$tO",
"OOO%es=OOOOOOOOOOOOOOu;p&rOOOOOOOOOOOOOOOOOOOOOOOOOOyikrOOOO>>rO",
"OOO%id:OOOOOOOOOOOOOOu1hNrOOOOOOOOOOOOOOOOOOOOOOOOOOOu-OOOOOOOOO",
"OOOO> %OOOOOOOOOOOOOOO%>%OOOOOOOOOOOOOOOOOOOOOOOOOOOOOOOOOOOOOOO",
"OOOOOOOOOOOOOOOOOOOOOOOOOOOOOOOOOOOOOOOOOOOOOOOOOOOOOOOOOOOOOOOO",
"OOOOOOOOOOOOOOOOOOOOOOOOOOOOOOOOu<<uOOOOOOOOOOOOOOu,,OOOOOOOOOOO",
"OOOOOOOOOOOOOOOOOOOOOOOOOOOOOOOO .XoOOOOOOOOOOOOOOt.3>OOOOOOOOOO",
"OOOOOOOOOOOOO%  OOOOOOOOOOOOOOOO #$oOOOOOOOOOOOOOOt98>OOOOOOOOOO",
"OOOOOOOOOOOOOkdq>OOOOOOOOOOOOOOOO@@OOOOOOOOOOOOOOO%yoOOOOOOOOOOO",
"@OOOOOOOOOOOOk5q>OOOOOOOOOOOOOOOOOOOOOOOOOOOOOOOOOOOOOOOOOOOOOOO",
"$oOOOOOOOOOOO% ,OOOOOOOOOOOOOOOOOOOOOOOO>>OOOOOOOOOOOOOOOOOOOOOO",
"XoOOOOOOOOOOOOOOOOOOOOOOOOOOOOOOOOOOOOO,qq OOOOOOOOOOOOOOOOOOOOO",
"<rOOOOOOOOOOOOOOOOOO%yoOOOOOOOOOOOOOOOO X97OOOOOOOOOOu1NvOOOOOOO",
"OOOOOOOOOOOOOOOOOOOOtd$>OOOOOOOOOOOOOOO%k1%OOOOOOOOOOn4m;OOOOOOO",
"OOOOOOOOOOOOOOOOOOOOt.3>OOOOOOOOOOOOOOOOOOOOOOOOOOOOO<sp;OOOOOOO"
};
