/* XPM */
static char *d5a6c3664c7a4ad4e90a7f1db0159546eXaJYtI36d3Ubbs0[] = {
/* columns rows colors chars-per-pixel */
"64 64 246 2 ",
"   c #391E21",
".  c #352830",
"X  c #590909",
"o  c #560F12",
"O  c #491014",
"+  c #5A1315",
"@  c #6A0B09",
"#  c #750908",
"$  c #661617",
"%  c #701411",
"&  c #50311B",
"*  c #74291A",
"=  c #451B2C",
"-  c #631F25",
";  c #532F34",
":  c #692528",
">  c #792828",
",  c #722F33",
"<  c #76373A",
"1  c #664A24",
"2  c #0B1E52",
"3  c #011D58",
"4  c #111F51",
"5  c #0F275B",
"6  c #172757",
"7  c #2B2E4D",
"8  c #1C356B",
"9  c #0A2A75",
"0  c #012979",
"q  c #122E70",
"w  c #2A3671",
"e  c #463B45",
"r  c #6C374B",
"t  c #573C69",
"y  c #255167",
"u  c #364B76",
"i  c #454446",
"p  c #4C4B4D",
"a  c #4F4E51",
"s  c #564B50",
"d  c #535255",
"f  c #5F5956",
"g  c #565559",
"h  c #58565B",
"j  c #5B595D",
"k  c #7C4648",
"l  c #79445B",
"z  c #6D5355",
"x  c #68615B",
"c  c #5E5D61",
"v  c #774A68",
"b  c #605F62",
"n  c #626264",
"m  c #656569",
"M  c #6A6769",
"N  c #6B6A6C",
"B  c #706E6C",
"V  c #74706E",
"C  c #6C6C72",
"Z  c #686A79",
"A  c #706F73",
"S  c #6E717B",
"D  c #737274",
"F  c #797675",
"G  c #74747A",
"H  c #79787A",
"J  c #7B7A7C",
"K  c #890807",
"L  c #960A08",
"P  c #96120E",
"I  c #891213",
"U  c #961616",
"Y  c #A40F0C",
"T  c #A61717",
"R  c #B71915",
"E  c #9A211D",
"W  c #BA251E",
"Q  c #861D24",
"!  c #981E24",
"~  c #882527",
"^  c #982526",
"/  c #892E34",
"(  c #992D33",
")  c #87373A",
"_  c #98383C",
"`  c #A72428",
"'  c #B82629",
"]  c #AD2F33",
"[  c #A93637",
"{  c #C13735",
"}  c #B34631",
"|  c #C1423F",
" . c #8E3C42",
".. c #963D43",
"X. c #A83E43",
"o. c #BA3E43",
"O. c #99464C",
"+. c #8B504C",
"@. c #864D53",
"#. c #865759",
"$. c #955659",
"%. c #A9474A",
"&. c #B74C52",
"*. c #A8545D",
"=. c #B6575A",
"-. c #976656",
";. c #A76B55",
":. c #864C66",
">. c #8A5966",
",. c #935769",
"<. c #8E5B73",
"1. c #985B74",
"2. c #A75867",
"3. c #B75B62",
"4. c #8B6668",
"5. c #98667B",
"6. c #8C7371",
"7. c #947679",
"8. c #B8636B",
"9. c #A86777",
"0. c #B36E74",
"q. c #C34242",
"w. c #C5575B",
"e. c #CC5F65",
"r. c #C66568",
"t. c #C76C75",
"y. c #C7757B",
"u. c #D07274",
"i. c #8E8577",
"p. c #BCA16E",
"a. c #D18E50",
"s. c #D0A773",
"d. c #042E85",
"f. c #012E89",
"g. c #0A3388",
"h. c #1A3989",
"j. c #253C8A",
"k. c #16538B",
"l. c #254B99",
"z. c #345299",
"x. c #14678C",
"c. c #006691",
"v. c #337696",
"b. c #3A5CA2",
"n. c #3E60A5",
"m. c #56688E",
"M. c #7D7D82",
"N. c #757A88",
"B. c #6B7391",
"V. c #4A66A5",
"C. c #5773AD",
"Z. c #657AAD",
"A. c #807F83",
"S. c #987584",
"D. c #826C95",
"F. c #A66A85",
"G. c #A7748C",
"H. c #B17791",
"J. c #CC7E86",
"K. c #0E81B4",
"L. c #3288B3",
"P. c #7F828A",
"I. c #7B8396",
"U. c #498DB5",
"Y. c #7C89A4",
"T. c #0589C2",
"R. c #008CC8",
"E. c #1091C9",
"W. c #0998D7",
"Q. c #049BDC",
"!. c #159CD8",
"~. c #2D9AC8",
"^. c #30A7D9",
"/. c #009FE3",
"(. c #07A2E3",
"). c #19A8E5",
"_. c #5EB8DF",
"`. c #63B7DE",
"'. c #50B6E1",
"]. c #828285",
"[. c #85858A",
"{. c #88868A",
"}. c #8A8A8D",
"|. c #968888",
" X c #93918D",
".X c #848997",
"XX c #8C8D92",
"oX c #828A9B",
"OX c #998F91",
"+X c #8E9199",
"@X c #919195",
"#X c #989899",
"$X c #B18C8F",
"%X c #B88699",
"&X c #A69B9B",
"*X c #848EA4",
"=X c #8893A7",
"-X c #9799A4",
";X c #9790AA",
":X c #8898B6",
">X c #A69CA8",
",X c #BC95A6",
"<X c #9BA8AD",
"1X c #96A3BA",
"2X c #A2A2A4",
"3X c #A7A7AA",
"4X c #A6AAB3",
"5X c #B1AEB4",
"6X c #B5B5B6",
"7X c #BCBCBD",
"8X c #C9888C",
"9X c #D48587",
"0X c #CB8C97",
"qX c #CF9092",
"wX c #D79698",
"eX c #E1A693",
"rX c #C697A8",
"tX c #C893AB",
"yX c #D89BA7",
"uX c #CB9CB4",
"iX c #CEACAF",
"pX c #DAA4A8",
"aX c #CCA9B7",
"sX c #D5AABC",
"dX c #C6B9B9",
"fX c #E0A6AA",
"gX c #E2AEB4",
"hX c #E4B4B8",
"jX c #EDD8A4",
"kX c #99A9C2",
"lX c #A7B2C2",
"zX c #B7BAC6",
"xX c #D6B4C6",
"cX c #D8B5C5",
"vX c #E3BDC8",
"bX c #BAC4CB",
"nX c #CFCACC",
"mX c #E8C5C8",
"MX c #E4C8D6",
"NX c #EFD7D7",
"BX c #E8D5DA",
"VX c #DFE0DD",
"CX c #EBD7E2",
"ZX c #F1DEE9",
"AX c #F3E5EA",
"SX c #F6EBF1",
/* pixels */
"/./././././././././././././././././././././.(.(.Q./././././././.f.f.f.f.f.f.f.f.f.f.f.f.f.f.f.f.f.f.f.f.f.f.f.f.f.f.f.f.f.f.f.f.",
"/./././././././././././././././././././././.(.Q.(././.Q././././.f.f.f.f.f.f.f.f.f.f.f.f.f.f.f.f.f.f.f.f.f.f.f.f.f.f.f.f.f.f.f.f.",
"/././././././././././././././././././././././.R.K.K.K.K.Q./././.f.d.9 q 5 q q g.f.f.f.f.f.f.f.f.f.f.f.f.f.f.f.f.f.f.f.f.f.f.f.f.",
"/./././././././././././././././././././././.Q.L.1 & i & y T.Q./.f.q . &     1 7 g.f.f.f.f.f.f.f.f.f.f.f.f.f.f.f.f.f.f.f.f.f.f.f.",
"/././././././././././././././././././././.(.W.1 x iXjX,Xs y T./.9 . & $.iXgX#.& 7 f.f.f.f.f.f.f.f.f.f.f.f.f.f.f.f.f.f.f.f.f.f.f.",
"/././././././././././././././././././././.(.E.1 NXVXnXVXiX7 x.!.i 1 $.VXVXVXVXz 6 d.f.f.f.f.f.f.f.f.f.f.f.f.f.f.f.f.f.f.f.f.f.f.",
"/./././././././././././././././././././././.E.#.VX3Xs &XiXv m.~.b -.8XxXn |.VX7.7 f.f.f.f.f.f.f.f.f.f.f.f.f.f.f.f.f.f.f.f.f.f.f.",
"/./././././././././././././././././././././.E.;.nX$X#.0.;.O.i.s.eX9XwXi.; z dX4.q f.f.f.f.f.f.f.f.f.f.f.f.f.f.f.f.f.f.f.f.f.f.f.",
"/././././././././././././././././././.(./.L.U.s.gXfXyXe.] ] ] %.y.qX8.%. . .F.j.g.f.f.f.f.f.f.f.f.f.f.f.f.f.f.f.f.f.f.f.f.f.f.f.",
"/././././././././././././././././././.~.v.} 9XmXgXyXe.] ` ' ` ] 3.0.%.( Q Q X.t w t h.f.f.f.f.f.f.f.f.f.f.f.f.f.f.f.f.f.f.f.f.f.",
"/./././././././././././././././././.(.eXw.r.mXgXgXu.' ! ' ' ' t.gXmXwX&.` ! Q ..*.&.t 9 f.f.f.f.f.f.f.f.f.f.f.f.f.f.f.f.f.f.f.f.",
"/./././././././././././././././.(.(.(.CXAXmXhXqXqXe.o.o.' ' w.fXmXhXwXw.' ! Q Q X.t.3.7 d.f.f.f.f.f.f.f.f.f.f.f.f.f.l.l.f.f.f.f.",
"/././././././././././././././././././.CXBXSXSXBXfXmXfXJ.w.o.J.yXwX9Xe.{ ' ` ( o.3.t.t.O.7 d.f.f.f.f.f.f.f.f.f.f.d.V.xX6X:Xf.f.f.",
"/././././././././././././././././././.CX,XxXxXZXSXSXSXAXgXJ.=.o.q.{ ' ' T o.J.yXyX0X0XtXv h.f.f.f.f.f.f.f.f.f.l.Z.#X2X3X6Xl.f.f.",
"/./././././././././././.(./././././.(.CXuX5.<.S.xXCXSXSXSXsXX.T R R R Y T e.sXvXvXMXMXvX>Xl.f.f.f.f.f.f.f.f.n.3Xp.s.|.6Xz.f.f.f.",
"/./././././././././././././././././.(.bXMXS.l r <.tXMXAXSXvX2.U Y T T ! &.tXvXsXuXsXtX,XD.l.f.f.f.f.f.f.k.<X XF i.i.Z.l.f.f.f.f.",
"/././././././././././././././././././.^.CXsX$X>.v r l F.,XxXtX3.X.o.&.0.rXrXH.F.F.F.G.H.z.g.f.f.f.f.f.b.7X[.A.A.@X:Xf.f.f.f.f.f.",
"/././././././././././././././././././.(.NXBXxX%X:.r = = e v F.F.1.1.F.F.5.1.<.:.r <.D.C.h.f.f.f.f.f.V.>XA.A.].-XZ.f.f.0 0 f.f.f.",
"/./././././././././././././././././././.jXCXxXG.F.l r = = = ; ; r r :.1.<.,.:.r v S.B.h.f.f.f.f.f.:XXX[.].}.6Xb.f.f.0 3 3 0 f.f.",
"/././././././././././././././././././.(.<XMXxX%XH.G.F.F.1.1.F.:.F.F.F.1.:.r :.5.G.%Xz.f.f.f.f.l.bX-X@X}.XX1Xl.f.0 0 3 3 3 3 0 f.",
"/./././././././././././././././././././.!.%.pXMXMXxXuXuXuXuXH.F.F.H.F.2.1.G.tXaX%X .w f.f.f.C.4X+X}.[.2Xb.f.f.0 3 3 3 3 3 3 3 0 ",
"/./././././././././././././././././././.(.I ( mXZXCXvXsXuXtXF.1.1.F.H.H.tXaXcX%X, o w f.b.kX-X.X[.[.7Xl.f.0 0 3 3 3 3 3 3 3 0 f.",
"/./././././././././././././././././.(.(.!.P # / vXCXMXMXMXMXvXyXuXJ.sXvXsXaX%Xr + / D.C.bX+X.XA.}.:Xl.f.0 3 3 3 3 3 3 3 3 0 f.f.",
"/./././././././././././././././././.(.(.Q.] K X / yXMXZXZXZXZXCXMXxXsXsXrXG.*.> _ e.sX>X+X].A.2XC.f.f.0 3 3 3 3 3 3 3 0 0 f.f.f.",
"/./././././././././././././././././././.`.s.Y @ o / *.tXdXvXMXMXsXJ.H.,.: , -  .8XaX<XXX[.M.7XC.f.f.0 3 3 3 3 3 3 3 0 f.f.f.f.f.",
"/./././././././././././././././././././.a.e.e.wX0. ...9.> $ % % ( 1.- O o o $ t.6X+XXXA.}.:Xb.f.0 0 3 3 3 3 3 3 3 0 f.f.f.f.f.f.",
"/./././././././././././././././././././.a.W e.BXyXt.J.3.I # # @ Q / + o o @ 2.7X#X}.M.>XZ.f.f.0 3 3 3 3 3 3 3 3 0 f.f.f.f.f.f.f.",
"/././././././././././././././.(./.(.(.Q.!.| ' wXyXt.3.=.] P P ^ O. .....Q ..6X|. X[.6XC.f.0 0 3 3 3 3 3 3 3 0 0 f.f.f.f.f.f.f.f.",
"/./././././././././././././.(.(.).).).`.nX5X3X<X4XlXzX,X,X$X8X8X8X*./ Q I 8.F D H dXyXj.0 3 3 3 3 3 3 3 3 0 f.f.f.f.f.f.f.f.f.f.",
"/././././././././././.(.(.(.)._.3XA c m C N m B.D.*X:X<X-X&X#X}.#XnX0.$...,Xx M F qX8Xw 3 3 3 3 3 3 3 3 0 f.f.f.f.f.f.f.f.f.f.f.",
"/././././././././././.(.'.6X@XH j d g n N C Z N.oX:X1X1X<X#XXXA.F A F &X$.&Xf x -X .9.6 3 3 3 3 3 3 0 0 f.f.f.f.f.f.f.f.f.f.f.f.",
"/././././././././.)._.3XXXXX{.H n d g n C S B.I.Y.:XlXkX<X#X+XA.G A N B N N f x $.+ @.6 3 3 3 3 3 0 f.f.f.f.f.f.f.f.f.f.f.f.f.f.",
"f.f.f.f.f.f.f.f.z.2X}.{.}.}.}.].m c c m G N.N.Y.:XkXlXlX3X-X+X6.F G C n B N n i.@.k s x.c.c.c.c.R./././././././././././././././.",
"f.f.f.f.f.f.f.lX@Xi.P.{.@X@X@X}.S c c N G N.I.*X:XkXzXzX4X-X+X].J F A M p j B P.6.>.s k.c.c.R.R././././././././././././././././.",
"f.f.f.f.f.n.6XH H J ].}.@X@X@X+XA.M b A N..XoX*X:X4XzXbX6X<X X].J H D N M a d n 3Xk e c.c.R././././././././././././././././././.",
"f.f.f.f.b.7XV B D M.].}.+X@X#X@XXXG S G M.A.I..X=X=X-X4X3X2X@X{.6.J D n j b n h b z . y T./././././././././././././././././././.",
"f.f.f.f.C.F M N H M.].XX@X@X+X@XXXM.S S S N.N.N.[..XXX}.}.XXXX}.].H F B n M b g j 7.. K././././././././././././././././././././.",
"f.f.f.l.#Xf x M B J P.}.@X+X@XP.S C C Z Z S N.I.+XXXXX[.[.{.{.].].].H V B n j d d &X7 K././././././././././././././././././././.",
"f.f.f.V.M d c m C D M.}.}.P.C Z C C Z S N.N.N..XoXXXXX}.{.[.{.].J H H V M x g d d OXu W././././././././././././././././././././.",
"f.f.f.1Xd a g c N D J J A m b m N A G G N.N.N.P..XXXXX}.}.{.{.].M.H G D n j d a n F v.Q././././././././././././././././././././.",
"f.f.f.7Xp p a j m C A N c j c m C D G G J N.N.N.oXXX{.[.[.[.].].M.H D D n g d a #X4.L.(././././././././././././././././././././.",
"f.f.f.1Xa i p g c N M c g g c c N C G G G N.N.N.[.].M.M.M.[.[.].M.H G D n d a M &X#.x.R././././././././././././././././././././.",
"f.f.f.C.M i i a j n n j g g g c m C S C C G m Z N.G H J M.A.[.[.M.G J G n a j xX|.k y W././././././././././././././././././././.",
"f.f.f.n.5Xi i p d j b j g d g g b N N Z A G N.S M.M.M.J M.M.{.[.M.N.J J b b -Xi.4.: 7 T././././././././././././././././././././.",
"f.f.f.0 Z G i i p d j c j j j c m C A G J }.*XoXoXI.].P.P.].XXP.M.M.P.H N <X+.< < $ X u W./././././././././././././././././././.",
"f.f.f.0 3 I.F i i p c n b c b m C D M.[.XX+X*XoXoXoX.X[.}.@XXXP.P.P.P.P.3X#.: k , + O , E./././././././././././././././././././.",
"f.f.f.0 3 3 =X].d p g m m n m N G M.{.XX+X=X*X*XoXoXI.+X@X@XXXP.P.-X-X@X#.* k 6.#., - O.U.Q.(./././././././././././././././././.",
"f.f.f.0 3 3 3 I.2XG C b N C D G M.[.+X+X-X;X=X*X*X*X=XoX+XoX=XI.I.P.5X+.< 4.4.k @.< , 8.;X!././././././././././././././././././.",
"f.f.f.0 3 3 3 3 m.4XH P.@X@X[.M.}.XX+X+X=X:X*X*X*X*X:X:X*XP.S m {.dX9., #.i.4., , r =.9XqX!././././././././././././././././././.",
"f.f.f.0 3 3 3 3 3 u B.&Xc m P.#X3X5XzXzXlX1X1X*XI.N.B n n j G nX2X6.< * > k k k - : 8.wXwX!././././././././././././././././././.",
"f.f.f.0 3 3 3 3 3 3 3 z.B.4XJ m h h j j j j h h f b n D OXnXOX7.4.) % % # % $ * + ~ ( %.8.N././././././././././././././././././.",
"f.f.f.f.0 3 3 3 3 3 3 3 3 8 8 I.5X+XM.G N M N D ].#X7X$.> $ > < < $ @ X X X X o ..3.&.^ ^ _ W.(././././././././././././././././.",
"f.f.f.f.f.0 3 3 3 3 3 3 3 3 3 3 8 8 8 8 w w a ) $./ ~ # @ @ $ k z < : + o X O _ u.u.u.y.^ E !.(././././././././././././././././.",
"f.f.f.f.f.f.0 3 3 3 3 3 3 3 3 3 3 3 3 3 3 3 2 * 4.> @ # @ o , 4.4.7.4.< + + O.y.J.wXfXfX=.U ;.(././././././././././././././././.",
"f.f.f.f.f.f.f.0 3 3 3 3 3 3 3 3 3 3 3 3 3 3 4 +.i.6.+.* @ : 4.A.7.7.6.$.< [ J.fXgXmXmXhX=.I } W././././././././././././././././.",
"f.f.f.f.f.f.f.f.0 3 3 3 3 3 3 3 3 3 3 3 3 3 6 i.OX|.7.4.k #.7.4.4.7.7.#.] { { wXNXNXNXfX` I ^ /././././././././././././././././.",
"f.f.f.f.f.f.f.f.f.0 3 3 3 3 3 3 3 3 3 3 3 3 4 J OXOX|.4./ ) 4.7.S.|.8X%.W R R { 9XmXNXr.W I U ;././././././././././././././././.",
"f.f.f.f.f.f.f.f.f.f.0 0 3 3 3 3 3 3 3 3 3 3 3 8 |.|.-.> % # * #.iXiXu.{ W R R R R o.y.W Y L ^ %././././././././././././././././.",
"f.f.f.f.f.f.f.f.f.f.f.f.0 0 3 3 3 3 3 3 3 3 2 * @.#.% # @ @ K L ] X.T P Y Y Y L L K &.^ L # @ # $.(././././././././././././././.",
"f.f.f.f.f.f.f.f.f.f.f.f.f.f.0 0 0 3 3 3 3 3 2 @ X $ X X K # L K P %.` P K K K K @ X.8Xy.^ X X O K.(././././././././././././././.",
"f.f.f.f.f.f.f.f.f.f.f.f.f.f.f.f.f.0 0 0 0 0 9 0 0 0 0 0 f.f.f.f././././.Q./././././././././././.Q./././././././././././././././.",
"f.f.f.f.f.f.f.f.f.f.f.f.f.f.f.f.f.f.f.f.f.f.f.f.d.d.f.f.f.f.f.f././././.Q.(././././././././././.(./././././././././././././././.",
"f.f.f.f.f.f.f.f.f.f.f.f.f.f.f.f.f.f.f.f.f.f.f.f.f.f.f.f.f.f.f.f././././././././././././././././././././././././././././././././.",
"f.f.f.f.f.f.f.f.f.f.f.f.f.f.f.f.f.f.f.f.f.f.f.f.f.f.f.f.f.f.f.f././././././././././././././././././././././././././././././././."
};
