/* XPM */
static char *be18e217df9b446e9eeb389666a91547pYzIU9ngaWrf300Z[] = {
/* columns rows colors chars-per-pixel */
"64 64 215 2 ",
"   c #011D58",
".  c #1E366A",
"X  c #012979",
"o  c #233B6F",
"O  c #403E41",
"+  c #344B79",
"@  c #4D4B4D",
"#  c #444345",
"$  c #4F4E51",
"%  c #514F52",
"&  c #545255",
"*  c #58575A",
"=  c #5C5B5D",
"-  c #595658",
";  c #504F4E",
":  c #625D56",
">  c #6F5C42",
",  c #686359",
"<  c #766A57",
"1  c #5D5C61",
"2  c #615F61",
"3  c #626162",
"4  c #65656A",
"5  c #6B6A6B",
"6  c #6B6866",
"7  c #716E68",
"8  c #74716E",
"9  c #7B7765",
"0  c #6D6C71",
"q  c #686A78",
"w  c #716F72",
"e  c #747374",
"r  c #797675",
"t  c #7B7A7B",
"y  c #7A7777",
"u  c #6F717B",
"i  c #9B782C",
"p  c #977835",
"a  c #956C32",
"s  c #B07229",
"d  c #A37730",
"f  c #A77629",
"g  c #92794E",
"h  c #817C6B",
"j  c #807F7E",
"k  c #9D823E",
"l  c #AA852B",
"z  c #B8952C",
"x  c #AA8336",
"c  c #B88739",
"v  c #BB9735",
"b  c #BC832E",
"n  c #C59433",
"m  c #C9A738",
"M  c #D3A83A",
"N  c #D8B73A",
"B  c #CDA82E",
"V  c #978858",
"C  c #AB9345",
"Z  c #B89848",
"A  c #A88C54",
"S  c #AA9657",
"D  c #AE8C4A",
"F  c #BFA449",
"G  c #BCA558",
"H  c #938766",
"J  c #878578",
"K  c #9D9778",
"L  c #8C8777",
"P  c #A89769",
"I  c #BAA66A",
"U  c #B9A876",
"Y  c #ACA777",
"T  c #C49644",
"R  c #C69E5B",
"E  c #C9A548",
"W  c #D5AB47",
"Q  c #CCB147",
"!  c #D9B649",
"~  c #C6A955",
"^  c #D4AE5A",
"/  c #CDB656",
"(  c #D6B454",
")  c #D8B95A",
"_  c #C7A968",
"`  c #D4AA68",
"'  c #CAB467",
"]  c #D7B868",
"[  c #C1AC7A",
"{  c #CAB678",
"}  c #D5BB78",
"|  c #E0BF65",
" . c #DCC655",
".. c #DEC54E",
"X. c #E4CA58",
"o. c #EED158",
"O. c #D9C569",
"+. c #DAC679",
"@. c #CCC37F",
"#. c #E6CB68",
"$. c #EAD469",
"%. c #F2D469",
"&. c #E6CB75",
"*. c #E9D576",
"=. c #F2DC78",
"-. c #012E89",
";. c #103681",
":. c #1E4696",
">. c #164093",
",. c #234A99",
"<. c #264C9A",
"1. c #32559E",
"2. c #2B519C",
"3. c #006691",
"4. c #1C779D",
"5. c #2A7C9F",
"6. c #3B5DA3",
"7. c #365AA1",
"8. c #3E60A5",
"9. c #287DA1",
"0. c #435783",
"q. c #53658B",
"w. c #526896",
"e. c #7E7E81",
"r. c #727787",
"t. c #67718B",
"y. c #4666A6",
"u. c #5572AC",
"i. c #657FB2",
"p. c #677FAC",
"a. c #807F83",
"s. c #3585A7",
"d. c #78829B",
"f. c #4E92AE",
"g. c #4389A7",
"h. c #7385AB",
"j. c #71A2B8",
"k. c #008CC9",
"l. c #009FE3",
"z. c #0DA4E4",
"x. c #19A8E5",
"c. c #30AFE6",
"v. c #5EB8DF",
"b. c #7ABDDC",
"n. c #65B9DD",
"m. c #51B7E1",
"M. c #828184",
"N. c #868589",
"B. c #8B8A8D",
"V. c #878787",
"C. c #918E8B",
"Z. c #959489",
"A. c #8C8D93",
"S. c #898E9A",
"D. c #8D919A",
"F. c #929293",
"G. c #9C9B9B",
"H. c #999897",
"J. c #A19B98",
"K. c #BBB58D",
"L. c #A8A89C",
"P. c #B2AD92",
"I. c #9C9CA2",
"U. c #969BA8",
"Y. c #8797B7",
"T. c #8590A7",
"R. c #A09EA0",
"E. c #9EA2AD",
"W. c #96A3BB",
"Q. c #93B1BF",
"!. c #A3A3A4",
"~. c #A7A8A9",
"^. c #A7ABB3",
"/. c #A9B0BE",
"(. c #B4B4B5",
"). c #BCBCBC",
"_. c #B8B9B9",
"`. c #B4B1AC",
"'. c #C4BA8B",
"]. c #C9B987",
"[. c #D3BC83",
"{. c #D6BE87",
"}. c #CDBC91",
"|. c #C0BDB8",
" X c #D9C488",
".X c #CAC399",
"XX c #D8C996",
"oX c #DFD49A",
"OX c #E2CA89",
"+X c #EBD989",
"@X c #E2CC93",
"#X c #E8D898",
"$X c #F0DE83",
"%X c #EFE196",
"&X c #F1E494",
"*X c #F3E583",
"=X c #C7C4A8",
"-X c #DAD3A7",
";X c #C9C8B2",
":X c #DDDABF",
">X c #D4CDAE",
",X c #E1D6AD",
"<X c #E9DAA6",
"1X c #E4DDBC",
"2X c #E6DCB2",
"3X c #ECE2AD",
"4X c #F4E7A5",
"5X c #EBE4B5",
"6X c #97A7C2",
"7X c #87BFD9",
"8X c #AEB8C5",
"9X c #BDC2C7",
"0X c #C1C2C4",
"qX c #DEDBC3",
"wX c #E2DFC1",
/* pixels */
"l.l.l.l.l.l.l.l.l.l.l.l.l.l.l.l.l.l.l.l.l.l.l.l.l.l.l.l.l.l.l.l.-.-.-.-.-.-.-.-.-.-.-.-.-.-.-.-.-.-.-.-.-.-.-.-.-.-.-.-.-.-.-.-.",
"l.l.l.l.l.l.l.l.l.l.l.l.l.l.l.l.l.l.l.l.l.l.l.l.l.l.l.l.l.l.l.l.-.-.-.-.-.-.-.-.-.-.-.-.-.-.-.-.-.-.-.-.-.-.-.-.-.-.-.-.-.-.-.-.",
"l.l.l.l.l.l.l.l.l.l.l.l.l.l.l.l.l.l.l.l.l.l.l.l.l.l.l.l.l.l.l.l.-.-.-.-.-.-.-.-.-.-.-.-.-.-.-.-.-.-.-.-.-.-.-.-.-.-.-.-.-.-.-.-.",
"l.l.l.l.l.l.l.l.l.l.l.l.l.l.l.l.l.l.l.l.l.l.l.l.l.l.l.l.l.l.l.l.-.-.-.-.-.-.-.-.-.-.-.-.-.-.-.-.-.-.-.-.-.-.-.-.-.-.-.-.-.-.-.-.",
"l.l.l.l.l.l.l.l.l.l.l.l.l.l.l.l.l.l.l.l.l.l.l.l.l.l.l.l.l.l.l.l.-.-.-.-.-.-.-.-.-.-.-.-.-.-.-.-.-.-.-.-.-.-.-.-.-.-.-.-.-.-.-.-.",
"l.l.l.l.l.l.l.l.l.l.l.l.l.l.l.l.l.l.l.l.l.l.l.l.l.l.l.l.l.l.l.l.-.-.-.-.-.-.-.-.-.-.-.-.-.-.-.-.-.-.-.-.-.-.-.-.-.-.-.-.-.-.-.-.",
"l.l.l.l.l.l.l.l.l.l.l.l.l.l.l.l.l.l.l.l.l.l.l.l.l.l.l.l.l.l.l.l.-.-.-.-.-.-.-.-.-.-.-.-.-.-.-.-.-.-.-.-.-.-.-.-.-.-.-.-.-.-.-.-.",
"l.l.l.l.l.l.l.l.l.l.l.l.l.l.l.l.l.l.l.l.l.l.l.l.l.l.l.l.l.l.l.l.-.-.-.-.-.-.-.-.-.-.-.-.-.-.-.-.-.-.-.-.-.-.-.-.-.-.-.-.-.-.-.-.",
"l.l.l.l.l.l.l.l.l.l.l.l.l.l.l.l.l.l.l.l.l.l.l.l.l.l.l.l.l.l.l.l.-.-.-.-.-.-.-.-.-.-.-.-.-.-.-.-.-.-.-.-.-.-.-.-.-.-.-.-.-.-.-.-.",
"l.l.l.l.l.l.l.l.l.l.l.l.l.l.l.l.l.l.l.l.l.l.l.l.l.l.l.l.l.l.l.l.-.-.-.-.-.-.-.-.-.-.-.-.-.-.-.-.-.-.-.-.-.-.-.-.-.-.-.-.-.-.-.-.",
"l.l.l.l.l.l.l.l.l.l.l.l.l.l.l.l.l.l.l.l.l.l.l.l.l.l.l.l.l.l.l.l.-.-.-.-.-.-.-.-.-.-.-.-.-.-.-.-.-.-.-.-.-.-.-.-.-.-.-.-.-.-.-.-.",
"l.l.l.l.l.l.l.l.l.l.l.l.l.l.l.l.l.l.l.l.l.l.l.l.l.l.l.l.l.l.l.l.-.-.-.-.-.-.-.-.-.-.-.-.-.-.-.-.-.-.-.-.-.-.-.-.-.-.,.<.-.-.-.-.",
"l.l.l.l.l.l.l.l.l.l.l.l.l.l.l.l.l.l.l.l.l.l.l.l.l.l.l.l.l.l.l.l.-.-.-.-.-.-.-.-.-.-.-.-.-.-.-.-.-.-.-.-.-.-.-.-.-.y.|.(.Y.-.-.-.",
"l.l.l.l.l.l.l.l.l.l.l.l.l.l.l.l.l.l.l.l.l.l.l.l.l.l.l.l.l.l.l.l.-.-.-.-.-.-.-.-.-.-.-.-.-.-.-.-.-.-.-.-.-.-.-.2.p.H.!.!._.2.-.-.",
"l.l.l.l.l.l.l.l.l.l.l.l.l.l.l.l.l.l.l.l.l.l.l.l.l.l.l.l.l.l.l.l.-.-.-.-.-.-.-.-.-.-.-.-.-.-.-.-.-.-.-.-.-.-.6.`.I _ C.(.1.-.-.-.",
"l.l.l.l.l.l.l.l.l.l.l.l.l.l.l.l.l.l.l.l.l.l.l.l.l.l.l.l.l.l.l.l.-.-.-.-.-.-.-.-.-.-.-.-.-.-.-.-.-.-.-.-.,.W.B.a.V.g h.:.-.-.-.-.",
"l.l.l.l.l.l.l.l.l.l.l.l.l.l.l.l.l.l.l.l.l.l.l.l.l.l.l.l.l.l.l.l.-.-.-.-.-.-.-.-.-.-.-.-.-.-.-.-.-.-.-.7.).N.a.a.H.Y.-.-.-.-.-.-.",
"l.l.l.l.l.l.l.l.l.l.l.l.l.l.l.l.l.l.l.l.l.l.l.l.l.l.l.l.l.l.l.l.-.-.-.-.-.-.-.-.-.-.-.-.-.-.-.-.-.-.8.!.a.a.a.R.i.-.-.X X -.-.-.",
"l.l.l.l.l.l.l.l.l.l.l.l.l.l.l.l.l.l.l.l.l.l.l.l.l.l.l.l.l.l.l.l.-.-.-.-.-.-.-.-.-.-.-.-.-.-.-.-.-.Y.F.a.a.N.).7.-.-.X     X -.-.",
"l.l.l.l.l.l.l.l.l.l.l.l.l.l.l.l.l.l.l.l.l.l.l.l.l.l.l.l.l.l.l.l.-.-.-.-.-.-.-.-.-.-.-.-.-.-.-.,.8XR.F.A.A.W.<.-.X X         X -.",
"l.l.l.l.l.l.l.l.l.l.l.l.l.l.l.l.l.l.l.l.l.l.l.l.l.l.l.l.l.l.l.l.-.-.-.-.-.-.-.-.-.-.-.-.-.-.u.^.D.A.a.!.6.-.-.X               X ",
"l.l.l.l.l.l.l.l.l.l.l.l.l.l.l.l.l.l.l.l.l.l.l.l.l.l.l.l.l.l.l.l.-.-.-.-.-.-.-.-.-.-.-.-.8.6XU.S.N.N.).,.-.X X               X -.",
"l.l.l.l.l.l.l.l.l.l.l.l.l.l.l.l.l.l.l.l.l.l.l.l.l.l.l.l.l.l.l.l.-.-.-.-.-.-.-.-.-.-.-.y.9XD.A.a.F.Y.,.-.X                 X -.-.",
"l.l.l.l.l.l.l.l.l.l.l.l.l.l.l.l.l.l.l.l.l.l.l.l.l.l.l.l.l.l.l.l.-.-.-.-.-.-.-.-.-.-.i.^.D.a.a.!.u.-.-.X               X X -.-.-.",
"l.l.l.l.l.l.l.l.l.l.l.l.l.l.l.l.l.l.l.l.l.l.l.l.l.l.l.l.l.l.l.l.-.-.-.-.-.-.-.-.,.W.U.S.a.a._.u.-.-.X               X -.-.-.-.-.",
"l.l.l.l.l.l.l.l.l.l.l.l.l.l.l.l.l.l.l.l.l.l.l.l.l.l.l.l.l.l.l.l.-.-.-.-.-.-.-.,.).D.A.a.N.Y.8.-.X X               X -.-.-.-.-.-.",
"l.l.l.l.l.l.l.l.l.l.l.l.l.l.l.l.l.l.l.l.l.l.l.l.l.l.l.l.l.l.l.l.-.-.-.-.-.-.<.|.J.N.a.~.i.-.-.X                 X -.-.-.-.-.-.-.",
"l.l.l.l.l.l.l.l.l.l.l.l.l.l.l.l.l.l.l.l.l.z.z.z.z.z.l.l.l.l.l.z.-.-.-.-.-.:._.C.F.a.(.8.-.X X               X X -.-.-.-.-.-.-.-.",
"l.l.l.l.l.l.l.l.l.l.l.l.l.l.z.l.x.x.x.n.9X(.~.!.^.8X8Xb.7Xb.m.c.:.-.-.-.-.7.h w t ).6.-.X                 X -.-.-.-.-.-.-.-.-.-.",
"l.l.l.l.l.l.l.l.l.l.l.l.l.z.x.v.~.w 1 4 0 q q t.d.d.W.E.U.I.G.B.J.0X1.:.-.W., 6 t ;.-.X                 X -.-.-.-.-.-.-.-.-.-.-.",
"l.l.l.l.l.l.l.l.l.l.l.z.m.(.F.y : & * 3 0 q q r.S.Y.W.W.U.H.D.e.e w j J.y.J.: : G.;.X               X X -.-.-.-.-.-.-.-.-.-.-.-.",
"l.l.l.l.l.l.l.l.l.x.v.~.B.B.B.t 3 & & 3 4 u r.d.h.Y./.W.E.U.F.e.u w 0 7 w 7 : 2 y.                X -.-.-.-.-.-.-.-.-.-.-.-.-.-.",
"-.-.-.-.-.-.-.-.1.L.B.V.B.B.A.V.5 = < S @.{ I H L L V.F.H.G.Z.d.j e w 2 w 2 2 a.4.3.3.3.3.3.3.3.k.l.l.l.l.l.l.l.l.l.l.l.l.l.l.l.",
"-.-.-.-.-.-.-./.C.J d.V.B.B.L Z.K K I / .. . .O. X=X;X;X;XL.J j a.e e 5 @ 2 e V.9.3.3.3.3.3.k.k.l.l.l.l.l.l.l.l.l.l.l.l.l.l.l.l.",
"-.-.-.-.-.8./.t y t e.V.h P Y '.U K.XX+X$.#.%X+XoX5XwX2X,XXXP.J.0 r w 2 6 % - 2 !.4.3.3.3.k.l.l.l.l.l.l.l.l.l.l.l.l.l.l.l.l.l.l.",
"-.-.-.-.1.|.8 8 e t r K C E ' XX{  X3X%X$.Q OXOX#X2X<X+X&.+.XX=XL.J.r 2 2 2 2 - 3 s.3.3.k.z.l.l.l.l.l.l.l.l.l.l.l.l.l.l.l.l.l.l.",
"-.-.-.-.u.e 6 5 r J K I Q N W } } @X4X&X( n ^ {. X3X4X&.! W { .XqX;XH.8 2 5 2 & - j.3.k.l.l.l.l.l.l.l.l.l.l.l.l.l.l.l.l.l.l.l.l.",
"-.-.-.,.H.= 3 6 J Y K.@.O.X.! &.OXOX#X$XW s T OX] %X&XX.m c _ '..X<XXXL 7 2 = & @ W.3.k.l.l.l.l.l.l.l.l.l.l.l.l.l.l.l.l.l.l.l.l.",
"-.-.-.y.6 & = 9 K K. X.X#X*.*.%X+X} &.&.M s T } ( #X*.W l x I { I ] ) P 9 : * % & b.k.l.l.l.l.l.l.l.l.l.l.l.l.l.l.l.l.l.l.l.l.l.",
"-.-.-.W.& @ * K.K.{ { +.#X3X5X4X*X#.~ E N &.&.E ) &.! z l Z ' .X>X` W ^ H 2 & % 2 g.k.l.l.l.l.l.l.l.l.l.l.l.l.l.l.l.l.l.l.l.l.l.",
"-.-.-.).; @ % .XK.' ` O.) XX3X&X=.#.( ( #.%X=. .! Q ~ F Z ~ { .X1X{.( W '.J @ ; H.4.k.l.l.l.l.l.l.l.l.l.l.l.l.l.l.l.l.l.l.l.l.l.",
"-.-.-.W.@ # @ @.O.!  .) }  X2X%X=.%.%.=.$X%.N M v E {  X@X@X@X.X1X,XO.) -XC.; 4 j.3.3.k.l.l.l.l.l.l.l.l.l.l.l.l.l.l.l.l.l.l.l.l.",
"-.-.-.u.7 # # @.+.+.+. X[.{ 1X&X%.o.o.o.X.X.#.=.&.G {.<X<X&X$X#XoX-XoX,XwXC.= ).4.3.3.k.l.l.l.l.l.l.l.l.l.l.l.l.l.l.l.l.l.l.l.l.",
"-.-.-.8.`.# # -X-X2X-X}.}.-X<X$.o.N B B v c ( $...' R T W ! Q O.} }.{.,XwXZ.E.s.3.3.3.k.l.l.l.l.l.l.l.l.l.l.l.l.l.l.l.l.l.l.l.l.",
"-.-.-.X q.t O P.;X1X#XOX[.#X+X&.&.^ l i f c ! N v C A Z E m v E ' { -X:XL.~.s.3.3.3.3.k.l.l.l.l.l.l.l.l.l.l.l.l.l.l.l.l.l.l.l.l.",
"-.-.-.X   d.t 3 J K.+.O.) ` &.&.#.E d p D E m z i p D ' ] Q v F / U 1X_.(.f.3.3.3.3.3.k.l.l.l.l.l.l.l.l.l.l.l.l.l.l.l.l.l.l.l.l.",
"-.-.-.X     T.V.: < A ( ! M ! %.! n f i v F z p a p Z } ] n T ~ I '.=XL.f.3.3.3.3.3.3.k.l.l.l.l.l.l.l.l.l.l.l.l.l.l.l.l.l.l.l.l.",
"-.-.-.X       d.E.e 7 V S T M ..M n l x C G S k p D I } ~ s s [ U P.L.s.3.3.3.3.3.3.3.k.l.l.l.l.l.l.l.l.l.l.l.l.l.l.l.l.l.l.l.l.",
"-.-.-.X         q.^.d.J r V C G z l l C U oX XI V P I _ D a d K Z.~.5.3.3.3.3.3.3.3.k.l.l.l.l.l.l.l.l.l.l.l.l.l.l.l.l.l.l.l.l.l.",
"-.-.-.X           + t.~.= 4 e J g D k S .X.X XI g : g g g > 6 0Xs.3.3.3.3.3.3.3.3.3.k.l.l.l.l.l.l.l.l.l.l.l.l.l.l.l.l.l.l.l.l.l.",
"-.-.-.X               + t.^.t 4 * * & & - > : : * 2 2 u F.0X0.  3.3.3.3.3.3.3.3.3.k.l.l.l.l.l.l.l.l.l.l.l.l.l.l.l.l.l.l.l.l.l.l.",
"-.-.-.-.X                 . o d.^.F.y , : , < , a.G.).q..       3.3.3.3.3.3.3.3.k.l.l.l.l.l.l.l.l.l.l.l.l.l.l.l.l.l.l.l.l.l.l.l.",
"-.-.-.-.-.X                     . . . . . + o . . . .           3.3.3.3.3.3.3.k.l.l.l.l.l.l.l.l.l.l.l.l.l.l.l.l.l.l.l.l.l.l.l.l.",
"-.-.-.-.-.-.X                                                   3.3.3.3.3.3.k.l.l.l.l.l.l.l.l.l.l.l.l.l.l.l.l.l.l.l.l.l.l.l.l.l.",
"-.-.-.-.-.-.-.X                                                 3.3.3.3.3.k.l.l.l.l.l.l.l.l.l.l.l.l.l.l.l.l.l.l.l.l.l.l.l.l.l.l.",
"-.-.-.-.-.-.-.-.X                                               3.3.3.3.k.l.l.l.l.l.l.l.l.l.l.l.l.l.l.l.l.l.l.l.l.l.l.l.l.l.l.l.",
"-.-.-.-.-.-.-.-.-.X                                             3.3.k.k.l.l.l.l.l.l.l.l.l.l.l.l.l.l.l.l.l.l.l.l.l.l.l.l.l.l.l.l.",
"-.-.-.-.-.-.-.-.-.-.X X                                         k.k.l.l.l.l.l.l.l.l.l.l.l.l.l.l.l.l.l.l.l.l.l.l.l.l.l.l.l.l.l.l.",
"-.-.-.-.-.-.-.-.-.-.-.-.X X                                 X X l.l.l.l.l.l.l.l.l.l.l.l.l.l.l.l.l.l.l.l.l.l.l.l.l.l.l.l.l.l.l.l.",
"-.-.-.-.-.-.-.-.-.-.-.-.-.-.X X X                       X X -.-.l.l.l.l.l.l.l.l.l.l.l.l.l.l.l.l.l.l.l.l.l.l.l.l.l.l.l.l.l.l.l.l.",
"-.-.-.-.-.-.-.-.-.-.-.-.-.-.-.-.-.X X X X X X X X X X X -.-.-.-.l.l.l.l.l.l.l.l.l.l.l.l.l.l.l.l.l.l.l.l.l.l.l.l.l.l.l.l.l.l.l.l.",
"-.-.-.-.-.-.-.-.-.-.-.-.-.-.-.-.-.-.-.-.-.-.-.-.-.-.-.-.-.-.-.-.l.l.l.l.l.l.l.l.l.l.l.l.l.l.l.l.l.l.l.l.l.l.l.l.l.l.l.l.l.l.l.l.",
"-.-.-.-.-.-.-.-.-.-.-.-.-.-.-.-.-.-.-.-.-.-.-.-.-.-.-.-.-.-.-.-.l.l.l.l.l.l.l.l.l.l.l.l.l.l.l.l.l.l.l.l.l.l.l.l.l.l.l.l.l.l.l.l.",
"-.-.-.-.-.-.-.-.-.-.-.-.-.-.-.-.-.-.-.-.-.-.-.-.-.-.-.-.-.-.-.-.l.l.l.l.l.l.l.l.l.l.l.l.l.l.l.l.l.l.l.l.l.l.l.l.l.l.l.l.l.l.l.l."
};
