/* XPM */
static char *a6b39ec56aba47f2d1c67d1d9823fcb1daNUHZ3zYDK0jXDY[] = {
/* columns rows colors chars-per-pixel */
"64 64 135 2 ",
"   c #458401",
".  c #498505",
"X  c #4E8609",
"o  c #50870B",
"O  c #53880D",
"+  c #578910",
"@  c #5C8B14",
"#  c #638D1B",
"$  c #6A8E1E",
"%  c #6A8F20",
"&  c #6C9023",
"*  c #719127",
"=  c #75922A",
"-  c #7A942E",
";  c #7E9531",
":  c #839635",
">  c #8E9236",
",  c #859738",
"<  c #879839",
"1  c #8B993D",
"2  c #90973D",
"3  c #8F9A40",
"4  c #949C44",
"5  c #9A9C47",
"6  c #9C9E4B",
"7  c #A19E4D",
"8  c #AD9C50",
"9  c #B49C54",
"0  c #BE9F5D",
"q  c #A4A052",
"w  c #A9A256",
"e  c #ADA35A",
"r  c #B2A55E",
"t  c #B5A661",
"y  c #B9A764",
"u  c #BAA765",
"i  c #BBA765",
"p  c #BDA665",
"a  c #B8A663",
"s  c #BCA866",
"d  c #BDA867",
"f  c #BEA868",
"g  c #BFA969",
"h  c #C09A58",
"j  c #C19B59",
"k  c #C19B5A",
"l  c #C19C5A",
"z  c #C19C5B",
"x  c #C29C5B",
"c  c #C29C5C",
"v  c #C29D5C",
"b  c #C29D5D",
"n  c #C29E5D",
"m  c #C29E5E",
"M  c #C39E5E",
"N  c #C39E5F",
"B  c #C39F5F",
"V  c #C29D5C",
"C  c #C39F60",
"Z  c #C49F60",
"A  c #C4A061",
"S  c #C4A062",
"D  c #C4A162",
"F  c #C5A162",
"G  c #C5A163",
"H  c #C5A264",
"J  c #C6A264",
"K  c #C6A265",
"L  c #C6A365",
"P  c #C6A366",
"I  c #C7A467",
"U  c #C6A265",
"Y  c #C7A468",
"T  c #C7A568",
"R  c #C7A569",
"E  c #C5A669",
"W  c #C6A76B",
"Q  c #C8A569",
"!  c #C8A56A",
"~  c #C8A66A",
"^  c #C8A66B",
"/  c #C9A76B",
"(  c #C9A76C",
")  c #C9A76D",
"_  c #C9A76C",
"`  c #C0A869",
"'  c #C0A96A",
"]  c #C1A96A",
"[  c #C1A96B",
"{  c #C2AA6B",
"}  c #C2AA6C",
"|  c #C3AA6C",
" . c #C3AA6D",
".. c #C4AA6C",
"X. c #C4AA6E",
"o. c #C5AB6E",
"O. c #C5AB6F",
"+. c #C6AB6F",
"@. c #C6AB6F",
"#. c #C8A86C",
"$. c #C9A86D",
"%. c #C8A96D",
"&. c #CAA86D",
"*. c #C9A86E",
"=. c #CAA86E",
"-. c #CAA96E",
";. c #CAA96F",
":. c #CBA96F",
">. c #C8AA6F",
",. c #C9A86D",
"<. c #C7AB70",
"1. c #C7AB70",
"2. c #CBA970",
"3. c #C8AB70",
"4. c #C8AB71",
"5. c #CBAA70",
"6. c #CBAA71",
"7. c #CBAB71",
"8. c #CBAB72",
"9. c #CCAB72",
"0. c #CCAB73",
"q. c #C9AC71",
"w. c #C9AC72",
"e. c #CAAC72",
"r. c #CAAC73",
"t. c #CBAC73",
"y. c #CCAC73",
"u. c #CBAC74",
"i. c #CCAC74",
"p. c #CDAC74",
"a. c #CCAD74",
"s. c #CDAD74",
"d. c #CCAD75",
"f. c #CDAD75",
"g. c #CDAD75",
/* pixels */
"5.B B =.f.f.f.f.f.f.f.f.f.f.f.f.f.f.f.f.f.f.f.f.f.f.f.f.s.s.s.f.f.f.f.f.f.f.f.f.d.d.s.s.s.f.p.0.) :.d.d.f.f.f.f.f.f.f.f.f.f.f.f.",
"5.F F =.f.f.f.f.f.f.f.f.f.f.f.f.f.f.f.f.f.f.f.f.f.f.f.f.d.d.s.s.f.f.f.f.f.f.f.f.d.d.s.s.f.f.0.I x ! s.d.f.f.f.f.f.f.f.f.f.f.f.f.",
"d.y.5.d.f.f.f.f.f.f.f.f.f.f.f.f.f.f.f.f.f.f.f.f.f.f.f.f.d.d.d.d.f.d.d.f.f.f.f.f.d.d.d.d.f.f.p.Y M ! s.s.s.s.s.d.f.f.f.f.f.f.f.f.",
"d.d.d.d.f.f.f.f.f.f.f.f.f.f.f.f.f.f.f.f.f.f.f.f.f.f.f.f.d.d.t.f 1.d.s.s.f.f.f.f.p.p.d.d.f.f.d.p.0.d.s.s.s.s.s.d.f.f.f.f.f.f.f.f.",
"d.s.f.f.f.f.f.f.d.d.) ! 0.s.s.s.f.f.f.f.y.=.5.d.f.f.f.f.f.1.3 $ = r 0.d.f.f.f.y 4 1 r u.f.f.f.f.y.s.f.f.f.p.Y ! p.f.f.f.f.f.f.f.",
"s.s.f.f.f.f.f.f.d.p.F c ! d.f.s.f.s.f.f.! B J 0.f.f.f.f.d.w o     $ 0 5.f.f.5.% . . % +.f.f.f.f.s.s.f.f.p.0.M k 0.f.f.f.f.f.f.f.",
"s.f.f.f.f.f.f.f.d.0.I Z =.f.f.f.s.s.d.d.! B J 0.f.s.f.f.d.4 X     @ 9 5.d.d.a +     O r f.f.f.f.s.f.f.f.p.0.I I 0.p.f.f.f.f.f.f.",
"s.s.f.f.f.f.f.f.s.d.p.0.p.f.f.f.s.d.d.d.y.=.+.} d.d.f.f.d.r @ . . - R d.d.d.g #   . @ ` f.f.f.f.s.s.f.f.d.d.0.0.d.p.f.f.f.f.f.f.",
"f.f.f.f.f.f.f.f.s.s.f.f.f.f.f.f.f.f.f.f.f.' 1 = 1 ' d.d.d.t.w 1 5 ` d.d.s.f.f.q * % 7 d.s.s.f.f.f.f.f.f.f.f.f.f.d.d.d.d.s.s.f.f.",
"f.f.f.f.f.f.f.f.s.s.f.f.f.f.f.f.f.f.f.f.5.1     . = y.d.d.y.=.! 0.d.s.d.s.s.f.d.' ' t.d.s.s.f.f.f.f.f.f.f.f.f.f.s.s.p.p.s.s.f.f.",
"f.f.f.f.f.f.f.f.s.f.f.f.f.f.f.f.f.f.f.f.} &     . . 6 d.y.T h x 0.s.s.s.d.s.d.d.+.7 < 6 ' d.s.s.f.f.f.f.f.f.f.f.s.f.f.0.! ) p.f.",
"f.f.f.f.f.f.f.f.f.f.f.f.f.f.f.f.f.f.f.f.t.-         O p y.F 0 B 0.s.s.s.d.d.d.u.6 . . . : 5.f.s.f.f.f.f.f.f.f.f.s.f.f.) c Z p.f.",
"f.f.f.f.f.f.f.f.f.s.s.s.f.d.d.s.f.f.f.f.u.t .         # ' =.P ! p.p.s.s.s.s.d.5.%       O y d.s.f.f.f.f.f.f.f.f.s.s.p.2.F I 0.d.",
"f.f.f.f.f.f.f.f.f.s.s.s.f.p.0.s.f.f.f.f.d.u.< .         & ' d.d.d.d.d.d.f.f.d.+.O       o y d.d.f.f.f.f.f.f.f.f.f.d.d.s.p.0.d.d.",
"f.f.f.f.f.f.f.f.f.f.d.d.0.F Z =.f.f.s.s.d.d.1.#           @ q 1.s.d.d.d.f.f.f.w .       @ } u.d.f.f.f.f.f.f.f.f.f.f.f.f.f.s.d.s.",
"f.f.f.f.f.f.f.f.f.f.d.0.0.Z M =.s.s.s.d.d.d.d.a o           . # 7 5.d.d.f.f.d.%         - 5.d.d.f.f.f.f.f.f.f.f.f.f.f.f.f.s.s.s.",
"=.Z Y p.d.d.d.s.f.f.f.f.f.0.0.p.p.p.f.f.f.f.f.f.r O               @ , 7 w w : .       . r f.f.s.f.f.f.f.d.d.d.d.s.s.f.f.f.f.f.f.",
"Z k k 5.d.d.s.s.f.f.f.f.d.p.f.f.d.d.f.f.f.f.f.f.d.e @                   .             % p.f.f.s.f.f.f.f.0.0.! :.s.s.f.f.f.f.f.f.",
"Z k k ) f.f.s.s.f.f.f.f.d.s.f.f.s.f.f.f.p.0.p.d.d.s.f ; .                           X w d.d.s.s.f.f.f.f.d.I k I p.d.s.s.f.f.f.f.",
") Z I p.f.f.f.f.f.f.f.f.s.s.f.f.s.f.f.f.0.J I 0.d.d.d.d.r = X                     . < 0.d.d.s.s.f.f.f.f.p.! Z Y p.d.s.s.f.f.f.f.",
"f.p.p.f.f.f.f.f.f.f.f.f.f.f.s.s.f.f.f.f.0.M k =.s.s.s.f.d.d.r - o .           . X 3 t.d.s.s.s.d.f.f.s.s.s.p.p.p.f.f.f.f.f.f.f.f.",
"f.f.f.f.f.f.f.f.f.f.f.f.f.f.s.s.f.f.f.f.0.! T :.s.s.f.f.y.7 = - 7 q 3 ; ; ; : 2 r d.d.d.d.d.0.! 2.s.s.s.s.d.f.f.f.f.f.f.f.f.f.f.",
"f.f.f.f.f.f.f.f.f.f.f.f.f.f.s.s.f.f.f.f.s.s.d.d.d.s.d.d.p +     @ +.` C ) d.s.s.s.s.d.d.d.d.R x J p.d.d.f.f.f.f.f.f.f.f.f.f.f.f.",
"f.f.f.f.f.f.f.f.f.f.f.f.f.f.d.y.f.f.s.s.s.s.d.d.d.d.d.u.6 .     . w J k ! f.s.s.s.d.d.d.d.d.R F Y p.d.d.f.f.f.f.f.f.f.f.f.f.f.f.",
"f.f.f.f.f.f.f.f.f.f.f.f.s.s.0.0.f.s.s.s.u.d.d.d.d.d.d.s.4         w +.) 5.p.d.d.f.f.f.f.f.f.u.t.y.d.d.d.d.d.d.d.f.f.f.f.f.f.f.f.",
"f.f.f.f.f.f.f.f.f.f.f.f.d.) Z I d.d.1.w 1 , < < < < < , #       . : w e y } p.d.u.u.f.f.f.f.u.u.d.d.d.u.d.d.d.u.f.f.f.f.f.f.f.f.",
"f.f.f.f.s.s.d.d.f.f.f.f.d.) b Z 5.5., X             .               . . X O $ = , 4 6 7 q q q q q q 7 q q a u.u.f.f.f.f.f.f.f.f.",
"f.f.f.f.s.s.s.d.f.f.f.f.p.0.) 2.d.a +                                                       .   . .   . . o , 5.f.f.f.f.f.f.f.f.",
"f.f.f.f.f.f.d.d.f.f.f.f.f.f.f.f.d.f @ . .   .                                                               O a f.f.f.f.f.f.f.f.",
"f.f.f.f.d.p.0.p.f.f.f.f.f.f.f.f.d.u.4 O . . . .                                                             o r f.f.f.f.f.f.f.f.",
"f.f.f.f.p.Y Z ) f.f.f.f.f.f.f.f.d.d.d.p q q q q q q w q 7 X .       = # + X     .                         . : 0.f.f.f.f.f.f.f.f.",
"f.f.f.f.p.F c ! f.f.f.f.f.f.f.f.d.d.d.d.t.d.d.d.d.d.d.d.y.#       . a 5.} y r e w 6 4 4 4 2 > 2 4 4 4 4 6 w 1.f.f.f.f.f.f.f.f.f.",
"f.f.f.f.p.=.Y 0.f.f.f.f.f.f.f.f.f.f.f.f.f.f.f.f.d.d.d.d.f.#         t u.u.d.d.d.f.f.f.f.f.p.2.0.p.d.s.s.f.f.f.f.f.f.p.0.:.d.d.d.",
"f.f.f.f.p.s.s.f.f.f.f.f.f.f.f.f.f.f.f.f.f.f.f.f.s.d.d.d.} o       X y f.d.d.d.d.f.f.f.f.d.p.f.f.p.d.f.s.f.s.f.f.f.f.0.Z M =.s.d.",
"f.f.f.f.d.s.f.f.f.f.f.f.f.f.f.f.f.f.f.f.f.f.f.f.f.f.d.0.;         + u u.f.f.s.f.f.f.f.f.d.f.f.f.f.f.f.f.s.s.d.d.f.f.0.Z Z 0.s.s.",
"f.f.f.f.f.f.f.f.f.f.f.f.f.f.f.f.f.f.f.f.f.f.f.f.f.f.u.6 X           + 4 d.f.f.f.f.f.f.f.s.s.f.f.f.f.f.f.s.d.d.d.f.f.p.0.0.f.f.s.",
"f.f.f.f.f.f.f.f.f.f.f.f.s.s.s.f.f.0.:.0.d.s.s.s.f.d.` O                 q d.d.d.d.s.s.f.f.f.f.f.f.f.f.f.f.f.p.p.f.f.f.f.p.d.d.d.",
"f.f.f.f.f.f.f.f.f.f.f.f.s.s.f.f.f.) B F 0.d.s.s.f.y #                   O y d.d.d.d.f.f.f.f.f.f.f.f.f.f.f.p.0.0.f.f.f.f.p.d.s.s.",
"f.f.f.f.f.f.s.s.d.d.d.p.d.d.f.f.y.! M F p.d.d.d.r +           $ .       . , d.d.p.p.f.f.f.f.f.f.f.f.f.f.f.) M I p.p.f.f.f.f.s.s.",
"f.f.f.f.s.s.s.s.d.p.! Z ) s.f.f.d.0.0.0.d.d.p.6 X           @ } -       . + ..:.0.p.f.f.f.f.f.f.f.f.f.f.f.) c Z p.d.f.f.f.f.s.s.",
"f.f.f.f.f.f.f.f.f.u.R x R d.s.f.d.d.d.s.f.d.7 X           o y p.f +         4 Z M =.d.d.f.f.f.f.f.f.f.f.d.0.=.0.p.d.f.f.f.f.f.f.",
"f.f.f.f.f.f.f.f.f.f.=.R =.d.s.s.s.d.d.d.f.r . .         @ r f.f.u.;         @ p M =.d.d.f.f.f.f.f.f.f.f.d.p.p.f.s.s.f.f.f.f.f.f.",
"f.f.f.f.f.f.f.f.f.f.f.f.d.d.d.s.s.s.s.d.7 X .       . * ` s.s.f.u.y X         7 0.s.d.d.s.s.s.d.f.f.f.f.s.s.f.f.f.f.f.f.f.f.f.f.",
"f.f.f.f.f.f.f.f.f.f.f.f.d.d.s.s.s.s.s.5.+           - 5.p.d.s.s.d.u.=         ; d.s.s.s.s.s.s.d.f.f.f.f.s.s.f.f.f.f.f.f.f.f.f.f.",
"f.f.f.f.f.f.f.f.f.f.f.f.f.f.f.f.f.f.u.e         . = 1.d.f.f.f.f.d.d.w .       & s.s.f.f.f.s.0.0.f.d.s.f.f.f.f.f.f.f.s.s.f.f.f.f.",
"f.f.f.f.f.f.f.f.f.f.f.f.f.f.f.f.f.d.d.7         % +.d.d.f.f.f.f.d.d.t .       % s.s.f.f.p.2.F I p.p.f.f.f.f.f.f.f.f.f.s.f.f.f.f.",
"f.f.f.f.f.f.f.f.f.f.f.f.f.f.f.f.f.f.f.6         q d.f.f.f.f.f.f.d.s.a         $ s.f.f.f.d.) x Z p.f.f.f.d.s.f.f.f.f.d.s.p.p.f.f.",
"f.f.f.f.f.f.f.f.f.f.f.f.f.f.f.f.f.f.f.6         w f.f.f.f.f.f.f.s.s.r .       $ s.f.f.f.s.p.! ! p.f.f.f.d.p.p.f.f.f.d.d.) ) p.f.",
"f.f.f.f.p.d.d.d.s.s.f.f.f.f.f.f.f.f.f.6 . .     q d.d.d.f.f.f.f.u.u.t X       $ f.f.f.f.f.f.f.f.p.s.f.f.) J ! d.d.d.s.p.J c Y d.",
"f.f.f.f.0.) 0.d.s.s.f.f.f.f.f.f.f.f.f.6         6 d.d.d.f.f.f.f.u.u.t         % d.f.f.f.f.f.f.f.d.d.f.f.Y k F 0.d.d.d.p.I Z ) d.",
"s.s.f.p.J B ! f.s.f.f.f.f.f.f.f.s.f.d.6         7 p.s.s.f.f.f.f.f.f.w         = d.s.f.f.f.f.f.f.f.f.f.f.0.J ) p.s.s.s.f.0.0.p.d.",
"f.d.d.p.I M ! s.s.s.f.f.f.f.f.f.s.d.d.6         7 d.s.s.f.f.f.f.f.f.5         1 f.f.f.f.f.f.f.f.f.f.f.f.d.p.p.f.s.s.s.s.s.s.s.d.",
"f.f.f.f.p.0.p.d.f.f.f.f.f.f.f.f.f.f.f.6         7 f.s.s.f.f.f.f.f.f.,         7 f.f.f.f.f.f.f.f.f.f.p.d.d.d.f.f.f.f.f.f.s.s.f.f.",
"f.f.f.f.p.p.f.f.f.f.f.f.f.f.f.f.s.d.f.6         7 f.d.d.f.f.f.f.f.f.*         r f.f.f.f.f.f.f.f.f.f.p.p.s.s.f.f.f.f.f.f.s.s.f.f.",
"f.f.f.f.d.s.s.f.f.f.f.f.f.f.f.f.d.d.d.4         8 d.d.d.f.f.f.f.u.W @ .     . a f.f.f.f.f.f.f.f.f.f.f.0.0.d.s.f.f.f.f.f.f.f.f.f.",
"f.f.f.f.d.s.f.f.f.f.f.f.f.f.f.f.d.d.d.3         w u.d.d.f.f.f.f.5.9 X       o } f.f.f.f.f.f.f.f.f.f.=.Z Z p.s.f.f.f.f.f.f.f.f.f.",
"f.f.f.f.f.f.f.f.f.f.f.f.f.p.0.2.s.s.d.;       . e f.f.f.f.f.f.f.5.8 .       @ u.s.s.f.f.f.f.f.f.d.d.) b Z p.s.s.f.f.f.f.f.f.f.f.",
"f.f.f.f.f.f.f.f.f.f.f.f.f.) B J 0.d.d.;     . . a f.f.f.f.f.f.f.d.w         - d.s.s.f.f.f.f.f.f.s.p.0.0.0.f.f.s.f.f.f.f.f.f.f.f.",
"p.d.f.f.f.f.f.f.f.f.f.f.d.) c J 0.d.d.6 . .   & 1.d.f.f.f.f.f.f.d.w .       < d.p.d.s.d.f.f.f.f.s.s.s.f.p.p.s.s.f.f.f.f.f.f.f.f.",
"Z 0.f.f.f.f.f.f.f.f.f.f.d.5.5.5.d.d.d.+.2 & ; t d.d.f.f.f.f.f.f.d.e .     . q d.0.p.s.d.f.f.f.f.s.s.s.d.d.d.s.d.f.f.f.f.f.f.f.f.",
"M =.d.d.f.f.f.f.f.f.f.f.d.d.s.s.s.f.f.f.5.} 5.d.d.d.s.s.f.f.f.f.d.+.@ .   @ f 5.J J 0.d.f.f.f.f.f.f.f.f.s.s.s.d.f.f.f.f.f.f.f.f.",
") p.d.d.f.f.f.f.f.f.f.f.d.d.s.s.s.s.f.f.d.=.5.p.d.d.s.s.f.f.f.f.d.d.e ; - w u.5.M b ) p.f.f.f.f.f.f.f.f.s.0.) ! p.f.f.f.f.f.f.f.",
"f.f.s.s.f.f.f.f.f.f.f.f.f.f.f.f.s.s.d.d.) B Z p.f.f.s.s.f.f.s.s.d.d.d.5.+.d.d.d.) ) p.f.f.f.f.f.f.f.f.f.d.) c k Y p.f.f.f.f.f.f.",
"f.s.s.s.f.f.f.f.f.f.f.f.f.f.f.f.d.d.d.d.! B J p.f.f.f.f.s.s.s.s.s.d.d.d.d.d.d.d.f.s.d.f.f.f.f.f.f.f.f.f.d.) M k Y d.f.f.f.f.f.f."
};
