/* XPM */
static char *result[] = {
/* columns rows colors chars-per-pixel */
"64 64 256 2 ",
"   c #020203",
".  c #0B0B0D",
"X  c #070708",
"o  c #0E0E11",
"O  c #0B0A1A",
"+  c #100F12",
"@  c #121215",
"#  c #151619",
"$  c #1A1A1D",
"%  c #18171A",
"&  c #101011",
"*  c #2F251A",
"=  c #1D1C22",
"-  c #141C2B",
";  c #0E1030",
":  c #221E25",
">  c #242328",
",  c #383838",
"<  c #2E2D2F",
"1  c #1F232C",
"2  c #483B2E",
"3  c #584837",
"4  c #4E4135",
"5  c #61503E",
"6  c #30354D",
"7  c #1D2867",
"8  c #423C65",
"9  c #2F4D73",
"0  c #3D424C",
"q  c #474748",
"w  c #4B4D51",
"e  c #575859",
"r  c #505051",
"t  c #695745",
"y  c #725E4B",
"u  c #7A6552",
"i  c #7D6854",
"p  c #75614E",
"a  c #53546A",
"s  c #6A6A6A",
"d  c #636366",
"f  c #787878",
"g  c #726C6C",
"h  c #665D6F",
"j  c #826C57",
"k  c #8A745D",
"l  c #89735C",
"z  c #947C64",
"x  c #987F67",
"c  c #897669",
"v  c #B56A7C",
"b  c #D27279",
"n  c #FD9D2C",
"m  c #FBB837",
"M  c #FDAE2B",
"N  c #FDC639",
"B  c #FCCF31",
"V  c #9B836A",
"C  c #92867A",
"Z  c #A2886E",
"A  c #A58C72",
"S  c #AD9378",
"D  c #B5997D",
"F  c #F39654",
"G  c #F8AE50",
"H  c #ED9272",
"J  c #F3B36C",
"K  c #C5827D",
"L  c #FDCB43",
"P  c #FCD551",
"I  c #FCE953",
"U  c #FACE6D",
"Y  c #FCEE74",
"T  c #111798",
"R  c #111491",
"E  c #15239D",
"W  c #2B328B",
"Q  c #100FAE",
"!  c #0F14AB",
"~  c #1113AC",
"^  c #131AAA",
"/  c #100FB2",
"(  c #0F16B9",
")  c #1213B3",
"_  c #1114BB",
"`  c #121BBC",
"'  c #171BB6",
"]  c #1528AA",
"[  c #1627B8",
"{  c #1735B9",
"}  c #1631AE",
"|  c #292BBB",
" . c #2338B8",
".. c #3233AD",
"X. c #304E93",
"o. c #1E46B9",
"O. c #1C42AE",
"+. c #2746BA",
"@. c #2D53B5",
"#. c #2D6296",
"$. c #525793",
"%. c #7B7D85",
"&. c #726D94",
"*. c #4C50B0",
"=. c #6C53AE",
"-. c #6E6BB6",
";. c #57689A",
":. c #111CC2",
">. c #151DC5",
",. c #0F1DC4",
"<. c #0F28C6",
"1. c #1223C4",
"2. c #1223C9",
"3. c #112BCB",
"4. c #132BC4",
"5. c #1233CD",
"6. c #123CCB",
"7. c #1837C6",
"8. c #0F3AD2",
"9. c #1134D2",
"0. c #113BD3",
"q. c #193AD6",
"w. c #122ED3",
"e. c #2239C6",
"r. c #3234C4",
"t. c #1C3AE4",
"y. c #1644CA",
"u. c #1243D5",
"i. c #124CDB",
"p. c #1548D5",
"a. c #1656DA",
"s. c #104FD5",
"d. c #2449C7",
"f. c #2957C8",
"g. c #244BD3",
"h. c #2959D5",
"j. c #3650CC",
"k. c #1662DE",
"l. c #2C66D7",
"z. c #336CDC",
"x. c #3567D6",
"c. c #3373DB",
"v. c #3777DB",
"b. c #2D69CC",
"n. c #1857E3",
"m. c #1A49EB",
"M. c #2457E5",
"N. c #1967E3",
"B. c #1A75E7",
"V. c #2967E6",
"C. c #3469E7",
"Z. c #3979E4",
"A. c #2971EA",
"S. c #5056CB",
"D. c #4769D7",
"F. c #576BD6",
"G. c #4977D9",
"H. c #5678DB",
"J. c #566CCA",
"K. c #6D6FCD",
"L. c #4779E3",
"P. c #6265E1",
"I. c #6038AD",
"U. c #B66D8F",
"Y. c #966FAD",
"T. c #A76CA8",
"R. c #915C9F",
"E. c #CE7589",
"W. c #9778C6",
"Q. c #7E8794",
"!. c #3584DD",
"~. c #3C85E5",
"^. c #308DEE",
"/. c #3AA1F0",
"(. c #1F85EE",
"). c #528AD9",
"_. c #718DD6",
"`. c #4688E6",
"'. c #578AE6",
"]. c #4797EA",
"[. c #5998E8",
"{. c #419DF4",
"}. c #7A98E5",
"|. c #6A92E6",
" X c #56A7EF",
".X c #69A8EA",
"XX c #75AEEB",
"oX c #76A0D4",
"OX c #838383",
"+X c #8B8B8B",
"@X c #868689",
"#X c #898B95",
"$X c #969698",
"%X c #978A90",
"&X c #B99D82",
"*X c #A58D92",
"=X c #BEA286",
"-X c #9698A7",
";X c #8E8FA8",
":X c #A993AA",
">X c #A3A3A3",
",X c #AAABAB",
"<X c #BBBBBB",
"1X c #B2B2B4",
"2X c #AAA8B4",
"3X c #99A0AF",
"4X c #C6A88B",
"5X c #C9AC92",
"6X c #D3B394",
"7X c #DAB99A",
"8X c #CCB196",
"9X c #E7B590",
"0X c #D0B8A7",
"qX c #D390A4",
"wX c #F2CB94",
"eX c #FCF688",
"rX c #FDF491",
"tX c #D9C3AF",
"yX c #E8C8A6",
"uX c #F7D9B6",
"iX c #F2D1AE",
"pX c #FDEFB3",
"aX c #8C8DDB",
"sX c #95B1D8",
"dX c #B7BBD5",
"fX c #AEB1CB",
"gX c #849AE5",
"hX c #9796E4",
"jX c #89A6E8",
"kX c #99A8E7",
"lX c #93B8EC",
"zX c #A9B9E9",
"xX c #B5BBEA",
"cX c #ABB7EE",
"vX c #AE90DD",
"bX c #D2AFCD",
"nX c #D2A0E3",
"mX c #B6C2D2",
"MX c #B9C4E9",
"NX c #BAC5F2",
"BX c #B8D2F2",
"VX c #8AC5F4",
"CX c #C7C7C7",
"ZX c #C9CBD5",
"AX c #D8D9D9",
"SX c #D7CCCA",
"DX c #ECCFD1",
"FX c #FAEACE",
"GX c #CDD1EC",
"HX c #E8DBE8",
"JX c #E8E8E8",
"KX c #F4F4F4",
"LX c #FBFBFB",
"PX c #FAF8F8",
"IX c #EEEDEF",
"UX c #D9E4F4",
/* pixels */
"^ [ ( ' { ! ! ! { B.i.2.2.2.2.2.2.5.q.~.].l.`.l.`.N._ _ x. X X XL.4.4.6.1.4.3.2.<.4.x.x.7.7.5.7.e.q.e.e.g.Z.{.{./.C.C.V.C.C.C.C.",
"~ ) ( ( { ! { k.s.<.,.,.,.2.2.2.h.].z.z.g.g.`.q.].n.1.` D. X X XL.e.4.y.1.1.3.3.3.3.3.5.4.5.5.5.7.g.V././.^.A.M.V.V.M.V.V.V.M.C.",
"! ! ^ ^ { k.s.{ ( ,.,.,.2.9.,.2.z.l.q.c.g.6.~.y.`.a.y.` L.].x.4.>._ 1.y.<.1.2.3.3.<.3.4.4.7.6.l.^./.^.V.V.M.M.V.h.V.V.V.V.C.C.C.",
"! ! [ s.s.y.( ` ,.( ,.<.2.h.w.2.g.g.d.Z.`.].v.g.z.h.p.` e.` :._ :.:.,.a.4.:.<.1.3.3.<.7.h.A.^.(.N.h.n.a.a.M.n.n.N.V.V.L.F.H.C.C.",
"[ s.s.] T [ ` ` ` ` 4.f.7.`.g.,.q.`.`.v.Z.~.`.h.h.C.s.( ( _ :.:.:._ :.a.4.1.1.1.w.p.A.(.(.N.n.n.i.n.n.n.n.n.V.N.A.A.H.Y.9X0X|.C.",
"s.] ! T T } ` ( ` ` y.v. .x.x.1.e.z.z.~.v.h.~.~.g.c.p.` / _ / :._ :._ y.6.` 6.k.(.B.N.i.i.i.i.i.i.i.n.n.N.N.V.[.XXY.qXJ U wXlXZ.",
"} T R T T ! [ ( ` ..&.c l g c Y.*. .7.c.~.g.~.`.~.l.0.[ _ _ :._ _ _ [ u.B.(.B.a.i.i.i.0.i.i.i.i.n.n.n.V.V.N.[.xX0X9XU eXY 9XlXZ.",
"} T T T T T 6.( *.C V V V V D =X5X;X*.l.v.v.Z.g.z.q.0.4./ _ / :.6.a.B.B.B.u.u.p.i.8.i.i.u.i.i.i.i.n.A..XN.C.fXqXJ wXeXpXeX9XsXZ.",
"[ T T @.} T } *.%XS S Z Z A 4X7X9X7X-XG.p.z.p.3.5.<.8.y.( <.s.B.N.a.u.0.N.u.8.0.u.i.i.0.a.l.i.i.i.n. XlXS.Y.9XU Y Y eXpXeXwX_.Z.",
"^ ] R f.v.] ..:X4XD D A Z D 7XyXiXyX7X-.4.4.<.<.<.<.8.k.k.k.s.8.0.0.0.0.a.u.8.u.u.u.i.C.XXXXZ.i.n.].XXfXE.J eXY rXrXeXrXrXwXsXL.",
"! } E @.).@.;X8X4X4XS A A D 9XiXiXiXyX:Xr.2.1.5.i.N.k.k.s.9.9.9.w.9.9.9.i.p.8.0.q.u.u.].[..X[.n.i.D.*XH J P Y rXpXrXeXeXeX9XfX].",
"! [ ] @./.oXtX7X6X4XD Z A 4XyXiXiXyXyX7X*.p.N.n.s.<.` 6.u.3.3.9.9.9.9.8.u.p.8.0.0.u.p.[.`.L..Xa.*.U.H I I P eXY Y rXrXeXY J dX[.",
"! ] } f.].mXiXyXyX6XD Z Z 4X9XyXiX9XyXyX;Xy.[ [ ! ( / [ u.3.5.9.q.9.5.9.u.p.8.8.0.u.p.[.'.z..Xx.R.G L I I P Y Y Y eXeXeXY J bX X",
"} ( } } *.SXpXuXiX7X4XZ A 6X7XyXiXyXyXiX,X| / Q / / ( ` s.3.3.5.Z.g.w.9.8.a.8.8.0.0.u.[.'.C.XXx.v G L I I L Y Y P Y Y Y Y J <X[.",
"{ '  .E -.pXFXFXuXiX4XV Z 6X6XyXyX7X9XiX0X..) ) ! d.f.` u.5.3.q.`.Z.0.w.9.k.0.0.0.0.u.L..Xl..XZ.=.b G I I L I Y I eXY Y Y U :XL.",
"f.] ..] 2XFXFXFXFXyXD V Z 4X6XZ z =X7XiXyX*.7.l.{ c.b.6.6.3.3.g.]. Xz.9.9.n.9.8.8.0.0.Z..Xh.[.Z.b.=.b G I N I Y Y Y I P I U Y.C.",
"+.[ ] +.0XFXFXFXuXtXD V V 5X=XV u j 6X7XV W b.v.l.c.{ [ 7.5.3.h.]. X].y.9.a.0.0.0.0.0.x.XXh.[.L.'.D.*.E.J m L P I P P N L L Y.C.",
"^ ^ ] *.tXuXuXuXyX8XS z V 4X=XS A V 5XD p X.c.+.!.!.f.d.[ 8.w.l. X X XZ.9.i.p.8.9.0.9.p..X.XXXx.[.z.d.T.F N N L L L L B B G Y.z.",
"[ y.y.J.tXyXyX7X6X=XS k k 4X6XOXC 4X6XD s Q.@.b.c.!.c.c.{ u.3.z.].`.Z.l.9.8.i.9.0.0.8.0.x.[.`.p.h.a.g.U.G m M N L B N B B G *X].",
"} ] } -.tX7X8X5X=X&XV l l 4XiX0XtXyX6X4X@XQ.{ l.c.!.b.z.y.p.3.y.g.p.q.9.9.5.k.9.9.9.0.8.p.g.p.u.0.q.S.b M M B B N P B B B m *XC.",
"T T T =.0X5X4X4X&XS V l l D iXuXuXiX6X6X=X-X .b.f.c.b.f.f.y.3.3.2.3.w.3.9.3.k.9.9.9.9.0.8.8.u.0.u.a.Y.H B B B B N P L B B m v f.",
"R E E &.7X4X&X&XS V z j j S 9XyXiX7X7X6XtX%X] c.{ c.v.c.f.4.8.<.w.2.3.3.3.w.s.8.0.9.9.i.s.a.N.B.V.x.E.G M m M M G H G G M M v d.",
"} O.E &.=X&XS S Z V k i j Z 6X6X7X7X7X6X6X#Xf.x.c.h.y.f.{ <.8.<.<.<.3.w.<.w.s.s.i.N.N.N.a.a.p.u.y.I.E.n M M M M G E.E.F m M v j.",
"f.@.} $.S A A Z V k l u j z D 6X6X7X7X6X4XQ.f.{ d.[ ^ [ ) ` u.3.<.9.u.s.k.k.N.a.p.u.8.9.5.1.[ ` [ R.F n n n n M b R.R.b F m K j.",
"@.f.O.;.A x z z k l i p j k D D 4X6X7X6XD $.' ! ~ Q Q ! [ 7.a.i.i.i.p.u.6.6.6.6.>._ _ :._ :.:.:.| E.n n n n n F qXkX_.=.E.F =X_.",
"o.O.O.;.c k l l i j u p j k S D D D 4X6XZ W ^ [ { 6.6.y.u.u.s.y.6.5.[ ' ( / ( 6./ _ _ _ :._ :._ I.4Xn G N N N H fX}.XXD._.U.Y.XX",
"O.E O.#.j j j i u p y y u l S D D Z l l c @.y.6.8.5.8.5.5.5.0.{ ! ) ) ) / ) _ s./ _ [ j.` _ :.| U.J G G P G G qXjXD.L.j.D.*.J.XX",
"O.O.O.X.g i i u p t t t p l S D D z 5 j c O.5.4.<.2.,.,.1.2.q.e.[ ' ) ) _ ) ) s.) ) j.).e._ ` I.E.J U U U G 9X2XXXH.).g.7.g.).[.",
"} O.E E d p u y t t t t y j A D D x j A c ^ _ ` ` ` >.>.7.j.g.j.| | | { e.e.( y.1.' ).XXr._ >.R.9XU wXiXwXwXqXaXVX}..XD.5.h.[..X",
"T E E E d u p y t t 3 t y i V S Z z z Z h ' ` d.d.7.l.g.j.L.H.H.S.F.G.`.G.v.' 7.7.' j..XS.>.| U.9XiXpXpXpXiXbXoXVX'.[.[.d.e.x..X",
"} } } } a i u y 3 3 3 t t u V S z y y j $.| [ x.x.j.`.).'.|.}.gXaXgXXX.X Xx.| 4.g.| | '.H.r.I.qXwXuX0X1XtXDXMXjXVXD.G..XG.j.g.|.",
"} } [ ( W i u t 3 2 3 3 5 y l A S j j x ;.d.4.x.x.H.[.|.}.lXzXxXxXkXjXXXXXJ.S.r.x.r.r._._.S.T.9XpX8X+X%Xc AXBXjXVX_._.XX}.XXD..X",
"! ) ^ ] X.u i y 3 2 2 3 5 5 j Z D 4X6X*X..x.e.S.J.}.XXjXVXBXMX3X#XfXkXlXlXK.K.K.'.S.K.gXlXW.qXiXFX*X2XZXe ZXUXlXlXlXlXlXgXlXXX.X",
"] o.{ o.@.g l p 5 3 2 2 3 5 5 k D 7X7XR. .x.r.S.gXlXzXMXUXZX+Xf a fXxXzXBXkXhXhXgXaXaXkXBXbXDXFXFX*XZXLXd AXUXNXcXBXBXcXkXcXlXH.",
"] f.o.d.@.g l i 5 3 2 * 2 2 5 u A 6X6X*.o.x.S._.MXMXGXGXUXmXg <Xf fXUXGXGXmXxXGXMXxXMXBXUXHXDXFXPX$XSXLXd AXIXGXGXGXGXNXMXxXhXF.",
"] y.d.+.+.g z l y 3 3 2 * * 4 5 V D &X..+.G._.cXmX#XQ.@X$XOX+XKXc %.CXGX3XR.%.#XZXGX2X$X;X$X@X%XSX$XCXLXd 1X-X$X-XfX#X%.R.;XzX}.",
" .{ @.d. .h V z p 5 5 3 * & * 2 5 k &.E +.'.kXZXQ.f @X%.r e <XLX>Xd OX$Xf OXOXs %.ZXf f d s OXd OX+XCXLXe d f f q s f @Xf e mXlX",
"{ { @.y...$.V V l 5 5 5 4 * & * 6 a W ^  .J.kX-Xf AXPXIXOX+XKXLXKX>Xr f ZXPXLXCXs $XOXAX<XCXPXAXd s CXLXq d UXtX, OXAXKXJXs 3XlX",
"} } o.{ ..a Z V l y i p 5 3 * 7 T ] ' | d.K.zXs SXKX>X>Xg f AXLXAXC , CXKXCXCXKX1Xe C KXJX<XJXPXOXw CXLXq ,XPXOX, SXIX,X-Xd sXlX",
"] ^ [ ] R r V V z p u i t 5 , 7 } } } } +.).MXd KXKXr < , q ,XKX+Xq e JXAXe d JXJXq s PXCXe $XPX>X4 CXLXs JXAXr s JXAXr < 4 fXlX",
"} ] ( ] 7 1 i C V p i i p 5 4 W ] T R E ..-.fXa JXKX>Xe , s +XPXf d f KX,Xs OXCXKXr s KX>Xe OXIX1X, CXLX>XPX>Xs +XAXIX$Xr w mXBX",
"} E ! 7 ; . 2 V V i i i p 5 4 W E R R R ..-.dXQ.$XKXKXCXs f $XKXQ.$X$XKX$X1X<XCXKXe s KX>XOX+XIX1X, CXLXAXPXf $X>X>XKXPX<Xd <XBX",
"T 7 7 ;     . y Z c l i p 5 y $.E R R ^ d.K.xX3X, $XAXPX,Xq $XKXOXOX+XPX$X>X1XtXKXr s KX>XOX$XIX,X, mXLX1XPX,Xf ,Xq >XAXPXOXQ.BX",
"7 ; O   X     * i V V l i y C ;XW R R 7.C.K.MX+X< * f KX<Xq +XPXC e s IX<Xd Q.AXJXq s KX>X+X+XIX1X, tXLXs JXJXe g , > +XPX>X%.BX",
"* &     X X     4 C S V i l 8X<X8 7 R s.^.|.xXh +Xd OXJX1Xq +XKX1Xe q AXIXOX+XIXCX4 f KX>XQ.$XJX1X, tXLXq 1XPX+X4 f d +XKX$XQ.BX",
"$ @             # $X=XS l S DXSX6 = 6 #.!.XXcXs IXJXJXJX%.s C JXLX,X, $XIXPXKXJXQ.s C IX$X+X$XJX,X, mXKXq s KXZXd AXJXIXAXs $XBX",
"$ % X           X f AX=XV 7XFXZX, > > < 9 _.MXd >XmX<X+Xe <XR.$XmXC e d $XmXtXQ.r <Xg ,Xf +XOX>X%., OX,X, q >X>Xd >XCXmXOXe mXVX",
"$ $ @             1 AXSX=XuXLXSX6 > = 1 , s fXQ.q e e q $XUX2Xe e q $X3Xr e r w >XAXg r e ,Xf w w f r r d #Xw w q w e r e 3XGXVX",
"% % % . X X         f IXCXmXAXZXq > = : < e +XmX1X;X$XfXGXZXGX2X#X2XGXGXdX3X-XnXHXHXDXbXbXHXGXdXmXGXmXmXGXGXmXMXZXfX3X3XdXNXcX.X",
"% % % @ . .         < sX.X!.).1Xq 1 1 $ > , s >X<XtXdXdXkXkXkXdXMXxXxXxXxXNXxXNXHXDXDXDXHXxXxXcXcXxXxXxXxXcXxXxXxXxXNXNXcXkXP.C.",
"% % & & & . . X     o #././.!.;.w : 1 $ > < w g +X-X$X3X_._.}.gXjXjXgXXXgXjXjXkXnXnXbXbXvXgXgXgXgXgXgXgXjXgXgXgXjXjXjXjXgX'.H.C.",
"@ % % . & & . .       1 b./.!.9 6 : : $ $ : < q d s s d a *.*.S.S.S.S.F.J.S.P.W.vXE.qXnXK.F.F.F.F.H.L.H.H.L.'.H.'.'.|.'.'.L.Z.V.",
"& % # . . & X & X X X & 9 /.^.Q.1 1 1 $ $ @ $ < 6 4 q 0 6 ..+. .@...d.j.d...P.W.T.T.U.W.j.r.| | | r.| | r.r.r.r.r.r.r.r.e.e.e.4.",
"& @ % o X @ @ # . X X X $ #. XoX6 - = = @ & @ 1 < 1 < , < X.f.{ j.j.x.| e.>.M.T.T.U.T.S.e.[ ) ' ' ' | [ ' ' ' [ | ' r.>.>.' >.:.",
". & # .   X # % @ . X X & 9  XVX0 = = = @ & & = = $ 1 > 1 #.l.o.d.f.c.{ w.t.P.T.W.T.P.t.4.) ) / ' e.x.d.' _ ' e.e.>.` ' 4.1._ ` ",
". & & .     . % $ & . . & 1 ).sX0 = = = % @ @ = = # $ > 1 @.l.o.y.+.f.y.w.t.W.W.nXT.S.>.{ / ~ / ) x.b.~. ./ e.L.v.x._ e.`.j._ 1.",
". o o o       % $ % & X X @ #.XXe $ 1 = $ & # $ # @ % 1 1 #.b.f.+.o.b.k.5.D.K.vXnXvXt.:.1.) Q / ' { { c.j./ 4.f.e.v.[ h.].h.' g.",
"@ o @ @ o     @ $ $ & & X . 1 oXa $ = $ $ @ @ = = @ # = = 7 f.f.d.o.c.Z.n.F.-.nXxXP.t.:.{ ) Q Q / / [ v.d.) ) _ h.c.[ c.`.h.' v.",
"@ @ @ o o     X % % @ & . . @ #.9 % = = $ @ # $ O & # = = 7 { o.o.{ d.8.C.P.K.W.W.V.h.! { ! ! / / Q h.c.) ) / ` j.v.d.x.h.x.e.v.",
"@ @ # @ O       @ # % @ & & & 6 9 $ = $ $ @ @ = @ & # # : <  ._ ! ! ^ 8.L.W.K.K.D.w.T ! ' [ ! / ~ ) !.{ ' [ { f.{ v.Z.~.v.Z.x.x.",
". @ @ . & X     & $ @ # & & & - - = = $ % # @ = O o @ # $ > X.i.y.7.w.m.P.P.K.K.m.` ! ! ( { ~ ! Q ) c.~.~.f.c.c.h.v.l.h.v.].G.].",
". @ o . X       & # @ & # & . & # % $ $ $ @ @ = o o # @ = : X.g.^ R 1.C.|.}.aXL.i.y.{ { } { ! ^ ) ~ ^ ! ! [ [ [ x.h.[ ( e.v.[ ( ",
"o @ @ o X X     X & $ & # # & & % % $ $ $ % @ = @ o @ @ $ : 9 V.q.^ t.C.F.H.H.m.3.` { y.u.s.a.s.s.y.{ ` ' ) ~ ~ ~ ) ( / ( ' _ / ",
"o o # # . X   X X . # $ # # # @ # % $ % % % # = o . @ o % = 7 `.Z.n.M.L.H.P.'.t.( ! ( ( ( 6.` ( 1.3.u.s.k.a.a.s.y.7.{ ` ' ( _ / "
};
