/* XPM */
static char *result[] = {
/* columns rows colors chars-per-pixel */
"64 64 256 2 ",
"   c #151514",
".  c #1B1B1C",
"X  c #191817",
"o  c #221C1B",
"O  c #381D1D",
"+  c #25221E",
"@  c #3D201E",
"#  c #1D1E21",
"$  c #2C1E22",
"%  c #1E2225",
"&  c #1C242A",
"*  c #1D2B37",
"=  c #232224",
"-  c #22252A",
";  c #23292D",
":  c #2B2828",
">  c #362828",
",  c #2A382A",
"<  c #35372B",
"1  c #252C34",
"2  c #2A3539",
"3  c #363938",
"4  c #352C33",
"5  c #472828",
"6  c #582928",
"7  c #46342B",
"8  c #59332C",
"9  c #453336",
"0  c #553735",
"q  c #552F30",
"w  c #682926",
"e  c #68362E",
"r  c #673535",
"t  c #72312D",
"y  c #50201F",
"u  c #36463B",
"i  c #2E4932",
"p  c #2D6F32",
"a  c #4C4833",
"s  c #724D38",
"d  c #677738",
"f  c #6F6B34",
"g  c #586538",
"h  c #2D3B44",
"j  c #273747",
"k  c #343D45",
"l  c #303E51",
"z  c #593C44",
"x  c #623C40",
"c  c #374549",
"v  c #3B4B55",
"b  c #384756",
"n  c #3A555C",
"m  c #2E474B",
"M  c #3D5464",
"N  c #3C4F61",
"B  c #397359",
"V  c #464646",
"C  c #444D58",
"Z  c #475459",
"A  c #56565A",
"S  c #524D4A",
"D  c #6E534D",
"F  c #516E51",
"G  c #756655",
"H  c #435463",
"J  c #4D5C6B",
"K  c #485866",
"L  c #535D68",
"P  c #485E72",
"I  c #464F60",
"U  c #695B64",
"Y  c #46646A",
"T  c #58646B",
"R  c #4A6677",
"E  c #536473",
"W  c #5C6C7B",
"Q  c #596876",
"!  c #59747B",
"~  c #4F777D",
"^  c #63686D",
"/  c #636D7A",
"(  c #67737B",
")  c #757070",
"_  c #823930",
"`  c #8A5138",
"'  c #8F7A30",
"]  c #B37536",
"[  c #894D46",
"{  c #956948",
"}  c #906F52",
"|  c #A97650",
" . c #90756E",
".. c #A37B66",
"X. c #C17E3C",
"o. c #70863E",
"O. c #3A8A4F",
"+. c #398F77",
"@. c #748845",
"#. c #7A9048",
"$. c #5C8B75",
"%. c #2E853C",
"&. c #968A39",
"*. c #BD9C3C",
"=. c #869949",
"-. c #8C9352",
";. c #AF8A55",
":. c #94AA51",
">. c #A8B454",
",. c #949071",
"<. c #B2916F",
"1. c #97AE6B",
"2. c #ABAF72",
"3. c #C9AB59",
"4. c #CBB26F",
"5. c #D7AA67",
"6. c #B8CA5C",
"7. c #AECA5D",
"8. c #B3CE67",
"9. c #BAD866",
"0. c #B5CF75",
"q. c #BEE069",
"w. c #C8C85A",
"e. c #C8D866",
"r. c #D1D471",
"t. c #E7CF75",
"y. c #D5E97A",
"u. c #CDF47A",
"i. c #CBEB74",
"p. c #E9E872",
"a. c #556D84",
"s. c #587588",
"d. c #587B93",
"f. c #4D6C82",
"g. c #6B7683",
"h. c #6B7A85",
"j. c #6C7D8B",
"k. c #647686",
"l. c #727D88",
"z. c #647C91",
"x. c #3E9B81",
"c. c #5D869B",
"v. c #539389",
"b. c #6B838C",
"n. c #73818C",
"m. c #78848A",
"M. c #678696",
"N. c #738492",
"B. c #7B8A95",
"V. c #7B8D9B",
"C. c #768897",
"Z. c #7C939C",
"A. c #6A939A",
"S. c #53AB95",
"D. c #5E8CA3",
"F. c #648CA5",
"G. c #6692AA",
"H. c #7994A5",
"J. c #7399B3",
"K. c #72A8B1",
"L. c #67A899",
"P. c #76C4B8",
"I. c #70A5C7",
"U. c #6F9FC0",
"Y. c #828C96",
"T. c #84939D",
"R. c #88949C",
"E. c #8E8F91",
"W. c #B5988A",
"Q. c #AAB694",
"!. c #8395A2",
"~. c #8B9AA5",
"^. c #8B9DAA",
"/. c #8699A7",
"(. c #919EA7",
"). c #879EB2",
"_. c #8BA2AD",
"`. c #94A3AD",
"'. c #99A5AC",
"]. c #8AA6B7",
"[. c #94A6B2",
"{. c #9CABB4",
"}. c #94ABBA",
"|. c #9BADBB",
" X c #96A8B4",
".X c #9CB1BC",
"XX c #86BCB5",
"oX c #A1AEB8",
"OX c #A4B3BD",
"+X c #A7B4BB",
"@X c #A6AFA6",
"#X c #9DA39E",
"$X c #CFB191",
"%X c #D2AC8B",
"&X c #91C4BE",
"*X c #B2C3B2",
"=X c #CED08A",
"-X c #E7CA92",
";X c #D8F788",
":X c #D0EC8B",
">X c #F9F288",
",X c #E9F995",
"<X c #F8FA99",
"1X c #E8F08D",
"2X c #E9D4AD",
"3X c #E9F8A5",
"4X c #F6FAA6",
"5X c #F4E6B7",
"6X c #FBFDBC",
"7X c #F9FDB5",
"8X c #F1F9B1",
"9X c #C0C4B4",
"0X c #99B3C3",
"qX c #90AFC2",
"wX c #A3B6C2",
"eX c #A5B9C4",
"rX c #ABBAC4",
"tX c #ACBDCA",
"yX c #A6B9C7",
"uX c #B2BEC6",
"iX c #9BC7C4",
"pX c #98C1D3",
"aX c #A9C6CB",
"sX c #B3C3CC",
"dX c #B7C5C8",
"fX c #ACC7D1",
"gX c #B4C5D2",
"hX c #B4CAD5",
"jX c #BCCBD4",
"kX c #BCCDD9",
"lX c #B9C7D3",
"zX c #BDD3DC",
"xX c #B8D5D9",
"cX c #ABD1D1",
"vX c #BFD3E1",
"bX c #C1CED8",
"nX c #C3D3DD",
"mX c #C6D6DD",
"MX c #C4D4CC",
"NX c #FCFDC8",
"BX c #FCFAD7",
"VX c #F4E8C9",
"CX c #C4D6E1",
"ZX c #C5DAE4",
"AX c #CBDBE4",
"SX c #CEDEE8",
"DX c #CAD6E1",
"FX c #D1DFE9",
"GX c #D1DDE7",
"HX c #CEE1E9",
"JX c #CBE0E6",
"KX c #D4E3EC",
"LX c #D8E7F0",
"PX c #FDFDE8",
"IX c #FEFEF7",
"UX c #E8D7C4",
/* pixels */
"gXaXvXCXrX( OXhX_.V.jXAXAXmXmXAXDXmXDXGXGXGXKXGXAXGXmXbXjXDXlXwXmXbXR.uXGXbXoXY.Y.~.l.l.V.j.l.J z I I I I E b l ).|./.a.b l * j.",
"0XyXkXZXzXV.`.vX}.V.rXJXjX+X+X+XrXsXbXbXbXDXAXGXAXmXGXGXSXKXKXGXFXDXbXDXFXGXbX~.g.E.(.l.l.l.l.I l N I P a.a.J I j.z.a.l * j j }.",
"0X0XvXZXCX!.V.CX.XV. XAXrXB.B.R.R.[.(.~.(.{.{.OXOXoXwXrXOXlXjXjXmXbXdXlXbXbXnXbXY.g.'.~.g.j.N.L I b I a.V.).^.!.a.I l * * j I tX",
"gX0XZXZXCXV.n.CXeX_.[.mX+X( ( V.C./.C.j.l.T.l.V.T.n.T.!.m.`.+X`.uX'.(.+XoX'.bXGXlXY.Y.R.j.j.N.L z l I U ).yXlXoXJ l j j * j l.kX",
"kX).CXCXkXj.h.kXhX.XR.mX'.h.h.B.T.^.!.j.C./.T.).[.!.`.^.V.`.+XR.rX(.~. X(.T.rXbXFXuXB.g.(.Y.j.L l l I a.~.wXyXQ I l j j j l |.DX",
"kX).CXCXsXE g.fXxX[.m.nX'.n.T.~.^.[.!.g.l.^.kXCXnXjXkXsXOXsXsXrXuXwX'.(.'.'.'.oXGXKXuXl.~.R.B.j.I N l E ).yX|.I I l j j j k.tXDX",
"yXyXvXCX[.b W .XZX}.Z.mX{.V._.T.B.l.Y.l.^.^.vXhXrXtXlXlXsXZXAXAXnXnXbXnXnXDXjXlXnXFXFXoX/ l.L l.l.L z P !.yX0Xa.P l j j I ).DXSX",
"vX].].fXE b b.[.ZXhXsXAX'.j.B.!.).).).).].0XfXtX}.[./.Z.N.eX`.[.T.(.B.R.~.{.OX|.uXbXDXGXoXU l.lXa.Q a.z.!.yX0Xk.k.l * j j.tXSXDX",
"kXyX].H.l J z.Z.SXZX].yXqX).).J.).).J.J.J.).].qXqXqXqXqXqX0X].}.`.Y.n.B.B.m.(.h.h.B.m.lXDXoXl.~.~.l.a.!.}.tXoXa.a.l j E {.DXDXDX",
"qX0X[.N j k.H.N._.b.J.qXU.).J.H.H.H.H.z.z.s.s.s.d.z.M.M.A.A.Z.H.).V./ m.T.N.V.l.g.[.m.Y.mXDX(./ tXrXY.g.}.yXl.J J l J !.tXGXSXFX",
").0XW j E _.0XZ.^.M.H.).H.z.z.k.a.a.a.a.a.a.W E Q R K H b m h k c Z / _.gXtX.X}.|.tX[.~.uXGXmXT.a.'.!.N.V.}.l.b I g.l.V.tXSXSXFX",
"b.M.b H H.yXaXaX}.! s.s.a.k.s.a.a.E J I I b k j 2 h k C b b c c 2 < c m.AXKXCXCXnXnXlXtXjXGXGXlXE.Y.`.[.j.H.a.g.g.E g.l.nXDXSXFX",
"R M N C.aXvXvXvX[.C C l k h 2 1 * - 1 4 $ # # . # # # # # # # % - - : Z sXKXHXAXnXkXbXuXkXGXAXAXbXY.l.`.(.l.g.g.g.a.z.|.CXDXSXFX",
"M M z.yXJXHXKXZX~.& & 4 4 > $ o # 4 z r @ O X           X   X       . c oXmXAXAX(.(.!.Y.(.(.Y.'.DXrXY.Y.'.a.g.g./ a.j.yXCXSXKXFX",
"E N.yXZXLXLXKXZX{.Z C ) 4 . X # # z D >       .                     . S mXmXAXAXT.g.E L L ^ Q l.OXDXtXY.N.l./.k.g.g.z.wXCXSXFXFX",
"/.yXZXKXKXLXJX0XE z.z.V.d.a.a.f.f.M z 1 = = 4 #         X       A lXKXLXLXKXSXjXyXg.I b C N.[.{.(.uXbXoXl.~.yXU a.g.z.].kXvXFXFX",
"hXSXKXLXLXHXxX0Xd.c.d.d.d.R f.f.d.d.d.f.M N l j * & % % # o . 4 m.mXLXLXLXKXFXsXkXl.C l F.tXvXZXbX!.rXDX|.l.~.E a.g.l.|.kXtXvXSX",
"KXSXKXLXKXvX].F.v.D.G.G.D.f.f.c.d.d.d.f.f.d.d.R j m i 1 % % + Z (.nXLXLXLXKXKXAXtXg.k z.qXvXvXSXDX|.C.uXDX(.g.!.'.g.g.oXbXtXyXDX",
"KXHXLXHXLXaXA.~ c.U.I.G.D.f.d.D.D.D.d.f.f.d.U.I.d.n m 2 - ; ; 3 m.dXsX_.KXKXKXHX`.C H ).0XlXhXZXDXvXg.a.kXGX^.U oXl.U B.gXvXDXSX",
"HXHXLXLX+X! n K K.I.K.K.D.M d.D.G.D.D.d.f.f.d.I.I.I.G.d.c.c.v.R s.A.M.K.pX].SXnXT.j H z.).yXtXDXDXDXY.4 l.GXDXY.g.l.(.a.!.vXSXCX",
"KXHXHXLX.XB m P J.K.F.R ~ H d.c.c.c.D.D.d.f.f.d.I.I.I.U.s.M Y Z i 3 2 c R G._.OXa.j n z.H.qX0XyXvXvXwXl I tXGXDXY.l.oX(.k.!. XlX",
"HXHXHXHX0XR m n A.v.m & M n c.c.c.c.c.c.d.a.P a.d.I.I.U.~ V u < , + + , 3 c Y v.J W N.).].).C.H.|.!.).J l (.DXFXbXl.l.oXa.Q wXkX",
"ZXvXcXvXqXY j j n 2 & % b n b.A.A.c.c.c.c.d.f.P a.G.J.G.R c 9 < < @ > , , , i n Y $.H.qXqX].|.0X).).0Xz.4 l.vXFXGXuXY.l.a.!.wXlX",
"fXfXxXxXqXR j * * & % & h v s.c.v.M.A.M.M.d.d.M f.s.J.J.s.V a a a 8 7 7 , , i i m m Y s.M.C.fXhXyXgX|.z.l a.bXFXGXGXuXB.k.l.0XtX",
"fXiXiXP.A.Y v m 1 & & * j h n K v v Y s.S.v.! K Y W d.J.J.U D D s e e a a < 1 , i , , i n s.|.wX_.fX/.z.l E sXFXLXGXGXuXY.k.!.|.",
"aXK.L.S.~ c m n Z n 2 & 2 1 * & - = , B +.O.c Z H J W j.!.E.[ [ s f s s D 9 , , , i , , i m n $./.yXz.N j J tXLXLXLXFXGXyXl.H.j.",
"K.+.v.S.c.R P n m n H m j * & # = % i B O.F i c k C / g.(.W...{ { } G G G G a i i i , < i c n T Z.yXa.j j H yXKXLXLXGXGXDXyX/.k.",
"+.+.v.L.v.s.f.s.f.M M M l * & & % . i p F O.p i k k A ) E.W.W.W.;. .} G G G F Z u a S S i 2 u F F n.H l j v oXKXGXKXGXbXFXDXwXj.",
"+.S.P.v.Z K K Y f.f.R P H b m 1 = = , i p %.O.B < 3 S G ,.W.%X-X$XW. . .G U D C C S F F F C m 2 k V v b j N oXFXFXFXZXaXhXSXAX|.",
"+.P.P.Y 2 2 ; 1 h v P P P P M K C b h i i p p O.u 7 a [ ..$XVXVXVX$XW. .) D U C c k c c k 3 2 - = 3 ) l j Z wXSXAXFXZXaXqXiXSXCX",
"+.&Xv.c * & ; % # & 1 h M K R Q R R K H m m m p p 7 a s X.-XPXIXIXUXW. . .U U z c 2 4 : < a a # + : h l j J yXSXFXFXZXfX&Xv.cXSX",
"S.L.$.c ; ; & - % # # & 2 h s.b.b.k.W P Y Y Z i 3 7 0 ` | -XVXIXIXUXW.} D D z 3 4 : = = = < , + + : Z S k E gXSXFXFXAXxXxXv.S.cX",
"S.x.B m ; - - - % # % & 1 2 ~ b.b.Z.l.U U g./ A z z D G { 5.-X5X2X%X| [ D x q 9 > > 7 9 0 a s s D D } ;.} G ,.MXHXHXSXCXCXaXL.L.",
"XX+.~ & # - - - % % % % 1 k A.J.Z.m.U z z A U  . . .E. ...<.5.2X5X-X5.| { [ D } ..| } | ;.;.<.<.r.=X=X=X,.{ d E.MXHXKXSXCXCXaXcX",
"aXL.n ; - 1 1 2 & % % % % h H.J.G.A.I $ 4 x x S A  .W.UX5X5X5XBXIXBX5X2X2X$XW.....W.%XW.<...<.<.2.3X,X3X=X<.} } ;.9XGXAXmXZXzXnX",
"aX}.T 4 > : - 1 2 2 ; % ; 2 A.J.H.b.A 6 t _ t 0 9 z z <.-X5XVXBXBXPXBX2XW.UXPX$XW.$X} D D } | | ..=X1X,X,X;Xy.4.>.r.=XzXnXmXmXmX",
"OXsX^ 7 6 4 - - ; 1 2 ; ; h z.H.H.b.C 8 8 5 > 5 r _ D D  .%X2X5XNXNXBXVXUXVXBX5X<.,...} D D } | } ..=X1X,X1X;X1X;X:Xq.:XMXJXAXAX",
"R.{.T 5 6 5 4 - - & - ; 1 h Z ! b.! c = > 7 7 8 t ` | { s s G 4.8X6XNXNXBXBX6X4X-X<...;.5.t.t.p.4.{ { t.,X=X0.;X;X;X;X:X:XdXrXOX",
"( ~.U 5 r 6 : - - % - % & ; 1 k C C 3 : : > 8 8 { e ` | ` a 7 | =X,X8XNXNXNXNX6X<X1X-X5.t.>X>X<X>Xt.3.t.1X,X:X;X;X:Xq.;X:XQ.h./ ",
"T (.^ 0 t 8 : - - % % - - - - - 9 [ [ r > : 6 _ t 8 e X.] s 8 ` 3.y.;X,X3X8X6X6XNX6X4X5X<X<X<X4X<X<X>X1X,Xr.1.:X:X#.1.0.:X=X) J ",
"A E.^ 0 r 5 o   # % % % - ; : 5 8 t t [ [ q 4 t { { { ;.| ` ` ;.r.i.u.u.u.,X,X,X8X7X6XNX6X7X4X4X7X7X7X<X,X0.@.8.q.q.q.q.:XQ.$.Q ",
"Y.(.l.S x q .   X . # % - ; : 4 > 5 5 t t r 9 5 s ' { s a 8 s &.r.:Xu.u.u.u.u.y.4.-X1X4X6XBXNX6X4X4X,Xp.;Xu.q.q.q.8.:.:.7.=XQ.! ",
"*X+X+X) z 4   # u ^ - . # = = : > q r r q 5 q q 5 5 7 + o o + a #.:X;X;Xu.u.u.3.] X.5.1XBXIXIXBX<Xu.y.i.i.e.7.=.#.o.@.:.0.i.0.Q ",
"mX( (.Y.C #   - ( m.T . X X # $ > q 8 5 : ; 5 r s 6 o o O + : : u #.:X:Xu.u.u.e.;.*.w.1XBXIXIXPX4Xp.e.6.:.d g f #.7.8.q.i.i.1.$.",
"DXY.L n.j.C.j.j.T.~.'.: . X X . # : : = ; 4 q 6 r a + o = : : : ; a 1.;X3X8X3X,X,X1X1X4XBXIXIXPXNX<X1X:X-.:.0.y.9.:.:.7.8.7.1.T ",
"lXlXc ( j.V.j.C.~.jXmX'.Q k - . . . # % = > q r 8 O o = $ @ 5 @ : , g 8.i.1X3X8X7X7X6XNXNXPXPXPXPX6X4X,X;Xy.>.-.' &.&.7.7.:.#.T ",
"{.GX/ T l.T.j.!.OXAXsXB.n.( W K Z V 4 + = = : 5 7 > # $ @ y y @ > : a =.q.q.i.:X,X,X4X8X7X6XNXNX6X<X,Xy.:.&.&.' ' ' &.:.>.:.,.s.",
"!.nX{.C W C.V. XjXmXT.W j.V.V.~.jXsX( = . . # # = # = O @ y y y > : , g 9.q.q.i.i.y.;X1X,X,X,X,X,X;Xy.2.' ] &.' f f d &.:.:.$.b.",
"l.wXjXZ K n.R.aXSXOX( k.j.!.!.0XZXHXzXoXY.A + # % . + 5 y w w y @ > + a 7.9.9.q.9.9.e.e.y.p.p.p.y.r.e.1.} ' ' f g d o.#.:.,.Q ( ",
"N.~.mXB.T h.[.mXnXB.j.C.V._.[.^.mXKXJXJXKXdX( . . # o @ y w w w w 7 > i #.9.7.6.6.6.e.e.r.p.p.p.e.w.>.=.f g d d d o.#.=.1.$.! b.",
" XB.lX+X^ h.rXCX{.k.Z.M.!.sX[.C.jXKXZXzXHXHXxXA < : = 5 y w w t y @ : < o.9.9.6.6.6.w.w.t.p.>X>Xp.w.>.>.=.d d #.@.o.#.1.#XV.m.'.",
"gXB.~.DX( n.kXlXh.b.!.N.|.wXC.N.aXHXxXJXmXJXKXKXHXm.4 5 y w _ w 6 @ : , g 7.9.9.9.e.e.r.p.<XBXNX>Xw.w.>.#.@.#.@.#.1.*XxXaX|.T.sX",
"DXV.j.bXrX(.kXoXE V.H.^.gX!.V.H.lXAXZXZXaXxXKXHXSX~.V 7 6 w w t w 6 @ , a >.7.9.9.e.i.p.>XNXIXPX7Xp.w.>.:.=.-.-.1.dXAXmX+XdX{.+X",
"DX~.g.wXbXoXlXlXN.!.V.!._.V.H.Z.mXaXAXxXiXaXxXKXAX[.T 9 q w w w 6 5 > : a -.7.7.9.e.e.p.p.4XBXBX<Xp.w.6.>.:.@.Q.MXmXGXHXmXdX+Xm.",
"}.z.Y.!.bX(.Y.bXsXT./.b.j.!.C. XjXsX+XZXxXiXcXJXSX'.h.k z r y y y 5 < A MX-.=.:.>.7.w.e.t.p.>X>Xp.3.>.-.f '.+X+XtXDXGXGXbXdXR.T ",
"j.C.j.W rXuX^ oXmXOXOX~.!.H.~.kXnX[.{.JXJXxXcXxXKXOXB.Z 4 0 r 6 8 > 4 ( LXGXGXlXE.,.:.&.:.;.4.4.;.;.G xXMX'.+XlXzXAXmXuXuXoXT Y ",
"N.H.b.W ~.bXm.L nXmXrX[.|.}.gXSXAXOXbXFXKXCXcXcXxXnXT.B.C 3 0 8 7 > V (.LXLXGXGXGXDXbXuX@X,.B.oX+XR.Y.(.nXbX(.rXlXkXnXdX+Xl.J E ",
"[.|.W W l.dX+XC oXAXkX!.n.V.yXAXHXnXAXSXHXHXzXiXaXzXOXT.g.Z z T l.Y.E.MXFXLXLXFXAXwXrXSXhX/.N.l.sXoXm.Y.rXSXuX'.hXlXMX+XY.g.W L ",
"~./.( j.j.|.bX^ $.bXDX+Xj.k.^.gXSXFXnXsXAXHXJXxX&XcXhXeX{.'.+XJXKXKXKXLXLXGXLXLXgXwX[.lXDXtXH.B.(.tX~.!.'.lXmX+XsXdXdX(.T k.N.b.",
"H.N.n.N.k.!.jX(.A oXbXmX XC.H..XzXSXzXwXkXKXKXJXcX&XcXzXnXCXHXKXKXKXKXKXLXLXLXFXtXwXl.T.tXtX~.!./ (.{.!.Y.(.bXbX+XdX'./ K L k.j.",
"~.b.N.j.b.j.oXjXA $.{.GXmX[.Z.!.wXCXnXlXlXkXSXHXJXiX&XmXHXHXKXHXKXKXKXKXGXLXLXDXgX^.k.W (.kXsX_.h.n..X{.T.R.wXmXuX+Xm.L Q Z J W ",
"!.V._.j.V.j.!.nXY.A B.mXFXlX/.k./.tXkXZXjXOXnXHXJXxX&XcXmXHXHXKXKXKXKXKXLXGXAXrX~./ J I W OXzX.XT.b.T.rXoXm.(.uX+XE.L T b./ W ~.",
"C.}.CX!.N.V.n.sX+XV ( dXSXGXtXN.k.^.gXnXZXrXsXAXJXJXaX&XaXGXHXKXFXFXKXKXFXmXrXB.K C v C L g.sXhX|.!.h.^.sX~.{.'.~.^ K Q N.j.~.tX",
"[.DXlXT.n.b.W (.GXA T rXAXHXAX XQ k..XkXnXzXOXsXJXHXmXaXcXxXGXKXKXFXKXKXDXoX/ h j N k.W T b ( lXkX_.T.T.oXuXE.'.( T / j.b.B.!.sX"
};
