/* XPM */
static char *fd801d96816f4b829e98809173d8d916pZAevMohnOseYXpR[] = {
/* columns rows colors chars-per-pixel */
"64 64 78 1 ",
"  c gray36",
". c #5F5F5F",
"X c #606060",
"o c gray38",
"O c #8B8B8B",
"+ c #8E8E8E",
"@ c DimGray",
"# c #9B9B9B",
"$ c #AAAAAA",
"% c gray67",
"& c gray54",
"* c #7B7B7B",
"= c gray53",
"- c gray37",
"; c #656565",
": c #848484",
"> c #777777",
", c gray39",
"< c #A2A2A2",
"1 c #A4A4A4",
"2 c #646464",
"3 c gray57",
"4 c #A5A5A5",
"5 c gray44",
"6 c gray51",
"7 c #818181",
"8 c #6A6A6A",
"9 c gray66",
"0 c gray49",
"q c gray40",
"w c #9F9F9F",
"e c #A9A9A9",
"r c #6D6D6D",
"t c gray56",
"y c #9D9D9D",
"u c #6F6F6F",
"i c gray60",
"p c #7E7E7E",
"a c #A0A0A0",
"s c gray63",
"d c #838383",
"f c gray55",
"g c gray48",
"h c #6C6C6C",
"j c #A7A7A7",
"k c #626262",
"l c gray64",
"z c #5D5D5D",
"x c gray59",
"c c #767676",
"v c #929292",
"b c #808080",
"n c #797979",
"m c #9A9A9A",
"M c gray65",
"N c #686868",
"B c gray42",
"V c gray61",
"C c #898989",
"Z c #717171",
"A c #939393",
"S c #979797",
"D c gray52",
"F c #868686",
"G c #989898",
"H c #676767",
"J c gray47",
"K c gray62",
"L c #7C7C7C",
"P c #959595",
"I c gray45",
"U c #727272",
"Y c #747474",
"T c gray58",
"R c gray43",
"E c #888888",
"W c gray50",
"Q c #8D8D8D",
/* pixels */
"                    .X                                          ",
"                   oO+@                                         ",
"                  X#$%&.                                        ",
"                  *$%%=-                    ;:>-                ",
"                 ,<%%12                    .3$45                ",
"                 6$%$7                     89%$0                ",
"                q1%%w.                     6$%er                ",
"                t%%$*                     ,<%%y.                ",
"               u9%%i-                     p$%$0                 ",
"              -y%%er                     Xa%%sX                 ",
"              d$%%f                      g$%%7                  ",
"             hj%%<k                     ;l%%1,                  ",
"            zx%%ec                      v%%$b                   ",
"            ce%%3                      ne%%m-                   ",
"           oa%%MN                     ,l%%MB                    ",
"           b$%%:                      t%%$7                     ",
"          ,l%%<,                     >e%%V-                     ",
"          d$%$0                     Xs%%jh                      ",
"         ,1%%aX                     C$%$:                       ",
"         &$%$g                     59%%w.                       ",
"        Nj%%y-                    ,s%%eZ                        ",
"        A%%eZ                    -S%%%Oz                        ",
"       ge%%x                     D$%%m-                         ",
"      ,1%%M8                    u9%%1;                          ",
"     zF$%$b                    ,<%%$>                           ",
"     -=$%G-                   zA%%%&                            ",
"      Hf&k                    d$%%V-                            ",
"       X.                    Je%%M8                             ",
"                            5j%%e>                   r0q        ",
"                           H1%%$6                   u1ex,       ",
"                          .K%%$+                   .w%%s;       ",
"                         zA%%%x-                   0$%%=        ",
"                         b$%%wo                   N4%%<o        ",
"                        hj%%MN                   zS%%$0         ",
"                       ,s%%$L                    ne%%Pz         ",
"                      X#%%%+z                   N4%%jN          ",
"                      C$%%#-                    A%%$b           ",
"                     r9%%<;                    Ie%%x            ",
"                    zm%%e5                    Xw%%j@            ",
"                    D$%%+                     D$%%=             ",
"                   U9%%1;                    ,1%%ao             ",
"                  .w%%eY                     D$%$J              ",
"                  D$%%&                     ;4%%aX              ",
"                 ,4%%ao                     O%%$c               ",
"                 &$%$c                     Nj%%mz               ",
"                Hj%%#-                    zx%%eU                ",
"               z3%%eU                     L$%%Sz                ",
"               89%%xz                    Xs%%1q                 ",
"              zT%%9R                     E$%$W                  ",
"              Je%%Tz                    u9%%aX                  ",
"             os%%j@                    Xa%%eU                   ",
"             7$%%F                    -v%%%Qz                   ",
"            -=%%y.                    Ye%%V.                    ",
"             BmG@                    ,s%%j8                     ",
"              2,                     A%%%F                      ",
"                                    E$%%V-                      ",
"                                   ge%%jr                       ",
"                                  oT%%9>                        ",
"                                  -L1<>                         ",
"                                    hq                          ",
"                                                                ",
"                                                                ",
"                                                                ",
"                                                                "
};
