/* XPM */
static char *_fd378b1960d451aa2b253c4e68ca901Ao3jCUxVt1eINbbu[] = {
/* columns rows colors chars-per-pixel */
"64 64 209 2 ",
"   c #DA143F",
".  c #E11F46",
"X  c #E42346",
"o  c #E32449",
"O  c #EB2548",
"+  c #E62B4E",
"@  c #EB2C4B",
"#  c #F12E4C",
"$  c #EC324D",
"%  c #EE3D4F",
"&  c #F1344B",
"*  c #F2394C",
"=  c #E82E50",
"-  c #EC3452",
";  c #E73856",
":  c #ED3A54",
">  c #EE3E59",
",  c #F23551",
"<  c #F23C54",
"1  c #F23F59",
"2  c #EF4255",
"3  c #ED425B",
"4  c #E9485D",
"5  c #F44355",
"6  c #F64A57",
"7  c #F3445A",
"8  c #F64B5C",
"9  c #F9495A",
"0  c #F84C5D",
"q  c #F7515E",
"w  c #F9535E",
"e  c #ED4C63",
"r  c #F34760",
"t  c #F44D61",
"y  c #F84E60",
"u  c #ED5367",
"i  c #EE5469",
"p  c #EE586C",
"a  c #F65364",
"s  c #F95463",
"d  c #F55966",
"f  c #F95A65",
"g  c #F45569",
"h  c #F95769",
"j  c #F65B6B",
"k  c #F95D6A",
"l  c #E75E7A",
"z  c #F45D71",
"x  c #F96067",
"c  c #FA636D",
"v  c #FB686E",
"b  c #EC6477",
"n  c #EB647C",
"m  c #EF6B7E",
"M  c #F46373",
"N  c #FA6671",
"B  c #F46C77",
"V  c #FA6B73",
"C  c #F46C7B",
"Z  c #FA6D79",
"A  c #F5717E",
"S  c #FA737B",
"D  c #DB6887",
"F  c #DE768E",
"G  c #DF7995",
"H  c #E36784",
"J  c #ED6C83",
"K  c #E36E8A",
"L  c #ED7484",
"P  c #ED748B",
"I  c #EC7A8E",
"U  c #F37581",
"Y  c #F37985",
"T  c #F77A88",
"R  c #F37C8B",
"E  c #E77B93",
"W  c #EA7D94",
"Q  c #DD859D",
"!  c #F3838D",
"~  c #ED8294",
"^  c #EF8995",
"/  c #E5839A",
"(  c #EB859A",
")  c #E5899D",
"_  c #EC8B9D",
"`  c #F28493",
"'  c #F88791",
"]  c #F38994",
"[  c #F28799",
"{  c #F38E9B",
"}  c #F6929C",
"|  c #F8979E",
" . c #DC8DA6",
".. c #DE98AF",
"X. c #E48DA4",
"o. c #EC8DA1",
"O. c #F08EA0",
"+. c #E591A6",
"@. c #EC93A5",
"#. c #EF99A7",
"$. c #E496AC",
"%. c #EA96AA",
"&. c #E69AAD",
"*. c #EC9BAC",
"=. c #F294A3",
"-. c #F39AA5",
";. c #F29CAB",
":. c #E59DB2",
">. c #EB9EB1",
",. c #DEA4B6",
"<. c #EDA0AD",
"1. c #F2A1AE",
"2. c #F6A7AF",
"3. c #E5A3B5",
"4. c #ECA3B4",
"5. c #E5A8B6",
"6. c #EDA9B6",
"7. c #E5A5B8",
"8. c #EBA7B9",
"9. c #E6ABBC",
"0. c #ECACBB",
"q. c #F1A5B3",
"w. c #F2AAB6",
"e. c #F8ADB5",
"r. c #F1ADBA",
"t. c #E3B0BE",
"y. c #EDB1BE",
"u. c #F2B2BD",
"i. c #D5B7C7",
"p. c #DDB4C5",
"a. c #DDBDCC",
"s. c #E4AEC0",
"d. c #EAAEC0",
"f. c #E4B3C2",
"g. c #EDB4C2",
"h. c #E5BBC6",
"j. c #EDBAC5",
"k. c #E3BECB",
"l. c #ECBDCA",
"z. c #F1B6C2",
"x. c #F1BAC5",
"c. c #F2BDC8",
"v. c #E6BFD0",
"b. c #DDC1CF",
"n. c #D7C4D3",
"m. c #DDC5D3",
"M. c #DEC9D6",
"N. c #DDCDD9",
"B. c #DED1DB",
"V. c #E4C3CE",
"C. c #EBC3CD",
"Z. c #F1C3CD",
"A. c #E3C5D2",
"S. c #EAC6D1",
"D. c #E4CBD5",
"F. c #EBCBD5",
"G. c #E4CED9",
"H. c #E9CED9",
"J. c #F0C6D0",
"K. c #F2CAD3",
"L. c #E9D0D7",
"P. c #E5D3DC",
"I. c #EAD4DC",
"U. c #E4D8DF",
"Y. c #EBD9DF",
"T. c #F4D3DA",
"R. c #FAD4DC",
"E. c #F5D8DE",
"W. c #F8D8DE",
"Q. c #D9D9E3",
"!. c #DCDCE5",
"~. c #E3D7E0",
"^. c #E9D7E0",
"/. c #E5DBE3",
"(. c #EBDBE2",
"). c #F2DDE4",
"_. c #DEE0E6",
"`. c #D7E3EB",
"'. c #DCE5ED",
"]. c #DFE8EF",
"[. c #DCE7F0",
"{. c #DEE9F0",
"}. c #DEEAF1",
"|. c #E4E0E7",
" X c #EBE0E6",
".X c #E4E4EB",
"XX c #EBE4EA",
"oX c #E2E9EF",
"OX c #E4EAEE",
"+X c #E5EBEF",
"@X c #EAE9EE",
"#X c #F1E2E7",
"$X c #F1E5EA",
"%X c #F8E6EA",
"&X c #F2EBEE",
"*X c #E1EAF1",
"=X c #E5EAF1",
"-X c #E5ECF1",
";X c #E5EDF2",
":X c #E6EDF2",
">X c #E9EEF2",
",X c #F1EFF3",
"<X c #E7F0F4",
"1X c #EBF1F4",
"2X c #EDF1F5",
"3X c #ECF4F8",
"4X c #F1F4F7",
"5X c #F3F6F8",
"6X c #F5F8FA",
/* pixels */
"'.{.*X{.[.Q.N.a.n.n.M.M.M.a.B..X=X:X{.{.{.*XoX:X:X:X~.A.H./.~.P.G.G./.:X:X:X:X:X*X>X:X=X1XXXI.^.T.H.H.H.H.S.H.@X>XoX>X>X2X>X>X5X",
"'.`.`.`.[.Q.B.N.N.~.M.m.N.M.m.!.*X*X=X*X{.'.*X*X*X=XP.G.m.G.G.D.v.P.m..X:X[.*X:X*X:X>X*X:XXX/.H.G.P.^.~.~.P.~.|.*X=X+X=X:X2X1X2X",
"[.'.`.'.[.!.a.D.B.N.~.~.~.m.N..X{.*X*X:X*X*XoX*X=XoX~.~.~.H.G.G./.~.P.*X*X:X:X>X:X:X>X:X*X.X^.G.P.N.~.P.P.~.G.oX=X*X.X*XoX>X2X4X",
"*X[.{.{.[.!.n.m.G.N.M.m.N.D.a.Q.[.`.{.{.*X=X*X*X:X>XG.G.G.G.~.~.P.G./.>X:X:X=X>X:X:X:X:X<XXXH.G.^.~.G.P.P.P.(.@X>X>X*X:X>X>X2X6X",
"'.*X*XoX*X!.N.~.v.G.v.v.a.D.a.Q.`.`.`.`.{.'.'.*X*X.XG.A.A.~./.~.~.P.^.*X:X:X:X>X2X:X:X=X1XXX^.H.~.P.~.~.)./.I..XoX1X>X1X1X2X2X6X",
"*XoXoX*X<X/.G.D.~.G.A.G.A.N.M.`.[.`.`.{.[.*X'.{.[.*XP.G.S.m.G.m.G.G.G.@X:X*X>X>X2X2X<X1X<X.XH.^.^.~./.^.P.(.~..X:X@X+X>X>X1X1X6X",
"*X{.*X*X:X.XA.m.N.G.D.a.N.D.N..X}.{.*X{.{.*X=X{.[..Xm.A.L.^.D.~.~.A.P.*X>X:X*X>X2X2X2X2X>X@XH.S.I.(.H.H.P.G.A.>X:XoX:XoX:X1X2X5X",
"{.[.`.{.{..X/.N.N.N.A.N.G.G.m.Q.}.{.*X{.:X=X*X>X:X*X~.G.D.~./.~.G./.N.!.<X>X:X:X>X>X<X1X>X>XI.H.I.I.^.H.H.^.^.@X+X1X:X1X@X>X2X6X",
"!.B.P.Q.i.V.V.S.k.h.g.k.k.k.A.~.!.!..X_._.oX+X+X@X*XA.H.G.H.G./.|.H.P.{.'.>X3X1X<X1X1X1X<X*X/.^.(.~.I.(.I.U. X@X1X1X1X1X3X>X>X6X",
"..Q Q p.k.I + i g g g i e p i @.d.$.9.A.3.f.h.l.k.d.z J C n H l l P [ 0.A.p.p.L.I.H.F.H.T.d.` ` ( ^ | { ] ! L y.F.C.y.Z.Z.Z.L.%X",
"X.Q  .p.s.K + + r r - o o > - K $.:.:.d.g.y.g.0.c.*.1 , t , , O - r 7 ` l.>.$.5.d.d.4.*.q.;.9 k k s & , < 5 k q.<.@.4.*.1.u.u.W.",
"X.&.&.9.5.( 1 > > = ; ; ; + o P d.d.:.$.:.3.&.g.z.;.g Z h k y 1 7 j 8 O.x.d.c.g.0.Z.Z.z.x.e.V h 7 0 7 5 q 8 4 W ( *.u.u.u.q.u.W.",
"%.5.s.X.:.( ; - + = + r - , 7 6.l.+.:.7.+.:.:.:.:.>.r r O r r h 7 ; h @.g.4.z.u.u.l.c.z.z.O.k h 7 s 9 h s 7 0 ` @.o.*.l.w.4.w.R.",
"y.:. .:.s.H o = > + ; 1 a j g W X.>.>.$.7.:.:.7.d.>.- O 1 , 1 # < , r @.%.4.*.8.z.*.0.1.J.O., 9 & t 0 0 s c s 1.4.*.%.0.-.q.q.R.",
"o.$.s.4.X.l 7 : e g : : y + . D X.>.*.$.:.$.>.d.d.q.r - r 1 1 # 5 y r _ *.r.j.3.4.4.8.l.q.J , 1 0 c < 5 5 7 j ;.#.*.o.4.3.-.q.).",
"d.0.d.:.:.J - , t ; r :   . - _ $.$.$.>.7.d.$.>.d.W r r y h r 1 t y N r.6.8.*.&.3.d.8.( *.W , 7 9 h 0 , # 0 N 1.>.>.;.%.>.4.0.R.",
"z.0.0.d.0.P y 7 r t r o . , o W 3.$.:.g.7.f.7.>.d.o.O , r h g = 7 7 g %.%.>.>.%.0.*.>.3.1.{ N < < 7 5 7 7 5 - ( 0.*.o.4.8.d.4.T.",
"g.d.d.S.l.( e z j r ; : 1 = = @.&.&.:.:.d.$.$.:.d.=., . + O - > - ; . E 0.&.>.4.%.q.z.>.%.[ s w y , 5 9 7 s a _ *.q.1.q.0.z.r.).",
"@X>X@X@XXXP.g.l.8.d.l.4.d.7.:.G.P.N.P.N.v.B.a.N.N.v.X.W E E D K E K H ..p.f.A.A.A.v.H.S.H.x.` [ =.[ R W [ [ =.K.G.S.S.H.H./.(.$X",
"2X>X2X2X3XXXP.~.(.^.~.~.G.~.G..X:X{.*X{.{.[.*X*X[.*X~.B./.B.~.N.P./.G.{.[.[.{.'.*X>X3X2X:X@X/./.I.).H.H.P.Y.U.2X2X2X3X3X>X3X2X6X",
"2X>X2X2X2X@X(.I.H.I.H.L.I.H.D.|.*X*X*X*X{.*X}.[.*X.Xa.P.G.k.D.D.N.Q.H.+X=X{.'.'.[.'.=X>X<X|.G.P.H.I.H.P.L.H.Y.>X>X>X>X=X>X>X2X4X",
"2X>X>X>X2XXX(.(.Y.H./.I.I././.+X:X*X*X:X*X<X3X*X{.*X~.G.G.G.G.P.P.A.M..X*X=X=X:X*X[.{.{.*X/.G.H.^.(.(.(.(.I.XX2X>X>X>X>X2X>X:X4X",
">X2X2X>X2X@X).(.E.).).H.P.P./.@X=X>X>X>X=X=X:X:X<X=X~.A.A.G.M.M.G.a.M._.*X*X.X*X*X`.'.`.`.|.D.V.F.I.(.(.L.A./.oX>X>X>X>X=X:X:X4X",
">X>X4X5X2X&X).^.H.(.(.(.I.L.G.@X:X'.:X>X:X*X*X:X:X/.G.G.A.A.G.a.p.G.M.!.`.{.{.'.*X*X*X*X].|.G.D.A.D.I.G.G.D.P.'.oXoX*X*X*X*X>X5X",
"5X4X4X4X4X2XI.I.(.(.^.(.Y.Y.L./.:X*X=X*X{.:X:X].{.+XG.V.A.v.m.m.N.a.D.'.`.`.*X'.].*X=X*X:X.XP.H.L.b.b.G.M.B.U.<XoX'.'.].+X:X1X4X",
"4X2X2X>X2X2X(.Y.(.I.(.(.Y.I.I.@X:X*X*X*X:X:X1X*X:X+XP.N.P.D.G.m.n.a.a._.'.{.'.=XoX:X>XoX+X|.b.D.G.U.M.N.D.U.B.oX*XoX+XoX1X<X2X4X",
"@XXX>X4X5X@XXX(.E.).@X@X X(.(.2X3X2X>X{.{.{.:X:X*X.X~.P.D.B.~./.~.G.N.'.oX*X:X*X*X].{.*XoX/.m.V.U.M.I.P./.U.B.<X:X<X2X1X2X2X1X2X",
"S.z.Z.K.K.Z.} ' } -.2.;.q.2.e.K.XX(.(.XXXX/./..X+X/.D.S.h.a.m.P.~.G.D.!..X'..X'.[..X*X.XoXU.V.p.t.h.5.V.c.j.L.$XXXXX X XXXXX,X&X",
"z.u.e.r.z.e.v v f v x s v f 0 | q.6.c.r.0.d.r.8.8.*.i C j e e b L p b 3.,.,.,.,.f.s.9.k.k.E > 8 3 u d 3 > d ! <.y.u.6.8.6.y.C.K.",
"z.q.u.r.z.e.S v c c k V V v c } w.q.w.z.r.z.d.>.8.*.8 s 8 h 7 7 , < t / +.G X.&.>.7.7.3.8.P O @ @ d 3 5 $ X B 4.<.+.=.1.y.y.y.K.",
"c.z.8.4.g.z.Z V N w N f v v V } z.q.q.q.q.w.d.r.4.#.8 a t h M 5 a 7 ; &.9.<.4.+.o.4.q.d.6.P < 5 5 @ $ : 2 * 4 3.3.) *.X.<.y.C.T.",
"z.x.c.y.8.q.N s S v s c c N N =.z.u.r.r.c.J.z.z.C.q.h 7 7 3 t t 1 7 7 @.5.6.4.@._ ( 6.g.c.` 8 5 8 w X X @ @ 4 _ F Q 5.0.*.6.x.E.",
"j.y.y.u.g.w.V 0 q V S V V c c -.J.z.c.x.z.z.K.l.c.w.h V 7 - 8 t 8 5 g #.*.4.4.4.#.4.8.%.g.=.0 7 5 k k < - , i 8.~ ( q.6.u.u.J.E.",
"j.4.g.S.y.z.T S x , f S f w c { c.z.l.z.8.l.z.z.z.-.y s c V k c N 7 7 ;.w.y.#.*.g.>.%.4.5.[ < y 7 < 5 s 8 * a } y.8.( -.Z.Z.y.E.",
"x.g.8.4.y.g.M a Z V < f v v V ' z.z.z.r.c.z.d.;.l.q.k k V V h 8 d a k e.z.4.<.*.r.q.#.4.z.T 5 0 a & 5 y 8 6 q -.#.^ *.S.y.y.y.E.",
"Z.c.z.w.S.j.z 5 j c s * < V V T x.J.d.>.c.q.c.z.H.1.s g t N h < 1 8 a ;.;.u.r.*.{ 1.w.6.r.W a 8 < y s c 5 w B *.=.1.C.5.5.6.w.K.",
"@XXXXX@X XI.w.1.q._ #.u.{ J P >.H.J.F.l.J.z.l.K.c.z.Z y h a h f h N f =.g.<.0.4.@.6.4.*.w.[ c d y k N s a k A 4.) h.$.5.9.y.C.#X",
"+X>X1X1X1X2X.XG.H./.P.G.I.I.^./.3X1X3X3X>X@XXX.X$X$XJ.c.x.z.r.u.u.6.6.Y.(./.P.(. XU.P.(.L.C.6.4.l.y.g.h.Z.6.F.XX/.P.(.@X@XoX>X6X",
"+X+XoX+X>X>X(.H.D.A.H.P.V.H.I.(.>X:X1X:X>X<X<X<X3X,X(.).). X(.H.Y.XX(.oX<X<X:X:X:XoX*X*X<X/.D.Y.S.F.U.P.G.G.I.:X1X2X1X>X2X>X1X4X",
"oX+XoX1XoX:X(.L.F.H.(.Y.Y.P.H.XX:X=X=X>X:X2X,X2X2X@X(./.^.(.#X(.H.F.U.@X<X@X<X@X1X<XOXOX*X.XF.L.S.F.I.P.U.H.P.+X>X:X+X>X>X>X>X5X",
":X+X+X<X<X@XI.L.I.(.F.(.(.(.(.@X2X2X>X>X2X4X2X2X>X>X(.).(.^.(.(.(.Y.F.@X>X:X+X+X>X>X+X1X1XY.D.D.L.L.D.L.L.L.Y.1X1X>X>X>X>X@X+X4X",
"+X+X+X+X>X@XY.P.Y.(.I.Y.(.(. X&X2X2X4X4X2X2X2X4X4X,X).I. X(.F.(.I.Y.I.@X:X>X>X>X>X:XoXOX1XOXV.L.V.L.L.D./.Y.Y.<X+X>X1X>X>X1X1X4X",
"+X+X+XoX].+XL.L.A.L.(.P.Y.Y.(.XX2X2X2X>X4X2X2X5X4X>X^.(.I.I.^.H.Y.(.I.2X>X:X@X>XoXoX@X1X+XU.F.L.P.S.C.Y.U.L.L.+X@X:X>X+X>X>X1X4X",
"+XoX+X+X+XoXP.D.P.U.(.(.G.Y.(.@X>X2X>X4X2X2X4X>X4X4X^.^.(.^.^.#X(.Y.(.@X1X>X:XoX>X1X<X@X<XXXV.L.F.C.F.C.L.L.~.>X>X1XoX>X1X2X2X4X",
"+X<X:X>X<X+XY.Y.(.Y.~.(.(.U.Y.@X2X:X>X1X>X2X2X2X3X>XXX(.Y. X X X(. X(..X1X:X:X1X>X>X>X>X3X&X XL.D.C.C.L.I.Y.Y.>X+X+X<X:XoX@X1X4X",
"XX X|.@X@XXXC.Z.C.C.C.D.D.Y.I.|.1X1X>X>X>X1X3X3X2X2XXX(.|./.Y.Y.(.XXXX>X1X1X1X1X3X1X<X+X+X>XI.Y.(.I.F.Y. XY.L.1X>X<X1X1X1X>X1X6X",
"Z.g.y.r.y.w.v k z M A j p g C q.H.H.H.H.).H.L.(.I.L.4.} -.-._ =.=.-.-.C.Y.I.F.I.L.C.D.L.Y.5.] } ^ ! ! Y ! ! ^ u.u.L.S.Z.K.Z.C.T.",
"y.4.#.q.r.e.T d a 5 5 f 8 8 5 L l.l.g.l.g.g.S.J.6.;.c q w S M 8 7 5 d -.y.y.w.6.<.-.<.1.e.' w * * 6 f w 2 6 q ] } 1.Z.y.<.u.u.T.",
"4.@.4.h.*.o.r t S U j a h c c _ d.8.g.>.4.l.l.j.g.1.Z t 7 Z U 5 q f x -.y.<.<.6.w.*.;.-.C.#.d 6 w 6 6 6 6 6 6 | <.<.#.6.r.2.<.Z.",
"%.*.4.C.j.;.g t h t N Z h 3 d ' c.>.4.d.>.0.x.d.>.;.h k c 8 < k c V k ^ w.{ 6.u.u.2.y.Z.0.I w w 6 6 2 2 6 x B -.1.r.6.;.2.c.e.J.",
"g.&.&.8.g.%.g 7 7 1 1 a 4 t d R 6.c.:.@.8.>.>.z.c.=.5 h k f c 7 q s k } j.6.q.5.<.y.u.@.1.} d * 6 w 6 6 6 6 v <.6.@.y.6.6.z.u.T.",
"x.*.>.0.4.[ 8 j N N 7 ; 1 t a R d.d.j.%.>.4.8.8.>.e.S a q d v 8 6 d 5 ] <.j.q.<.8.w.1._ u.@.$ 6 w q 6 6 2 x S -.~ ) 6.q.j.u.6.j.",
"4.@.*.6.4.q.t t a 7 g k : X a { z.%.8.@.$.g.0.4.6.;.a k N a 7 w a k 8 @.<.#.y.Z.8.+.;.6.6.} d w 6 $ * 6 d % + _ #.w.w.c.r.u.Z.T.",
"*.*.x.4.>.q.j - : 7 7 t r d 7 I r.>.g.8.#.0.>.*.z.1.a a h h a 3 : 5 8 } u.1.0.5.6.6.6.@.y.1.6 5 2 w w 2 2 + 6 ^ ;.r.4.1.C.C.c.W.",
"g.*.6.0.0.W < a g 7 0 k h 7 t J 0.j.8.g.*.4.0.4.>.o.s h f 5 s 8 s s f ;.w.Z.6.6.y.y.y.j.V.^ q w 5 q 6 * * 6 2 -.4.) ;.4.j.6.j.T.",
"U.Y.(.I.(.S.r.u.q.;.@.-.#.#.=.g.F.S.F.S.k.S.l.j.j.c.J C T U A j B b Y <.5.C.V.C.F.F.Z.C.L.y.A A S ! B m m ^ } h.F.C.C.F.h.F.I.#X",
"<X*X<X<X2X>XG.Y.^.(.XX(..X/.(.>X<X<X<X+XoX:X1X:X:X+XD.H.S.D.C.C.F.F.F./..X.X@XoX+X>X>X+X4XXXF.L.I.L.C.Y. XL.C.<X<X<X<X+X:X1X1X4X",
"*X*XoX1X@X>XI.G.(./.(.P.(./.(.>X1X>X>X1X*XoXoXoX=X@XL.D.(.H.P.U.P.H.L.@X2X1X2X:X+X1X>X+X+XXXF.L.L.C.F.S.D.V.D._.'.:X+X:X1X+X1X4X",
":X:XoX+X<X+XL.Y.^.XX/.Y./.(.(.@X<X1X1X+X1XoX:X+X:XXXF.(.P.P.F.U.D.Y.L.XX1X1XoX>X>X<X>X+X+X+XL.V.D.L.P.D.h.D.U.|.'..XoXoX<XXX1X6X",
"@X>X+X+XoX.XD.P.P.^.(.(.XX(.P.@X<X@X1X1X1X:X>X<X*X|.L.Y.(.P.L.L.I.V.G.XXoX+X@X+X>X+X>X@X+XXXL.D.V.D.D.L.L.L.D.@X>XoX].oXOX1X:X2X",
":XoX+X@X>XoXI.P.G.P.P. XXX(./.XX1X1X1X:X1X>XoX:X:X.XH.A.L.I.L.D.V.D.S.+X+XoX+X+XOXOXOX+X:XXXL.L.C.V.I.I.U.C.V.OX@XOXOXOX@X<X@X6X",
":X:X1X:X:X.XD.D.P.Y.U./.XX/.(.@X1XoX>X1X@X2X1X2X1X>XG.G.I.P./.Y.L.V.M.+X*X'.'.oX+X+X+X+XOXOX|.I.D.L.I.U.L.L.L.OX<X1XOXOXOX3X:X1X",
"OX:X+X:X=X/.A.(.V.A./.~.P.(.I.$X1X1X1X1X1X1X+XoX=X@XG.L.J.L.D.D.L.D.t.+X1X+X+X_.OX+X>X>X+XXXV.V.V.V.D.V.C.P.V.XXOX:X+XOXOX+X+X3X",
"3X1X4X1X4X4X$X#X(.#X(.).&X$X).,X4X4X4X4X4X4X4X2X4X4X).).I.#X$X$X#X#X&X1X4X4X6X1X4X>X>X:X3X1X(. X#XY.XXY. X#XXX@X1X4X3X1X1X4X5X4X"
};
