/* XPM */
static char *result[] = {
/* columns rows colors chars-per-pixel */
"64 64 121 2 ",
"   c #000000",
".  c #0B0102",
"X  c #020B03",
"o  c #130102",
"O  c #1B0203",
"+  c #031304",
"@  c #041B04",
"#  c #071608",
"$  c #061D08",
"%  c #240203",
"&  c #2B0203",
"*  c #340203",
"=  c #3B0203",
"-  c #042305",
";  c #052A05",
":  c #072408",
">  c #082408",
",  c #072C09",
"<  c #082D0A",
"1  c #033403",
"2  c #033D02",
"3  c #073308",
"4  c #08330A",
"5  c #073A08",
"6  c #093B0A",
"7  c #430203",
"8  c #4B0203",
"9  c #530204",
"0  c #5D0203",
"q  c #640203",
"w  c #6B0203",
"e  c #740203",
"r  c #7B0203",
"t  c #034403",
"y  c #084304",
"u  c #024B02",
"i  c #094C05",
"p  c #0A440C",
"a  c #0A4C0C",
"s  c #025303",
"d  c #025C03",
"f  c #0A5E05",
"g  c #0B540D",
"h  c #0C5C0E",
"j  c #0D5E10",
"k  c #026203",
"l  c #0A6105",
"z  c #036B03",
"x  c #0B6903",
"c  c #0D630F",
"v  c #0D6B0F",
"b  c #037403",
"n  c #0A7704",
"m  c #037C04",
"M  c #0B7A04",
"N  c #0E720F",
"B  c #0E6410",
"V  c #0D6B10",
"C  c #0E7411",
"Z  c #0F7B12",
"A  c #107413",
"S  c #107D13",
"D  c #840204",
"F  c #8C0304",
"G  c #940304",
"H  c #9C0304",
"J  c #A40304",
"K  c #AB0304",
"L  c #B50204",
"P  c #BC0204",
"I  c #C30204",
"U  c #CB0203",
"Y  c #D40203",
"T  c #DC0203",
"R  c #E30203",
"E  c #EB0203",
"W  c #F40102",
"Q  c #FC0101",
"!  c #038304",
"~  c #0D8204",
"^  c #048C04",
"/  c #058609",
"(  c #049305",
")  c #0E9305",
"_  c #039B05",
"`  c #0F8312",
"'  c #108413",
"]  c #118C14",
"[  c #119315",
"{  c #129B15",
"}  c #04A505",
"|  c #0EA204",
" . c #04AC05",
".. c #11AF05",
"X. c #04B305",
"o. c #0FB704",
"O. c #04BC05",
"+. c #10B204",
"@. c #12BB03",
"#. c #13A316",
"$. c #14AA17",
"%. c #14A618",
"&. c #14A818",
"*. c #15B217",
"=. c #14B018",
"-. c #14BB18",
";. c #04C404",
":. c #03CC04",
">. c #11C304",
",. c #14C904",
"<. c #03D304",
"1. c #03DB04",
"2. c #14D503",
"3. c #14DA03",
"4. c #03E304",
"5. c #03EC04",
"6. c #14E203",
"7. c #16EC02",
"8. c #03F404",
"9. c #01FD02",
"0. c #17F402",
/* pixels */
"    8 & . * 0               w 7 O                                               X } 1.1.1.;.n  .9.9.<.1.:.:.9.9.X.4.9.9. .<.@   ",
"%         O q             7 0 w 7 .   q w %                                       X @ 1 d ^ X.1.8.9.1.5.:.O.9.8. .8.8.<.8.X.@   ",
"L %     . & w             0 &   8 * O 9 e 8 .                                                 X @ d _ <.8.8.9.8.v d } :.:. .@   ",
". .     O D .             9 8   * = % *   = 7             * 7 % o                 % & .                 X 1 s m X.<.4.4.X.4.@   ",
"        = *                 7 H w O O 7 . % 0 O 8 . . .   D Q E T w               K E Y L r = % . .               X - t ! O.@   ",
"        & 8     o O       O e 8 0 o . 7 J G w O G % & &   7 Q Q Q G               H I e T Q Y R Y L F q * .   .                 ",
"        & 0     = U *     . D   % q   X O * w . J * D .   . Y Q Q q               F J E P T G G Q Q U Q Q Q Y L D 9 o           ",
"        o 8     % G =     . e O % 0 . 8   X e     q &       q Q R =               F W W L Y R T P R F Q Q Q Q Q L U R Y K D o   ",
"                . O o       O G H &   = 7 % q . % 8 q =     & R U o               r W F L W Q Y P Q J Q Q Q Q Q G J P Y r T %   ",
"                            . O * .   . D H &   0 % e w     o U K .               e Q Y P W Y H E Q L W Q Q Q Q K W W P Y P %   ",
"                                                & . 8 q       r e                 q P W P T K W Q Q P W Q Q Q Q G K W K R E O   ",
"                                                              O &                 9 T H K R H T W Q P E W E Q Q U J Y G D T %   ",
"      + C h a 3                                                                   7 R R R W H H L E e U T D Q Q Q W G K W P %   ",
"Z X     [ ' { $.X             + X                                                   X % 9 r J U R Q E E R H Q Q D G I L E K %   ",
"v +     N +                 X S $.B   : C h p +                                                   o = 9 e G L U T U W E F T &   ",
"Z 3 +   B #                 : 6 X , p - ] Z [ 6                 +                   - +                       X o & 8 e J I %   ",
"{ %.[ X h [ C ,             - g   $ B @ g X , 6               X ) X               @ 4.1.:.X.( b d 2 @                   . .     ",
"g a     # 6 a 6 #             : V j V       : g $ ' - $ +     y 3.-               @ 4.O.1.9.4.} 4.9.8.8.<.O._ b u @             ",
"3 a       X   3 Z             + B ' ] X     j $ $ { p g :     ) 7.x               + :./ 1.8.} } ;.8./ } 9.9.9.9.8.1.5.<. .^ @   ",
"X :     X @ X $ '   ] h       4 X . C X   6 a   X g g g     X >.0.>.              X ;.1.<.9.( 1.( ;.1.;.5.9.9.9.O._ <.4.! 1.1   ",
"        - { &.{ $   ` C     X A # X Z #   < a     X p $ .   @ 2.0.0.-             X O.4.:.9.( X.( ;.<.( 4.9.9.9. .4.}  .4.O.1   ",
"            X @     p g         ] { 3     @ B     p B { B   1 7.0.0.~               X.4.O.9._ :.O.:.} ..4.9.9.9.X.X.( X.1.O.1   ",
"                                + > +     X a     B + ' c   ; @.2.6.| X             } 1. .9. .5.;.:._ :.1.5.9.9. .;. .<.! :.1   ",
"                                                  X   @ #     X + @ @               ( X.( 8.4.^ X.5. . .1./ 8.9.X.4.X._ 8.O.1   ",
"                                                                                    k O.<.4.8.8.9.9.<.O.8.! 5.9.4.! ;.<.;.X.2   ",
"            $ - +                                                                         X   + - 1 s z ! (  .;.:.<.4.5.O.4.1   ",
"  X :     X C $.]                 :       X X X                                                                 X + @ ; 1 s @   ",
"  $ `     < j + 3 3             X C @   . 6 { V .                 .                 t ( m z s t 1 @ +                           ",
"  X =.X   . X   @ a             : %.,   @ C X < g               - i                 s ^ ( O.9.1.5.9.8.5.4.<.;.X._ m d t ; +     ",
"a &.{ [ g     6 g 6               p 5     #   @ V $ a X $ X     i ..                a _ ;.:.5.(  .8.4.( 9.9.9.9.8.O.1.9.<.5.t   ",
"X @ ' 6 $   X g p #               , g       4 C < $ [ : g $     ~ 0.;               t _ 9.9.4.4.8.5.;. .9.9.9.9.;.:.O.;. .;.t   ",
"    j $     3 p       X           @ c       @ g 6 # V 6 a       @.0.M               2 n / 1.1.( O.8._ } 4.9.9.9.5.8.;.<.8.O.t   ",
"    ; @     v 6 @ @   c [ @       + C     p X . Z X X B : X   @ 7.0.,.@             2 8.8.X.4.;.:.5.O./ O.9.9.9.9.X.O.9.:.O.u   ",
"            c %.%.#.; 6 [ @       p [ :   a 4 > V X < 6 { 4   f 0.0.7.5             1 4.5.X.4.4.4.1.9.O.5.1.5.9.5.<.9.8.5.;.u   ",
"            X + # @ X X - X       3 g :     j S :   g X ` 6   c 3.6.7.l             1 _ ^ :.8._ ^ 8.9.;.8.^ O.9.;.O.<.;.1.O.u   ",
"                                                        .             X             - X.:.1.4.5.8.9.9.8.8.4.4.9.1.} } 8.^ ;.u   ",
"                                                                                                X X + @ ; 1 2 t s d z z m ! 1   ",
"                                                                                                  .                             ",
"              @ B B X               X @       X                                     + ^ _ ^ ^ m m b z d d s u t 1 ; - @ X X     ",
"      a @   . p g j 4 X             4 ] X   6 -.{ X               ; X               - _ n b 8.O._ 5.O.} ;.8.9.9.9.1.4.9.8.9.s   ",
"      V p     S X   a X           @ A A @ . B X $ 4   X           M f               @ _ :.X.1.:.;.<. .O.:.9.9.9.4.} X.1._ X.d   ",
"    3 V v ,   C < @ #             h # g ,   X   $ 6 : ] # B X   X +.o.+             + :.9.:.<.:.8.8.O.8.9.9.9.9.<.4.1.X.:.( d   ",
"    ' [ [ [ + j ] ] j             c %.$.] +   5 ' : : { 4 p     - 2.3.1             + <.8.;.5.( _ 5.X.^ <.9.9.9.5._ _ O.O.( d   ",
"      - `   . a a   6 6   X X         6 a     X # p X # g # X   y 7.0.M             X :.<.<.8.O.5. .9.9.;.4.4.9.8.8.4.;. .;.d   ",
"        V     3 B   , 6 @ ` :         , V   3 @ X j   < g V #   x 0.0.,.            X ;.1.<.8.O.;.O.4.<.O. .( 9.4.:.<.<.;.O.d   ",
"        +     X p { C $ @ { g         @ Z   # V ' 6 X B : { <   M 0.0.7.-             ;.8.5.9.4.O.8.1.X.1.1.:.9.8.;.;.9.;.<.k   ",
"                X : >     - @         X :     @ < X   :   < #                         t d d d k d k k d k k k k k k k k k k ;   ",
"                  .                                                                   .           .                             ",
"                                                                                      O % % & & & & * * * * = = = 7 7 7 7 8 %   ",
"                                                  .                                   r E T W E P R E I U W W Q W I I Q E U w   ",
"                    7       o *               = H 9             o 9 q q *             w T L Q U L P R L P W Q Q E U U E K L w   ",
"                  = r .     7 w             . 9 * 7 =           = E Q Q G             q T K Q T W L Y Y J E Q Q Q E Y Y L L w   ",
"                  8 e .     * D .           . q   . o * r o q . o I Q Q 8             9 W P Q Q U P T K I E Q Q Q R K R J F w   ",
"      . . o o .   . 9 o     . D .           . w w q . * H 9 *   . e Q W o             7 W L Q W L W Y J T R Y Q W E R R W P e   ",
"      * G G G =     7 %       D o             w * % 9 X % 9 o     o R K               * E H W K L I R K L R D Q W L K W W U r   ",
"        .           7 &     X r O   . = o     q .   w   * 8 e o     H e               & R F T U H J W P I E I R R U I Y Y I q   ",
"                    = 8 .   . e 8 . O G =     % q D = . q % J O     = &               o e w 0 9 8 7 * * & & % O O o o . . .     ",
"                    K P O   o r r o . w *       & & .   . . .       .                   .                       .               ",
"                    .                                                                   ; ; 2 t u d k b ! ( }  .X.O.O.1.<.<.m   ",
"                                                                                        4.1.4.8.:.;.9.X._ 8.9.9.9. .^ 5.O.X.m X ",
"                                                                      X                 :.X.O.<.X.O.1.:.<.5.9.9.8.5.4.4.4.:.b   ",
"                        X     : 6 :               V X               @ M                  .4.1.O.O.<.<.9.<.5.9.9.9.8.! 8.4.} ^   ",
"            .       6 { C + X j C g +           @ ' +   + @   +     y 3.@               O._ ..8.O.^ <.8.X.4.8.9.9.;.8.8.5.:.n   ",
"            p :     B X $ p # <   p 5             V @   p ' - ,     M 0.)               _ 1.4.1.1.4.;.<.4.4.} 8.8. .X.4. .} ^ X "
};
