/* XPM */
static char *result[] = {
/* columns rows colors chars-per-pixel */
"64 64 226 2 ",
"   c #CBAA70",
".  c #C39F5F",
"X  c #C39E5E",
"o  c #CAA96F",
"O  c #CDAD75",
"+  c #CAA86E",
"@  c #CBAB71",
"#  c #C5A162",
"$  c #C4A061",
"%  c #CCAC73",
"&  c #C6A265",
"*  c #C29C5C",
"=  c #C7A568",
"-  c #CDAD74",
";  c #C7A467",
":  c #C8A569",
">  c #CCAB72",
",  c #CBAA71",
"<  c #C9A86D",
"1  c #C8A66A",
"2  c #CCAB73",
"3  c #C5A163",
"4  c #C19C5B",
"5  c #C29E5E",
"6  c #C6A264",
"7  c #CBA970",
"8  c #C4A062",
"9  c #C29D5D",
"0  c #C9A76B",
"q  c #C5A264",
"w  c #C39E5F",
"e  c #C6A365",
"r  c #CCAC74",
"t  c #C9A76C",
"y  c #CAA96E",
"u  c #CDAC74",
"i  c #C6A366",
"p  c #C19B5A",
"a  c #C09A58",
"s  c #C29D5C",
"d  c #C29E5D",
"f  c #C39F60",
"g  c #D4B561",
"h  c #D3B366",
"j  c #CAA86D",
"k  c #DABD50",
"l  c #E1C637",
"z  c #E8CD23",
"x  c #E9CF1D",
"c  c #EAD215",
"v  c #EBD213",
"b  c #EAD117",
"n  c #E8CE20",
"m  c #E4C92E",
"M  c #E1C539",
"N  c #D1B26A",
"B  c #DBBE4C",
"V  c #E7CD24",
"C  c #EAD214",
"Z  c #E9D20F",
"A  c #E8D10F",
"S  c #EAD30F",
"D  c #EAD118",
"F  c #E4C930",
"G  c #D6B85B",
"H  c #CFAF71",
"J  c #C49F60",
"K  c #C19C5A",
"L  c #CEAE73",
"P  c #DABD4D",
"I  c #E8CE23",
"U  c #EAD30E",
"Y  c #EBD40E",
"T  c #EDD50D",
"R  c #EFD70D",
"E  c #F0D80C",
"W  c #EED60D",
"Q  c #ECD50E",
"!  c #EBD212",
"~  c #E2C734",
"^  c #C8A66B",
"/  c #CEAE6E",
"(  c #DEC142",
")  c #E9D10F",
"_  c #F1D90C",
"`  c #F5DC0A",
"'  c #F6DD0A",
"]  c #F4DB0B",
"[  c #F0D70C",
"{  c #ECD40E",
"}  c #EAD20F",
"|  c #E9D01B",
" . c #D7B958",
".. c #C4A162",
"X. c #D0B067",
"o. c #E3C727",
"O. c #EAD210",
"+. c #F2DA0B",
"@. c #F1D80C",
"#. c #EAD216",
"$. c #DDC047",
"%. c #C7A468",
"&. c #E5CA29",
"*. c #EBD30E",
"=. c #F5DC0B",
"-. c #F2DA0F",
";. c #F0D912",
":. c #F3DB0E",
">. c #F5DD0B",
",. c #EAD20E",
"<. c #EBD214",
"1. c #DEC144",
"2. c #CFB06F",
"3. c #DFC340",
"4. c #EBD311",
"5. c #EED715",
"6. c #E8D31D",
"7. c #E7D11F",
"8. c #E6D120",
"9. c #E6D11F",
"0. c #F0D812",
"q. c #EFD70C",
"w. c #D5B654",
"e. c #D8BA56",
"r. c #F1D911",
"t. c #E7D21F",
"y. c #F2DA10",
"u. c #E4C924",
"i. c #CEAF71",
"p. c #E6CC27",
"a. c #ECD519",
"s. c #D5B53F",
"d. c #EBD310",
"f. c #F3DC0D",
"g. c #E9D31C",
"h. c #E9D01A",
"j. c #D0B168",
"k. c #CBAB72",
"l. c #E5CA2D",
"z. c #E9D20E",
"x. c #F2D90C",
"c. c #F4DB0D",
"v. c #E8D21D",
"b. c #E7D21E",
"n. c #EDD616",
"m. c #F5DC0C",
"M. c #DABD4E",
"N. c #D7BA50",
"B. c #E8D21E",
"V. c #EBD51A",
"C. c #EED716",
"Z. c #F3DB0F",
"A. c #F3DB0D",
"S. c #E6CC28",
"D. c #D0B06E",
"F. c #C9A76D",
"G. c #EDD617",
"H. c #E9D41B",
"J. c #EDD716",
"K. c #F1DA11",
"L. c #EDD60D",
"P. c #EAD116",
"I. c #D0B26A",
"U. c #E4C92F",
"Y. c #F3DA0B",
"T. c #EAD310",
"R. c #D4B562",
"E. c #EBD519",
"W. c #EBD410",
"Q. c #DEC145",
"!. c #E9D01C",
"~. c #EBD518",
"^. c #EAD41B",
"/. c #F3DB0B",
"(. c #DFC242",
"). c #E9D41C",
"_. c #F0D813",
"`. c #E8CE21",
"'. c #F2D910",
"]. c #DEC143",
"[. c #E5CA2C",
"{. c #F4DC0D",
"}. c #EBD40F",
"|. c #D8BA54",
" X c #EFD714",
".X c #DCBE4A",
"XX c #EFD814",
"oX c #E8D31E",
"OX c #F2DB10",
"+X c #F4DC0C",
"@X c #D0B06C",
"#X c #E6CB22",
"$X c #CDAD73",
"%X c #D9BB43",
"&X c #CEAF6D",
"*X c #E9CF1C",
"=X c #F4DC0E",
"-X c #DBBE4B",
";X c #E8CF1F",
":X c #D2B367",
">X c #EFD813",
",X c #F1DA10",
"<X c #DEC146",
"1X c #ECD50D",
"2X c #F5DD0A",
"3X c #ECD517",
"4X c #EDD715",
"5X c #F2D911",
"6X c #ECD50F",
"7X c #D4B660",
"8X c #E9CF1E",
"9X c #EDD50F",
"0X c #D7B959",
"qX c #EED70D",
"wX c #E0C43D",
"eX c #CFAF70",
"rX c #E1C639",
"tX c #DCBF49",
"yX c #E0C43E",
"uX c #C29C5B",
"iX c #ECD313",
"pX c #E9D11A",
"aX c #E7CC25",
"sX c #D9BC51",
"dX c #C19B59",
"fX c #C7A569",
/* pixels */
"  . X o O O O O O O O O O O O O O O O O O O O O O O O O O O O O O O O O O O O O O O O O O O O   + @ O O O O O O O O O O O O O O ",
"  # $ o O O O O O O O O O O O O O O O O O O O O O O O O O O O O O O O O O O O O O O O O O O % & * = - O O O O O O O O O O O O O ",
"O @ @ O O O O O O O O O O O O O O O O O O O O O O O O O O O O O O O O O O O O O O O O O O O % ; X : - O O O O O O O O O O O O O ",
"O O O O O O O O O O O O O O O O O O O O O O O O O O O O O O O O O O O O O O O O O O O O O O O > , % O O O O O O O O O O O O O O ",
"O O O O O O O O O - < 1   O O O O O O O %   , O O O O O O O O O O > > O O O O O O O O O O O O O O O O O O 2 : : % O O O O O O O ",
"O O O O O O O O O 2 3 4 : O O O O O O O 1 5 6 > O O O O O O O O 7 8 3   O O O O O O O O O O O O O O O O O 7 9 9   O O O O O O O ",
"O O O O O O O O O % ; $ 0 O O O O O O O 1 9 q > O O O O O O O O o X w   O O O O O O O O O O O O O O O O O , & e , O O O O O O O ",
"O O O O O O O O O O 2 > r O O O O O O O % 7   O O O O O O O O O r t t r O O O O O O O O O O O O O O O O O O % % O O O O O O O O ",
"O O O O O O O O O O O O O O O O O O O O O O O O O O O O O O O O O O O O O O O O O O O O O O O O O O O O O O O O O O O O O O O O ",
"O O O O O O O O O O O O O O O O O O O O O O O O O O O O O % + y O O O O O O O O O O O O O O O O O O O O O O O O O O O O O O O O ",
"O O O O O O O O O O O O O O O O O O O O O O O O O O O O u i p 5   O O O O O O O O O O % % O O O O O O O O O O O O O O   : t r O ",
"O O O O O O O O O O O O O O O O O O O O O O O O O O O O u # a s   O O O O O O O O O , & e @ O O O O O O O O O O O O O 1 4 $ > O ",
"O O O O O O O O O O O O O O O O O O O O O O O O O O O O O + i 1 O O O O O O O O O O o 9 d   O O O O O O O O O O O O O < # ; 2 O ",
"O O O O O O O O O O O O O , , - O O O O O O O O O O O O O O O O O O O O O O O O O O > : 1 % O O O O O O O O O O O O O - 2 % O O ",
"O O O O O O O O O O O O , # f + O O O O O O O O O O O O O O g g g g g h O O O O O O O O O O O O O O O O O O O O O O O O O O O O ",
"O u u O O O O O O O O O , $ X j O O O O O O O O O O O k l z x c v v b n m M g O O O O O O O O O O O O O O O O O O O O O O O O O ",
"< 3 ; r O O O O O O O O O o o u O O O O O O O O N B V C Z A A A A A A A A S D F G H O O O O O O O O O O O O O O O O O O O O O O ",
"J a K o O O O O O O O O O O O O O O O O O O L P I S A A U Y T R E E E W Q Y Z Z ! ~ G O O O O O O O O O O 7 ^ y O O O O O O O O ",
"J a p o O O O O O O O O O O O O O O O O O / ( C ) A Z T _ ` ' ' ' ' ' ' ' ] [ { A } |  .O O O O O O O O - ; 4 & % O O O O O O O ",
"t ..i % O O O O O O O O O O O O O O O O X.o.O.A Z T +.' ' ' ' ' ' ' ' ' ' ' ' ` @.{ A #.$.O O O O O O O - 1 f %.% O O O O O O O ",
"O r r O O O O O O O O O O O O O O O O O &.} A *.E ` ' ' ' ' ' ' =.-.;.;.:.>.' ' ' ] T ,.<.1.O O O O O O O % > % O O O O O O O O ",
"O O O O O O O O O O O O O O O O O O 2.3.4.A Y _ ` ' ' ' ' ' =.5.6.7.8.8.9.6.0.>.' ' ] q.,.| w.1 j - O O O O O O O O O O O O O O ",
"O O O O O O O O O O O O O O O O O O e.#.A U _ ` ' ' ' ' ' r.6.8.8.8.8.8.8.8.t.y.' ' ' ] W Z u.p q % O O O O O O O O O O O O O O ",
"O O O O O O O O O O O O O O O O O i.p.Z A E ' ' ' ' ' =.a.9.8.8.8.8.8.8.8.8.8.5.' ' ' ' ] T O.s.= % O O O O O O O O O O O O O O ",
"O O O O O O O O O O O O O - > > O  .d.A Q ] ' ' ' ' f.g.8.8.8.8.8.8.8.8.8.8.9.;.' ' ' ' ' +.U h.j.O O O O O O O O O O O O O O O ",
"O O O O O O O O O O O O O < $ q k.l.A z.x.' ' ' ' c.v.8.8.8.8.8.8.8.t.b.t.b.n.m.' ' ' ' ' ' W Z M.O O O O O O O O O O O O O O O ",
"O O O O O O O O O O O O O t 9 J N.#.A Q ' ' ' ' m.g.8.8.8.8.8.8.B.V.C.y.Z.A.' ' ' ' ' ' ' ' +.} S.D.O O O O O O O O O O O O O O ",
"O O O O O O O O O O O O O > t F.( Z Z E ' ' ' ' G.8.8.8.8.8.9.H.J.K.=.' ' ' ' ' ' ' ' ' ' ' ] L.P.I.O O O O O O O O O O O O O O ",
"O O O O O O O O O O O O O O O O U.A Z Y.' ' ' :.t.8.8.8.8.t.V.y.=.' ' ' ' ' ' ' ' ' ' ' ' ' ' R T.R.O O O O O O O O O O O O O O ",
"O O O O O % > u O O O O O O O N V A *.] ' ' ' 5.8.8.8.8.t.E.;.' ' ' ' ' ' ' ' ' ' ' ' ' ' ' ' _ W.Q.O O O O O O O O O O O O O O ",
"O O O O % %.8 t O O O O O O O N !.A T ` ' ' ' ~.8.8.8.8.^.G.m.' ' ' ' ' ' ' ' ' ' ' ' ' ' ' ' /.{ (.O O O O O O O O O O O O O O ",
"O O O O 2 # 4 : O O O O O O O N | A T ` ' ' ' E.8.8.8.8.)._.' ' ' ' ' ' ' ' ' ' ' ' ' ' ' ' ' ] { (.O O O O O O O O O O O O O O ",
"O O O O u t :   O O O O O O O N | A T ` ' ' ' n.8.8.8.8.8.E.m.' ' ' ' ' ' ' ' ' ' ' ' ' ' ' ' ] { (.O O O O O O O O O     O O O ",
"O O O O O O O O O O O O O O O N `.A T ` ' ' ' '.8.8.8.8.8.8.g.:.' ' ' ' ' ' ' ' ' ' ' ' ' ' ' ] { ].O O O O O O O O   $ f o O O ",
"O O O O O O O O O O O O O O O 2.[.A Y ] ' ' ' {.B.8.8.8.8.8.8.b.0.>.' ' ' ' ' ' ' ' ' ' ' ' ' _ }.|.O O O O O O O O   $ . o O O ",
"O O O O O O O O O O O O O O O O 3.A ,./.' ' ' =.V.8.8.8.8.8.8.8.7. X' ' ' ' ' ' ' ' ' ' ' ' ' q.C N O O O O O O O O O 7 7 O O O ",
"O O O O O O O O O O O O O O O O .X! Z @.' ' ' ' XXoX8.8.8.8.8.8.8.8.~.OX{.+X' ' ' ' ' ' ' ' =.W n @XO O O O O O O O O O O O O O ",
"O O O O O O O O O O O O O O O O @X#XA T ' ' ' ' =.a.8.8.8.8.8.8.8.8.8.8.B.^.C.+X' ' ' ' ' ' Y.Y (.$XO O O r , k.O O O O O O O O ",
"O O O O O O O O O O % > % O O O O %X} U Y.' ' ' ' c.g.8.8.8.8.8.8.8.8.8.8.8.9.n.' ' ' ' ' ' q.C g O O O O ^ w & > O O O O O O O ",
"O O O O O O O O O r = J 1 - O O O &X*XA T ` ' ' ' ' =Xb.8.8.8.8.8.8.8.8.8.8.8.6.+X' ' ' ' /.{ M O O O O O 1 s 3 > O O O O O O O ",
"O O O O O O O O O r & p ; u O O O O -X! Z @.' ' ' ' ' :.g.8.8.8.8.8.8.8.8.8.8.^.m.' ' ' =.R ;XH O O O O O > j o O O O O O O O O ",
"O O O O O O O O O O y 1 o O O O O O :X[.} U x.' ' ' ' ' =.>Xg.7.8.8.8.8.8.8.g.,X' ' ' ` q.! <XO O O O O O O O O O O O O O O O O ",
"O O O O O O O O O O O O O O O O O O O N ;X,.1X+.2X' ' ' ' ' =.:.-.y.>X3X4X5Xm.' ' ' ` E 6Xl H O O O O O O O O O O O O O O O O O ",
"O O O O O O O O O O O O O O O O O O O O 7X8XZ { _ ' ' ' ' ' ' ' ' ' ' ' ' ' ' ' ' ` R 9XF O O O O O O O O O O O O O O O O O O O ",
"O O O O O O O O O O O O O O O O O O O O O 0Xl.S U qX] ' ' ' ' ' ' ' ' ' ' ' ' ` +.W ! wXeX- > 2 O O O O O O O O O O O O O O O O ",
"O O O O O O O O O O O O O O O O O O O O O O @XrXc Z *.R +.` ' ' ' ' ' ' ' ] _ W S n tXL O + # i > O O O O O O O O O O O O O O O ",
"O O O O O O O O O O O O O O O O O O O O O O O O G [.! } { T R E x.x.x.q.W L.Y D yXI.O O O 0 uXJ > O O O O O O O O O O O O O O O ",
"O O O O O O O O O O O O O O O O O O O O O O O O O i.7XrXn c v }.}.}.W.iXpXaXtXh O O O O O , 1 0 r O O O - r r O O O O - < ^ , O ",
"O O O O O O O O O O O O O O O O O O O O O O O O O O O O O O sXsXsXsXsXG O O O O O O O O O O O O O O O O < 6 1 r O O O > # 4 : O ",
"O O O O , o > O O O O O O O O O O O O O O O o 1 y O O O O O O O O O O O O O O O O O O O O O O O O O O O = dX8 % O O O % i $ t O ",
"O O O % e s = O O O O O O O O O O O O O O u ; p & r O O O O O O O O O O O O O O O O O O O O O O O O O O y i ^ r O O O O > > r O ",
"O O O % i d : O O O O O O O O O O O O O O u 1 J fXr O O O O O O O O O O O O O O O O O O O O O O O O O O O u - O O O O O O O O O ",
"O O O O >   % O O O O O O O O O O O O O O O % > % O O O O O O O O O O O O O O O O O O O O O O O O O O O O O O O O O O O O O O O ",
"O O O O O O O O O O O O O O O O O O O O O O O O O O O O O O O O O O O O O O O O O O O O O O O O O O O O O O O O O O O O O O O O ",
"O O O O O O O O O O O O O O O O O O O O O O O O O O O O O O O O u < < u O O O O O O O O O O O O O O u , , O O O O O O O O O O O ",
"O O O O O O O O O O O O O O O O O O O O O O O O O O O O O O O O   . X o O O O O O O O O O O O O O O t . 3 > O O O O O O O O O O ",
"O O O O O O O O O O O O O %     O O O O O O O O O O O O O O O O   # $ o O O O O O O O O O O O O O O t 9 8 > O O O O O O O O O O ",
"O O O O O O O O O O O O O ^ d q > O O O O O O O O O O O O O O O O @ @ O O O O O O O O O O O O O O O % y o O O O O O O O O O O O ",
"@ O O O O O O O O O O O O ^ 5 q > O O O O O O O O O O O O O O O O O O O O O O O O O O O O O O O O O O O O O O O O O O O O O O O ",
"$ o O O O O O O O O O O O %   , O O O O O O O O O O O O O O O O O O O O O O O O > > O O O O O O O O O O O O O O O O O O O O O O ",
"X o O O O O O O O O O O O O O O O O O O O O O O O O O O O O O O O O O O O O O , q q   O O O O O O O O O O O O O O O O O O O O O ",
"< r O O O O O O O O O O O O O O O O O O % y o O O O O O O O O O O O O O O O O   X 9 7 O O O O O O O O O O u 1 fXk.O O O O O O O ",
"O O O O O O O O O O O O O O O O O O O O t d $ > O O O O O O O O O O O O O O O % ^ 1 % O O O O O O O O O O F.4 dX; O O O O O O O ",
"O O O O O O O O O O O O O O O O O O O O t . 3 > O O O O O O O O O O O O O O O O O O O O O O O O O O O O O < s p ; O O O O O O O "
};
